<?xml version="1.0" encoding="UTF-8" standalone="no"?>
<!-- Created with Inkscape (http://www.inkscape.org/) -->

<svg
   width="208mm"
   height="121mm"
   viewBox="0 0 208 121"
   version="1.1"
   id="svg1"
   xml:space="preserve"
   inkscape:version="1.3.2 (091e20ef0f, 2023-11-25)"
   sodipodi:docname="gepref_text.svg"
   inkscape:export-filename="gepref.png"
   inkscape:export-xdpi="96"
   inkscape:export-ydpi="96"
   xmlns:inkscape="http://www.inkscape.org/namespaces/inkscape"
   xmlns:sodipodi="http://sodipodi.sourceforge.net/DTD/sodipodi-0.dtd"
   xmlns="http://www.w3.org/2000/svg"
   xmlns:svg="http://www.w3.org/2000/svg"><sodipodi:namedview
     id="namedview1"
     pagecolor="#ffffff"
     bordercolor="#000000"
     borderopacity="0.25"
     inkscape:showpageshadow="2"
     inkscape:pageopacity="0.0"
     inkscape:pagecheckerboard="0"
     inkscape:deskcolor="#d1d1d1"
     inkscape:document-units="mm"
     inkscape:zoom="1.0633188"
     inkscape:cx="317.8727"
     inkscape:cy="191.85216"
     inkscape:window-width="1916"
     inkscape:window-height="988"
     inkscape:window-x="1080"
     inkscape:window-y="930"
     inkscape:window-maximized="1"
     inkscape:current-layer="layer1"
     showguides="false"
     showgrid="false" /><defs
     id="defs1"><rect
       x="-192.31857"
       y="377.02064"
       width="153.24836"
       height="80.302192"
       id="rect2" /><rect
       x="16.875782"
       y="642.23389"
       width="280.90555"
       height="139.42021"
       id="rect6" /><rect
       x="457.06024"
       y="776.7995"
       width="288.05054"
       height="169.29039"
       id="rect5" /><rect
       x="0"
       y="521.36584"
       width="208.75003"
       height="223.8726"
       id="rect3" /><rect
       x="0"
       y="521.36584"
       width="208.75003"
       height="223.8726"
       id="rect4" /><rect
       x="16.875782"
       y="642.23389"
       width="280.90555"
       height="139.42021"
       id="rect7" /></defs><g
     inkscape:label="Layer 1"
     inkscape:groupmode="layer"
     id="layer1"><path
       id="path7"
       style="fill:#550000;stroke:#000000;stroke-width:1.5;stroke-dasharray:none;stroke-opacity:1"
       inkscape:transform-center-x="48.840131"
       inkscape:transform-center-y="3.3797406"
       d="m 207.21061,38.975695 -38.6271,24.708049 a 73.087296,22.001381 0 0 1 12.5305,3.93775 c 13.79881,-12.89737 26.0966,-28.645799 26.0966,-28.645799 z" /><rect
       style="fill:#550000;stroke-width:0.908677"
       id="rect1"
       width="68.203049"
       height="49.906391"
       x="21.626602"
       y="55.137497"
       ry="24.953196" /><path
       style="fill:#dcb1b2;fill-opacity:1;stroke:#000005;stroke-width:1.5;stroke-dasharray:none;stroke-opacity:1"
       id="path5"
       sodipodi:type="arc"
       sodipodi:cx="57.151039"
       sodipodi:cy="42.309998"
       sodipodi:rx="9.253581"
       sodipodi:ry="9.996666"
       sodipodi:start="0"
       sodipodi:end="6.2810403"
       sodipodi:arc-type="arc"
       d="m 66.40462,42.309998 a 9.253581,9.996666 0 0 1 -9.248619,9.996664 9.253581,9.996666 0 0 1 -9.258538,-9.985943 9.253581,9.996666 0 0 1 9.238689,-10.007374 9.253581,9.996666 0 0 1 9.268447,9.97521"
       sodipodi:open="true" /><path
       d="m 43.337621,21.503207 c 10.326431,-2.053142 11.136997,-2.79907 17.039167,-3.078633 6.419255,-0.304057 11.278279,0.714957 14.555532,2.144871 3.302823,1.417379 4.954263,3.499525 4.954263,6.246466 0,2.772019 -1.65144,4.866714 -4.954263,6.284093 -3.277253,1.417379 -8.129081,2.126058 -14.555532,2.126058 h -9.754893 v 17.080602 h -7.757837 z"
       id="text4"
       style="font-size:33.3333px;-inkscape-font-specification:sans-serif;text-align:center;text-anchor:middle;white-space:pre;fill:#666666;stroke:#000000;stroke-width:1.5;stroke-dasharray:none;stroke-opacity:1;fill-opacity:1"
       aria-label="P"
       sodipodi:nodetypes="cscscscccc" /><g
       id="g1"
       transform="matrix(0.02559156,0,0,0.02559156,54.823875,39.427534)">
	<path
   class="st0"
   d="m 510.304,239.426 c 0,0 -15.641,30.016 -44.969,27.875 -29.359,-2.141 -60.641,-70.766 -119.344,-92.219 -58.688,-21.453 -90,12.859 -90,12.859 0,0 -31.297,-34.313 -89.969,-12.859 -58.688,21.453 -89.984,90.078 -119.328,92.219 -29.344,2.141 -45,-27.875 -45,-27.875 0,0 -9.781,25.734 17.625,62.188 27.375,36.453 103.656,51.781 152.578,36.453 54.75,-17.156 84.094,-60.031 84.094,-60.031 0,0 27.391,45.031 84.125,60.031 49.453,13.094 125.219,0 152.594,-36.453 27.375,-36.453 17.594,-62.188 17.594,-62.188 z"
   id="path1" />
</g><path
       id="path4"
       style="fill:#aa0000;stroke:#000005;stroke-width:1.5;stroke-dasharray:none;stroke-opacity:1"
       d="m 122.70579,58.800324 a 73.087296,22.001381 0 0 0 -38.141737,3.2799 30.120339,53.978725 0 0 1 1.948238,18.23093 l 10e-4,0.49041 a 30.120339,53.978725 0 0 1 -1.951185,18.72134 73.087296,22.001381 0 0 0 38.143504,3.279896 73.087296,22.001381 0 0 0 73.08751,-22.001236 73.087296,22.001381 0 0 0 -73.08733,-22.00124 z" /><path
       id="text3"
       style="font-size:33.3333px;-inkscape-font-specification:sans-serif;text-align:center;text-anchor:middle;white-space:pre;fill:#aa0000;stroke:#000005;stroke-width:1.5;stroke-dasharray:none;stroke-opacity:1"
       d="m 52.980234,1.14066 c -16.29639,0 -29.054018,4.772437 -38.273116,14.317473 -9.172533,9.498463 -13.75885,22.768629 -13.75885,39.809971 0,16.9948 4.586317,30.26443 13.75885,39.80946 9.219098,9.498456 21.976726,14.247706 38.273116,14.247706 7.449762,0 14.457375,-0.97761 21.02249,-2.93315 6.565114,-2.00213 15.218107,-8.351816 18.086157,-16.531586 1.00416,-3.67346 2.8619,-8.74561 2.22401,-13.75896 -0.0469,-5.27651 -3.0004,-14.25062 -10.269139,-20.05459 -6.869045,-4.95233 -15.236131,-5.23235 -26.892713,-5.23235 -10.453903,0 -17.295649,0.25125 -24.233135,3.75696 -6.937486,3.50571 -9.751619,14.84828 -10.666453,25.62892 l 59.669653,-0.36181 c -0.55508,5.82628 -3.19146,10.27278 -7.909595,13.33924 -4.764395,3.0358 -11.379382,4.55372 -19.844267,4.55372 -0.855466,0 -1.699455,-0.0279 -2.545064,-0.0522 -11.494148,-0.44971 -20.239045,-3.99198 -26.229407,-10.63346 -6.378867,-7.12386 -9.568408,-17.71646 -9.568408,-31.77791 0,-14.10799 3.189541,-24.724344 9.568408,-31.848183 6.42544,-7.123869 16.016737,-10.685653 28.774471,-10.685653 6.471998,0 12.641732,1.117315 18.508431,3.35225 5.86667,2.234934 11.407386,5.56418 16.622238,9.987504 V 11.057884 C 84.129631,7.798614 78.472417,5.330926 72.32634,3.654719 66.226866,1.978511 59.778153,1.14066 52.980234,1.14066 Z m 4.031796,56.849764 c 7.123439,0 12.836136,1.33399 17.137972,4.00182 4.255582,2.66781 6.70752,6.42408 7.355106,11.26908 l -45.516601,-0.046 c 0.09265,-4.63036 2.058701,-8.32529 5.897831,-11.08511 3.793029,-2.75981 8.834845,-4.1398 15.125692,-4.1398 z"
       sodipodi:nodetypes="scscsccccszcccsccscsscccssccccss" /><path
       id="path2"
       style="fill:#333333;stroke:#000000;stroke-width:1.5;stroke-dasharray:none;stroke-opacity:1"
       d="m 179.56527,66.988974 a 33.703796,27.289461 0 0 0 -2.82825,22.7552 33.703796,27.289461 0 0 0 2.86029,4.85913 73.087296,22.001381 0 0 0 16.19591,-13.80174 73.087296,22.001381 0 0 0 -16.22795,-13.81259 z" /><text
       xml:space="preserve"
       transform="matrix(0.53179892,0,0,0.53179892,26.197152,-269.81336)"
       id="text5"
       style="font-size:33.3333px;font-family:sans-serif;-inkscape-font-specification:sans-serif;text-align:center;white-space:pre;shape-inside:url(#rect6);display:inline;fill:#000000;stroke:#000000;stroke-width:0.377953;stroke-dasharray:none;stroke-opacity:1;fill-opacity:1"><tspan
         x="134.35451"
         y="671.72653"
         id="tspan2"><tspan
           style="font-style:italic"
           id="tspan1">ref</tspan></tspan></text><path
       id="path6"
       style="fill:#550000;stroke:#000000;stroke-width:1.5;stroke-dasharray:none;stroke-opacity:1"
       d="m 179.56527,66.988974 a 33.703796,27.289461 0 0 0 -2.82825,22.7552 33.703796,27.289461 0 0 0 2.86029,4.85913 73.087296,22.001381 0 0 0 16.19591,-13.80174 73.087296,22.001381 0 0 0 -16.22795,-13.81259 z" /><path
       style="fill:#550000;stroke:#000000;stroke-width:1.5;stroke-dasharray:none;stroke-opacity:1"
       d="m 134.88883,83.539594 c 0,0 55.35861,13.93863 -66.841528,36.332026 z"
       id="path3"
       sodipodi:nodetypes="ccc" /><path
       id="path9"
       style="fill:#666666;stroke:none;stroke-width:0.201;stroke-dasharray:none;stroke-opacity:1"
       d="m 176.67191,23.377327 -10.65722,0.100252 h -47.29738 l -10.65723,23.822319 10.65723,-0.100769 h 47.29738 z" /><path
       id="rect8"
       style="fill:#000000;stroke:none;stroke-width:0.201;stroke-dasharray:none;stroke-opacity:1"
       d="M 174.41209 19.601904 L 163.75486 19.702157 L 116.45749 19.702157 L 105.80026 43.524475 L 116.45749 43.423706 L 163.75486 43.423706 L 174.41209 19.601904 z M 124.8637 25.214482 L 126.45636 25.214482 L 125.92823 27.966768 L 129.11357 27.966768 L 128.8712 29.204936 L 125.69465 29.204936 L 124.66474 34.467147 C 124.63012 34.66334 124.60402 34.827938 124.58671 34.960657 C 124.5694 35.093375 124.56087 35.197251 124.56087 35.272266 C 124.56087 35.64157 124.67026 35.910044 124.88953 36.077384 C 125.11458 36.244725 125.47237 36.328015 125.96285 36.328015 L 127.57309 36.328015 L 127.30489 37.661267 L 125.78147 37.661267 C 124.83513 37.661267 124.12807 37.4766 123.66067 37.107296 C 123.19904 36.737992 122.9682 36.177961 122.9682 35.427812 C 122.9682 35.295093 122.97673 35.15108 122.99404 34.99528 C 123.01135 34.833709 123.03745 34.657569 123.07207 34.467147 L 124.10199 29.204936 L 122.75168 29.204936 L 123.00283 27.966768 L 124.32729 27.966768 L 124.8637 25.214482 z M 153.2108 25.214482 L 154.80347 25.214482 L 154.27534 27.966768 L 157.46067 27.966768 L 157.21831 29.204936 L 154.04176 29.204936 L 153.01185 34.467147 C 152.97723 34.66334 152.95113 34.827938 152.93382 34.960657 C 152.91651 35.093375 152.90798 35.197251 152.90798 35.272266 C 152.90798 35.64157 153.01737 35.910044 153.23664 36.077384 C 153.46169 36.244725 153.81948 36.328015 154.30996 36.328015 L 155.9202 36.328015 L 155.65148 37.661267 L 154.12806 37.661267 C 153.18172 37.661267 152.47518 37.4766 152.00778 37.107296 C 151.54615 36.737992 151.31531 36.177961 151.31531 35.427812 C 151.31531 35.295093 151.32384 35.15108 151.34115 34.99528 C 151.35846 34.833709 151.38456 34.657569 151.41918 34.467147 L 152.44909 29.204936 L 151.09879 29.204936 L 151.34993 27.966768 L 152.6744 27.966768 L 153.2108 25.214482 z M 135.0946 27.733191 C 136.19097 27.733191 137.06262 28.062388 137.70891 28.720211 C 138.36096 29.378034 138.68663 30.260716 138.68663 31.368628 C 138.68663 31.634065 138.66957 31.919593 138.63495 32.225423 C 138.60033 32.525483 138.54813 32.84865 138.47889 33.194873 L 131.07004 33.194873 C 131.03541 33.414147 131.01233 33.587273 131.00079 33.714221 C 130.98925 33.841169 130.98322 33.951074 130.98322 34.0434 C 130.98322 34.845482 131.22861 35.46572 131.71909 35.904268 C 132.21534 36.342817 132.91336 36.562109 133.81354 36.562109 C 134.50598 36.562109 135.16085 36.483815 135.77828 36.328015 C 136.39571 36.172215 136.97029 35.944396 137.50117 35.644336 L 137.19783 37.21995 C 136.62656 37.450765 136.03544 37.623891 135.42378 37.739299 C 134.81789 37.854706 134.20015 37.912415 133.57118 37.912415 C 132.22668 37.912415 131.19094 37.591745 130.46387 36.951233 C 129.74257 36.304951 129.38177 35.390658 129.38177 34.207731 C 129.38177 33.197915 129.56092 32.260023 129.91868 31.394466 C 130.28222 30.523139 130.81314 29.747347 131.51135 29.066443 C 131.96144 28.639435 132.49537 28.310238 133.11281 28.079423 C 133.73601 27.848608 134.39638 27.733191 135.0946 27.733191 z M 141.24874 27.966768 L 143.07499 27.966768 L 144.93586 31.472498 L 148.18217 27.966768 L 150.11228 27.966768 L 145.66294 32.718933 L 148.38939 37.661267 L 146.56315 37.661267 L 144.51211 33.818091 L 140.94592 37.661267 L 139.0158 37.661267 L 143.78502 32.554602 L 141.24874 27.966768 z M 134.84345 29.083496 C 134.05291 29.083496 133.35489 29.334399 132.749 29.836422 C 132.14311 30.332674 131.68446 31.039733 131.37286 31.957222 L 137.09396 31.948437 C 137.11127 31.856111 137.12281 31.760763 137.12858 31.662667 C 137.14012 31.56457 137.14615 31.466724 137.14615 31.368628 C 137.14615 30.664642 136.9384 30.107626 136.52293 29.697929 C 136.11324 29.288232 135.55321 29.083496 134.84345 29.083496 z " /></g><style
     type="text/css"
     id="style1">
<![CDATA[
	.st0{fill:#000000;}
]]>
</style></svg>
