<?xml version="1.0" encoding="UTF-8" standalone="no"?>
<!-- Created with Inkscape (http://www.inkscape.org/) -->

<svg
   width="379mm"
   height="62mm"
   viewBox="0 0 379 62"
   version="1.1"
   id="svg1"
   inkscape:version="1.3.2 (091e20ef0f, 2023-11-25)"
   sodipodi:docname="preprocessor.svg"
   xmlns:inkscape="http://www.inkscape.org/namespaces/inkscape"
   xmlns:sodipodi="http://sodipodi.sourceforge.net/DTD/sodipodi-0.dtd"
   xmlns="http://www.w3.org/2000/svg"
   xmlns:svg="http://www.w3.org/2000/svg">
  <sodipodi:namedview
     id="namedview1"
     pagecolor="#505050"
     bordercolor="#ffffff"
     borderopacity="1"
     inkscape:showpageshadow="0"
     inkscape:pageopacity="0"
     inkscape:pagecheckerboard="1"
     inkscape:deskcolor="#505050"
     inkscape:document-units="mm"
     inkscape:zoom="0.70377385"
     inkscape:cx="700.50912"
     inkscape:cy="402.11781"
     inkscape:window-width="1916"
     inkscape:window-height="1006"
     inkscape:window-x="1080"
     inkscape:window-y="912"
     inkscape:window-maximized="1"
     inkscape:current-layer="layer1" />
  <defs
     id="defs1">
    <rect
       x="330.68979"
       y="882.16614"
       width="513.12073"
       height="202.45673"
       id="rect8" />
    <marker
       style="overflow:visible"
       id="marker4"
       refX="0"
       refY="0"
       orient="auto-start-reverse"
       inkscape:stockid="Rounded arrow"
       markerWidth="1"
       markerHeight="1"
       viewBox="0 0 1 1"
       inkscape:isstock="true"
       inkscape:collect="always"
       preserveAspectRatio="xMidYMid">
      <path
         transform="scale(0.7)"
         d="m -0.21114562,-4.1055728 6.42229122,3.21114561 a 1,1 90 0 1 0,1.78885438 L -0.21114562,4.1055728 A 1.236068,1.236068 31.717474 0 1 -2,3 v -6 a 1.236068,1.236068 148.28253 0 1 1.78885438,-1.1055728 z"
         style="fill:context-stroke;fill-rule:evenodd;stroke:none"
         id="path4" />
    </marker>
    <rect
       x="330.68979"
       y="882.16614"
       width="513.12073"
       height="202.45673"
       id="rect9" />
    <rect
       x="330.68979"
       y="882.16614"
       width="513.12073"
       height="202.45673"
       id="rect10" />
    <rect
       x="330.68979"
       y="882.16614"
       width="513.12073"
       height="202.45673"
       id="rect11" />
  </defs>
  <g
     inkscape:label="Layer 1"
     inkscape:groupmode="layer"
     id="layer1">
    <g
       id="page1-7"
       transform="matrix(2.3280027,0,0,2.3280027,-61.777552,16.487935)"
       style="fill:#008080;fill-opacity:1;stroke-width:0.999999;stroke-dasharray:none" />
    <g
       id="g1">
      <rect
         style="fill:none;stroke:#800000;stroke-width:1;stroke-dasharray:none;stroke-opacity:1"
         id="rect1"
         width="85.794983"
         height="60.218395"
         x="90.839851"
         y="0.8908059"
         ry="10.828829" />
      <rect
         style="fill:none;stroke:#800000;stroke-width:1;stroke-dasharray:none;stroke-opacity:0.976471"
         id="rect2"
         width="85.794983"
         height="60.218395"
         x="205.26407"
         y="0.8908059"
         ry="10.828829" />
      <path
         style="fill:none;fill-rule:evenodd;stroke:#800000;stroke-width:1;stroke-linecap:butt;stroke-linejoin:miter;stroke-dasharray:none;stroke-opacity:1;marker-end:url(#marker4)"
         d="m 176.63485,31 h 22.06694"
         id="path5"
         inkscape:connector-type="polyline"
         inkscape:connector-curvature="0"
         sodipodi:nodetypes="cc" />
      <path
         style="fill:none;fill-rule:evenodd;stroke:#800000;stroke-width:1;stroke-linecap:butt;stroke-linejoin:miter;stroke-dasharray:none;stroke-opacity:1;marker-end:url(#marker4)"
         d="m 291.20074,31 h 22.06694"
         id="path6"
         inkscape:connector-type="polyline"
         inkscape:connector-curvature="0"
         sodipodi:nodetypes="cc" />
      <path
         style="fill:none;fill-rule:evenodd;stroke:#800000;stroke-width:1;stroke-linecap:butt;stroke-linejoin:miter;stroke-dasharray:none;stroke-opacity:1;marker-end:url(#marker4)"
         d="m 62.210629,30.86771 h 22.06694"
         id="path7"
         inkscape:connector-type="polyline"
         inkscape:connector-curvature="0"
         sodipodi:nodetypes="cc" />
      <path
         d="m 338.41797,884.70898 v 1.24805 q -0.59766,-0.55664 -1.27735,-0.83203 -0.67382,-0.27539 -1.43554,-0.27539 -1.5,0 -2.29688,0.91992 -0.79687,0.91406 -0.79687,2.64844 0,1.72851 0.79687,2.64844 0.79688,0.91406 2.29688,0.91406 0.76172,0 1.43554,-0.27539 0.67969,-0.27539 1.27735,-0.83203 v 1.23632 q -0.6211,0.42188 -1.31836,0.63282 -0.69141,0.21093 -1.46484,0.21093 -1.98633,0 -3.12891,-1.21289 -1.14258,-1.21875 -1.14258,-3.32226 0,-2.10938 1.14258,-3.32227 1.14258,-1.21875 3.12891,-1.21875 0.78515,0 1.47656,0.21094 0.69726,0.20508 1.30664,0.62109 z m 4.76367,4.77539 q -1.30664,0 -1.81055,0.29883 -0.5039,0.29883 -0.5039,1.01953 0,0.57422 0.375,0.91407 0.38086,0.33398 1.03125,0.33398 0.89648,0 1.43554,-0.63281 0.54493,-0.63867 0.54493,-1.69336 v -0.24024 z m 2.15039,-0.44531 v 3.74414 h -1.07812 v -0.99609 q -0.36914,0.59766 -0.91993,0.88476 -0.55078,0.28125 -1.34765,0.28125 -1.00781,0 -1.60547,-0.5625 -0.5918,-0.56835 -0.5918,-1.51757 0,-1.10743 0.73828,-1.66993 0.74414,-0.5625 2.21485,-0.5625 h 1.51172 v -0.10546 q 0,-0.74414 -0.49219,-1.14844 -0.48633,-0.41016 -1.3711,-0.41016 -0.5625,0 -1.0957,0.13477 -0.5332,0.13476 -1.02539,0.40429 v -0.99609 q 0.5918,-0.22851 1.14844,-0.33984 0.55664,-0.11719 1.08398,-0.11719 1.42383,0 2.12696,0.73828 0.70312,0.73828 0.70312,2.23828 z m 7.67578,-0.21679 v 3.96093 h -1.07812 v -3.92578 q 0,-0.93164 -0.36328,-1.39453 Q 351.20312,887 350.47656,887 q -0.87304,0 -1.37695,0.55664 -0.50391,0.55664 -0.50391,1.51758 v 3.70898 h -1.08398 v -6.5625 h 1.08398 v 1.01953 q 0.38672,-0.59179 0.90821,-0.88476 0.52734,-0.29297 1.21289,-0.29297 1.13086,0 1.71093,0.70312 0.58008,0.69727 0.58008,2.05665 z m 6.87305,-2.34961 v 1.00781 q -0.45703,-0.25195 -0.91992,-0.375 -0.45703,-0.12891 -0.92578,-0.12891 -1.04883,0 -1.62891,0.66797 -0.58008,0.66211 -0.58008,1.86328 0,1.20117 0.58008,1.86914 0.58008,0.66211 1.62891,0.66211 0.46875,0 0.92578,-0.12304 0.46289,-0.12891 0.91992,-0.38086 v 0.99609 q -0.45117,0.21094 -0.9375,0.31641 -0.48047,0.10546 -1.02539,0.10546 -1.48242,0 -2.35547,-0.93164 -0.87305,-0.93164 -0.87305,-2.51367 0,-1.60547 0.87891,-2.52539 0.88476,-0.91992 2.41992,-0.91992 0.49805,0 0.97266,0.10547 0.47461,0.0996 0.91992,0.30469 z m 1.875,-0.25196 h 1.07812 v 6.5625 h -1.07812 z m 0,-2.55468 h 1.07812 v 1.36523 h -1.07812 z m 5.87695,3.31054 q -0.86719,0 -1.37109,0.67969 -0.50391,0.67383 -0.50391,1.85156 0,1.17774 0.49805,1.85742 0.50391,0.67383 1.37695,0.67383 0.86133,0 1.36524,-0.67969 0.5039,-0.67968 0.5039,-1.85156 0,-1.16601 -0.5039,-1.8457 -0.50391,-0.68555 -1.36524,-0.68555 z m 0,-0.91406 q 1.40625,0 2.20899,0.91406 0.80273,0.91406 0.80273,2.53125 0,1.61133 -0.80273,2.53125 -0.80274,0.91406 -2.20899,0.91406 -1.41211,0 -2.21484,-0.91406 -0.79688,-0.91992 -0.79688,-2.53125 0,-1.61719 0.79688,-2.53125 0.80273,-0.91406 2.21484,-0.91406 z m 0.81446,-2.87695 h 1.16601 l -1.91016,2.20312 h -0.89648 z m 9.43945,5.63672 v 3.96093 h -1.07813 v -3.92578 q 0,-0.93164 -0.36328,-1.39453 Q 376.08203,887 375.35547,887 q -0.87305,0 -1.37695,0.55664 -0.50391,0.55664 -0.50391,1.51758 v 3.70898 h -1.08399 v -6.5625 h 1.08399 v 1.01953 q 0.38672,-0.59179 0.9082,-0.88476 0.52735,-0.29297 1.21289,-0.29297 1.13086,0 1.71094,0.70312 0.58008,0.69727 0.58008,2.05665 z"
         id="text8"
         style="white-space:pre;fill:#800000;stroke-width:0.759685"
         transform="matrix(1.2114032,0,0,1.2114032,-401.0674,-1044.81)"
         aria-label="Canción" />
      <path
         d="m 331.86719,884.03516 h 1.18359 v 7.75195 h 4.25977 v 0.99609 h -5.44336 z m 8.9707,2.9414 q -0.86719,0 -1.37109,0.67969 -0.50391,0.67383 -0.50391,1.85156 0,1.17774 0.49805,1.85742 0.5039,0.67383 1.37695,0.67383 0.86133,0 1.36523,-0.67969 0.50391,-0.67968 0.50391,-1.85156 0,-1.16601 -0.50391,-1.8457 -0.5039,-0.68555 -1.36523,-0.68555 z m 0,-0.91406 q 1.40625,0 2.20898,0.91406 0.80274,0.91406 0.80274,2.53125 0,1.61133 -0.80274,2.53125 -0.80273,0.91406 -2.20898,0.91406 -1.41211,0 -2.21484,-0.91406 -0.79688,-0.91992 -0.79688,-2.53125 0,-1.61719 0.79688,-2.53125 0.80273,-0.91406 2.21484,-0.91406 z m 4.17188,0.1582 h 1.07812 l 1.34766,5.1211 1.34179,-5.1211 h 1.27149 l 1.34765,5.1211 1.3418,-5.1211 h 1.07813 l -1.7168,6.5625 h -1.27149 l -1.4121,-5.3789 -1.41797,5.3789 h -1.27149 z m 16.05468,3.01172 v 0.52735 h -4.95703 q 0.0703,1.11328 0.66797,1.69921 0.60352,0.58008 1.67578,0.58008 0.6211,0 1.20117,-0.15234 0.58594,-0.15235 1.16016,-0.45703 v 1.01953 q -0.58008,0.24609 -1.18945,0.375 -0.60938,0.1289 -1.23633,0.1289 -1.57031,0 -2.49024,-0.91406 -0.91406,-0.91406 -0.91406,-2.47265 0,-1.61133 0.86719,-2.55469 0.87305,-0.94922 2.34961,-0.94922 1.32422,0 2.0918,0.85547 0.77343,0.84961 0.77343,2.31445 z m -1.07812,-0.3164 q -0.0117,-0.88477 -0.49805,-1.41211 -0.48047,-0.52735 -1.27734,-0.52735 -0.90235,0 -1.44727,0.50977 -0.53906,0.50976 -0.62109,1.43554 z m 6.65039,-1.6875 q -0.18164,-0.10547 -0.39844,-0.15235 -0.21094,-0.0527 -0.46875,-0.0527 -0.91406,0 -1.40625,0.59765 -0.48633,0.5918 -0.48633,1.70508 v 3.45703 h -1.08398 v -6.5625 h 1.08398 v 1.01953 q 0.33985,-0.59765 0.88477,-0.88476 0.54492,-0.29297 1.32422,-0.29297 0.11133,0 0.24609,0.0176 0.13477,0.0117 0.29883,0.041 z m 6.42187,-2.90625 v 1.15429 q -0.67382,-0.32226 -1.27148,-0.48047 -0.59766,-0.1582 -1.1543,-0.1582 -0.96679,0 -1.49414,0.375 -0.52148,0.375 -0.52148,1.06641 0,0.58007 0.3457,0.8789 0.35156,0.29297 1.32422,0.47461 l 0.71484,0.14649 q 1.32422,0.25195 1.95117,0.89062 0.63282,0.63281 0.63282,1.69922 0,1.27148 -0.85547,1.92773 -0.84961,0.65625 -2.4961,0.65625 -0.62109,0 -1.32421,-0.14062 -0.69727,-0.14063 -1.44727,-0.41602 v -1.21875 q 0.7207,0.4043 1.41211,0.60938 0.69141,0.20508 1.35937,0.20508 1.01368,0 1.56446,-0.39844 0.55078,-0.39844 0.55078,-1.13672 0,-0.64453 -0.39844,-1.00781 -0.39258,-0.36328 -1.29492,-0.54492 l -0.7207,-0.14063 q -1.32422,-0.26367 -1.91602,-0.82617 -0.5918,-0.5625 -0.5918,-1.56445 0,-1.16016 0.81446,-1.82813 0.82031,-0.66797 2.25586,-0.66797 0.61523,0 1.2539,0.11133 0.63867,0.11133 1.30664,0.33399 z m 3.39258,0.0352 v 1.86328 h 2.2207 v 0.83789 h -2.2207 v 3.5625 q 0,0.80274 0.2168,1.03125 0.22265,0.22852 0.89648,0.22852 h 1.10742 v 0.90234 h -1.10742 q -1.24804,0 -1.72265,-0.46289 -0.47461,-0.46875 -0.47461,-1.69922 v -3.5625 h -0.79102 v -0.83789 h 0.79102 v -1.86328 z m 9.25195,4.875 v 0.52735 h -4.95703 q 0.0703,1.11328 0.66797,1.69921 0.60352,0.58008 1.67578,0.58008 0.6211,0 1.20118,-0.15234 0.58593,-0.15235 1.16015,-0.45703 v 1.01953 q -0.58008,0.24609 -1.18945,0.375 -0.60938,0.1289 -1.23633,0.1289 -1.57031,0 -2.49023,-0.91406 -0.91407,-0.91406 -0.91407,-2.47265 0,-1.61133 0.86719,-2.55469 0.87305,-0.94922 2.34961,-0.94922 1.32422,0 2.0918,0.85547 0.77343,0.84961 0.77343,2.31445 z m -1.07812,-0.3164 q -0.0117,-0.88477 -0.49805,-1.41211 -0.48047,-0.52735 -1.27734,-0.52735 -0.90234,0 -1.44727,0.50977 -0.53906,0.50976 -0.62109,1.43554 z m 3.89062,2.88281 v 3.48047 h -1.08398 v -9.0586 h 1.08398 v 0.9961 q 0.33985,-0.58594 0.85547,-0.86719 0.52149,-0.28711 1.24219,-0.28711 1.19531,0 1.93945,0.94922 0.75,0.94922 0.75,2.49609 0,1.54688 -0.75,2.4961 -0.74414,0.94921 -1.93945,0.94921 -0.7207,0 -1.24219,-0.28125 -0.51562,-0.2871 -0.85547,-0.87304 z m 3.66797,-2.29102 q 0,-1.18945 -0.49218,-1.86328 -0.48633,-0.67969 -1.3418,-0.67969 -0.85547,0 -1.34766,0.67969 -0.48633,0.67383 -0.48633,1.86328 0,1.18946 0.48633,1.86914 0.49219,0.67383 1.34766,0.67383 0.85547,0 1.3418,-0.67383 0.49218,-0.67968 0.49218,-1.86914 z"
         id="text9"
         style="white-space:pre;fill:#800000;stroke-width:0.759685"
         transform="matrix(1.2114032,0,0,1.2114032,-305.49924,-1046.6378)"
         aria-label="LowerStep" />
      <path
         d="m 331.73242,884.03516 h 1.18945 v 5.31445 q 0,1.40625 0.50977,2.02734 0.50977,0.61524 1.65234,0.61524 1.13672,0 1.64649,-0.61524 0.50976,-0.62109 0.50976,-2.02734 v -5.31445 h 1.18946 v 5.46093 q 0,1.71094 -0.84961,2.58399 -0.84375,0.87304 -2.4961,0.87304 -1.6582,0 -2.50781,-0.87304 -0.84375,-0.87305 -0.84375,-2.58399 z m 14.32617,4.78711 v 3.96093 h -1.07812 v -3.92578 q 0,-0.93164 -0.36328,-1.39453 Q 344.25391,887 343.52734,887 q -0.87304,0 -1.37695,0.55664 -0.50391,0.55664 -0.50391,1.51758 v 3.70898 h -1.08398 v -6.5625 h 1.08398 v 1.01953 q 0.38672,-0.59179 0.90821,-0.88476 0.52734,-0.29297 1.21289,-0.29297 1.13086,0 1.71094,0.70312 0.58007,0.69727 0.58007,2.05665 z m 2.15039,-2.60157 h 1.07813 v 6.5625 h -1.07813 z m 0,-2.55468 h 1.07813 v 1.36523 h -1.07813 z m 8.05664,2.80664 v 1.00781 q -0.45703,-0.25195 -0.91992,-0.375 -0.45703,-0.12891 -0.92578,-0.12891 -1.04883,0 -1.6289,0.66797 -0.58008,0.66211 -0.58008,1.86328 0,1.20117 0.58008,1.86914 0.58007,0.66211 1.6289,0.66211 0.46875,0 0.92578,-0.12304 0.46289,-0.12891 0.91992,-0.38086 v 0.99609 q -0.45117,0.21094 -0.9375,0.31641 -0.48046,0.10546 -1.02539,0.10546 -1.48242,0 -2.35546,-0.93164 -0.87305,-0.93164 -0.87305,-2.51367 0,-1.60547 0.8789,-2.52539 0.88477,-0.91992 2.41993,-0.91992 0.49804,0 0.97265,0.10547 0.47461,0.0996 0.91992,0.30469 z m 4.41797,0.5039 q -0.86718,0 -1.37109,0.67969 -0.50391,0.67383 -0.50391,1.85156 0,1.17774 0.49805,1.85742 0.50391,0.67383 1.37695,0.67383 0.86133,0 1.36524,-0.67969 0.5039,-0.67968 0.5039,-1.85156 0,-1.16601 -0.5039,-1.8457 -0.50391,-0.68555 -1.36524,-0.68555 z m 0,-0.91406 q 1.40625,0 2.20899,0.91406 0.80273,0.91406 0.80273,2.53125 0,1.61133 -0.80273,2.53125 -0.80274,0.91406 -2.20899,0.91406 -1.41211,0 -2.21484,-0.91406 -0.79688,-0.91992 -0.79688,-2.53125 0,-1.61719 0.79688,-2.53125 0.80273,-0.91406 2.21484,-0.91406 z m 9.11719,1.1543 v -3.55078 h 1.07813 v 9.11718 h -1.07813 v -0.98437 q -0.33984,0.58594 -0.86133,0.87304 -0.51562,0.28125 -1.24218,0.28125 -1.18946,0 -1.93946,-0.94921 -0.74414,-0.94922 -0.74414,-2.4961 0,-1.54687 0.74414,-2.49609 0.75,-0.94922 1.93946,-0.94922 0.72656,0 1.24218,0.28711 0.52149,0.28125 0.86133,0.86719 z m -3.67383,2.29101 q 0,1.18946 0.48633,1.86914 0.49219,0.67383 1.34766,0.67383 0.85547,0 1.34765,-0.67383 0.49219,-0.67968 0.49219,-1.86914 0,-1.18945 -0.49219,-1.86328 -0.49218,-0.67969 -1.34765,-0.67969 -0.85547,0 -1.34766,0.67969 -0.48633,0.67383 -0.48633,1.86328 z m 12.58594,-0.27539 v 0.52735 h -4.95703 q 0.0703,1.11328 0.66797,1.69921 0.60351,0.58008 1.67578,0.58008 0.62109,0 1.20117,-0.15234 0.58594,-0.15235 1.16016,-0.45703 v 1.01953 q -0.58008,0.24609 -1.18946,0.375 -0.60937,0.1289 -1.23632,0.1289 -1.57032,0 -2.49024,-0.91406 -0.91406,-0.91406 -0.91406,-2.47265 0,-1.61133 0.86719,-2.55469 0.87304,-0.94922 2.34961,-0.94922 1.32421,0 2.09179,0.85547 0.77344,0.84961 0.77344,2.31445 z m -1.07812,-0.3164 q -0.0117,-0.88477 -0.49805,-1.41211 -0.48047,-0.52735 -1.27735,-0.52735 -0.90234,0 -1.44726,0.50977 -0.53906,0.50976 -0.62109,1.43554 z m 8.13867,-4.59375 v 1.15429 q -0.67383,-0.32226 -1.27149,-0.48047 -0.59765,-0.1582 -1.15429,-0.1582 -0.9668,0 -1.49414,0.375 -0.52149,0.375 -0.52149,1.06641 0,0.58007 0.3457,0.8789 0.35157,0.29297 1.32422,0.47461 l 0.71485,0.14649 q 1.32422,0.25195 1.95117,0.89062 0.63281,0.63281 0.63281,1.69922 0,1.27148 -0.85547,1.92773 -0.84961,0.65625 -2.49609,0.65625 -0.6211,0 -1.32422,-0.14062 -0.69727,-0.14063 -1.44727,-0.41602 v -1.21875 q 0.72071,0.4043 1.41211,0.60938 0.69141,0.20508 1.35938,0.20508 1.01367,0 1.56445,-0.39844 0.55078,-0.39844 0.55078,-1.13672 0,-0.64453 -0.39843,-1.00781 -0.39258,-0.36328 -1.29493,-0.54492 l -0.7207,-0.14063 q -1.32422,-0.26367 -1.91602,-0.82617 -0.59179,-0.5625 -0.59179,-1.56445 0,-1.16016 0.81445,-1.82813 0.82031,-0.66797 2.25586,-0.66797 0.61523,0 1.25391,0.11133 0.63867,0.11133 1.30664,0.33399 z m 3.39258,0.0352 v 1.86328 h 2.2207 v 0.83789 h -2.2207 v 3.5625 q 0,0.80274 0.21679,1.03125 0.22266,0.22852 0.89649,0.22852 h 1.10742 v 0.90234 h -1.10742 q -1.24805,0 -1.72266,-0.46289 -0.47461,-0.46875 -0.47461,-1.69922 v -3.5625 h -0.79101 v -0.83789 h 0.79101 v -1.86328 z m 9.25195,4.875 v 0.52735 h -4.95703 q 0.0703,1.11328 0.66797,1.69921 0.60351,0.58008 1.67578,0.58008 0.62109,0 1.20117,-0.15234 0.58594,-0.15235 1.16016,-0.45703 v 1.01953 q -0.58008,0.24609 -1.18946,0.375 -0.60937,0.1289 -1.23633,0.1289 -1.57031,0 -2.49023,-0.91406 -0.91406,-0.91406 -0.91406,-2.47265 0,-1.61133 0.86718,-2.55469 0.87305,-0.94922 2.34961,-0.94922 1.32422,0 2.0918,0.85547 0.77344,0.84961 0.77344,2.31445 z m -1.07813,-0.3164 q -0.0117,-0.88477 -0.49804,-1.41211 -0.48047,-0.52735 -1.27735,-0.52735 -0.90234,0 -1.44726,0.50977 -0.53907,0.50976 -0.6211,1.43554 z m 3.89063,2.88281 v 3.48047 h -1.08399 v -9.0586 h 1.08399 v 0.9961 q 0.33984,-0.58594 0.85547,-0.86719 0.52148,-0.28711 1.24218,-0.28711 1.19532,0 1.93946,0.94922 0.75,0.94922 0.75,2.49609 0,1.54688 -0.75,2.4961 -0.74414,0.94921 -1.93946,0.94921 -0.7207,0 -1.24218,-0.28125 -0.51563,-0.2871 -0.85547,-0.87304 z m 3.66797,-2.29102 q 0,-1.18945 -0.49219,-1.86328 -0.48633,-0.67969 -1.3418,-0.67969 -0.85547,0 -1.34765,0.67969 -0.48633,0.67383 -0.48633,1.86328 0,1.18946 0.48633,1.86914 0.49218,0.67383 1.34765,0.67383 0.85547,0 1.3418,-0.67383 0.49219,-0.67968 0.49219,-1.86914 z"
         id="text10"
         style="white-space:pre;fill:#800000;stroke-width:0.759685"
         transform="matrix(0.98549344,0,0,0.98549344,-115.36233,-845.56946)"
         aria-label="UnicodeStep" />
      <path
         d="m 336.54297,886.47266 v 1.00781 q -0.45703,-0.25195 -0.91992,-0.375 -0.45703,-0.12891 -0.92578,-0.12891 -1.04883,0 -1.62891,0.66797 -0.58008,0.66211 -0.58008,1.86328 0,1.20117 0.58008,1.86914 0.58008,0.66211 1.62891,0.66211 0.46875,0 0.92578,-0.12304 0.46289,-0.12891 0.91992,-0.38086 v 0.99609 q -0.45117,0.21094 -0.9375,0.31641 -0.48047,0.10546 -1.02539,0.10546 -1.48242,0 -2.35547,-0.93164 -0.87305,-0.93164 -0.87305,-2.51367 0,-1.60547 0.87891,-2.52539 0.88476,-0.91992 2.41992,-0.91992 0.49805,0 0.97266,0.10547 0.47461,0.0996 0.91992,0.30469 z m 4.85742,3.01171 q -1.30664,0 -1.81055,0.29883 -0.5039,0.29883 -0.5039,1.01953 0,0.57422 0.375,0.91407 0.38086,0.33398 1.03125,0.33398 0.89648,0 1.43554,-0.63281 0.54493,-0.63867 0.54493,-1.69336 v -0.24024 z m 2.15039,-0.44531 v 3.74414 h -1.07812 v -0.99609 q -0.36914,0.59766 -0.91993,0.88476 -0.55078,0.28125 -1.34765,0.28125 -1.00781,0 -1.60547,-0.5625 -0.5918,-0.56835 -0.5918,-1.51757 0,-1.10743 0.73828,-1.66993 0.74414,-0.5625 2.21485,-0.5625 h 1.51172 v -0.10546 q 0,-0.74414 -0.49219,-1.14844 -0.48633,-0.41016 -1.3711,-0.41016 -0.5625,0 -1.0957,0.13477 -0.5332,0.13476 -1.02539,0.40429 v -0.99609 q 0.5918,-0.22851 1.14844,-0.33984 0.55664,-0.11719 1.08398,-0.11719 1.42383,0 2.12696,0.73828 0.70312,0.73828 0.70312,2.23828 z m 7.67578,-0.21679 v 3.96093 h -1.07812 v -3.92578 q 0,-0.93164 -0.36328,-1.39453 Q 349.42187,887 348.69531,887 q -0.87304,0 -1.37695,0.55664 -0.50391,0.55664 -0.50391,1.51758 v 3.70898 h -1.08398 v -6.5625 h 1.08398 v 1.01953 q 0.38672,-0.59179 0.90821,-0.88476 0.52734,-0.29297 1.21289,-0.29297 1.13086,0 1.71093,0.70312 0.58008,0.69727 0.58008,2.05665 z m 6.87305,-2.34961 v 1.00781 q -0.45703,-0.25195 -0.91992,-0.375 -0.45703,-0.12891 -0.92578,-0.12891 -1.04883,0 -1.62891,0.66797 -0.58008,0.66211 -0.58008,1.86328 0,1.20117 0.58008,1.86914 0.58008,0.66211 1.62891,0.66211 0.46875,0 0.92578,-0.12304 0.46289,-0.12891 0.91992,-0.38086 v 0.99609 q -0.45117,0.21094 -0.9375,0.31641 -0.48047,0.10546 -1.02539,0.10546 -1.48242,0 -2.35547,-0.93164 -0.87305,-0.93164 -0.87305,-2.51367 0,-1.60547 0.87891,-2.52539 0.88476,-0.91992 2.41992,-0.91992 0.49805,0 0.97266,0.10547 0.47461,0.0996 0.91992,0.30469 z m 1.875,-0.25196 h 1.07812 v 6.5625 h -1.07812 z m 0,-2.55468 h 1.07812 v 1.36523 h -1.07812 z m 5.87695,3.31054 q -0.86719,0 -1.37109,0.67969 -0.50391,0.67383 -0.50391,1.85156 0,1.17774 0.49805,1.85742 0.50391,0.67383 1.37695,0.67383 0.86133,0 1.36524,-0.67969 0.5039,-0.67968 0.5039,-1.85156 0,-1.16601 -0.5039,-1.8457 -0.50391,-0.68555 -1.36524,-0.68555 z m 0,-0.91406 q 1.40625,0 2.20899,0.91406 0.80273,0.91406 0.80273,2.53125 0,1.61133 -0.80273,2.53125 -0.80274,0.91406 -2.20899,0.91406 -1.41211,0 -2.21484,-0.91406 -0.79688,-0.91992 -0.79688,-2.53125 0,-1.61719 0.79688,-2.53125 0.80273,-0.91406 2.21484,-0.91406 z m 10.25391,2.75977 v 3.96093 h -1.07813 v -3.92578 q 0,-0.93164 -0.36328,-1.39453 Q 374.30078,887 373.57422,887 q -0.87305,0 -1.37695,0.55664 -0.50391,0.55664 -0.50391,1.51758 v 3.70898 h -1.08399 v -6.5625 h 1.08399 v 1.01953 q 0.38672,-0.59179 0.9082,-0.88476 0.52735,-0.29297 1.21289,-0.29297 1.13086,0 1.71094,0.70312 0.58008,0.69727 0.58008,2.05665 z"
         id="text11"
         style="white-space:pre;fill:#800000;stroke-width:0.759685"
         transform="matrix(1.2114032,0,0,1.2114032,-76.962504,-1045.1011)"
         aria-label="cancion" />
    </g>
  </g>
</svg>
