<?xml version="1.0" encoding="UTF-8" standalone="no"?>
<!-- Created with Inkscape (http://www.inkscape.org/) -->

<svg
   width="300"
   height="300"
   viewBox="0 0 300 300"
   version="1.1"
   id="svg1"
   xml:space="preserve"
   inkscape:version="1.3.2 (091e20ef0f, 2023-11-25, custom)"
   sodipodi:docname="fits2rgb.svg"
   xmlns:inkscape="http://www.inkscape.org/namespaces/inkscape"
   xmlns:sodipodi="http://sodipodi.sourceforge.net/DTD/sodipodi-0.dtd"
   xmlns:xlink="http://www.w3.org/1999/xlink"
   xmlns="http://www.w3.org/2000/svg"
   xmlns:svg="http://www.w3.org/2000/svg"><sodipodi:namedview
     id="namedview1"
     pagecolor="#ffffff"
     bordercolor="#999999"
     borderopacity="1"
     inkscape:showpageshadow="0"
     inkscape:pageopacity="0"
     inkscape:pagecheckerboard="0"
     inkscape:deskcolor="#d1d1d1"
     inkscape:document-units="px"
     inkscape:zoom="1.1125497"
     inkscape:cx="196.84514"
     inkscape:cy="121.3429"
     inkscape:window-width="1920"
     inkscape:window-height="1006"
     inkscape:window-x="0"
     inkscape:window-y="0"
     inkscape:window-maximized="1"
     inkscape:current-layer="layer1"
     showguides="true" /><defs
     id="defs1"><inkscape:path-effect
       effect="perspective-envelope"
       up_left_point="31.341301,12.210425"
       up_right_point="273.1347,53.315965"
       down_left_point="25.549082,247.02989"
       down_right_point="285.46512,186.19403"
       id="path-effect8"
       is_visible="true"
       lpeversion="1"
       deform_type="perspective"
       horizontal_mirror="false"
       vertical_mirror="false"
       overflow_perspective="false" /><inkscape:path-effect
       effect="perspective-envelope"
       up_left_point="31.341301,12.210425"
       up_right_point="273.1347,53.315965"
       down_left_point="25.549082,247.02989"
       down_right_point="285.46512,186.19403"
       id="path-effect5"
       is_visible="true"
       lpeversion="1"
       deform_type="perspective"
       horizontal_mirror="false"
       vertical_mirror="false"
       overflow_perspective="false" /><inkscape:path-effect
       effect="envelope"
       id="path-effect4"
       is_visible="true"
       lpeversion="1"
       yy="true"
       xx="true"
       bendpath1="M 26.933594,33.341797 H 275.45117"
       bendpath2="M 275.45117,33.341797 V 164.0625"
       bendpath3="M 26.933594,164.0625 H 275.45117"
       bendpath4="M 26.933594,33.341797 V 164.0625" /><inkscape:path-effect
       effect="perspective-envelope"
       up_left_point="24.515481,51.432309"
       up_right_point="272.56596,51.432309"
       down_left_point="24.515481,181.23138"
       down_right_point="272.56596,181.23138"
       id="path-effect2"
       is_visible="true"
       lpeversion="1"
       deform_type="perspective"
       horizontal_mirror="false"
       vertical_mirror="false"
       overflow_perspective="false" /><linearGradient
       id="linearGradient3"><stop
         style="stop-color:#ec0000;stop-opacity:1;"
         offset="0"
         id="stop13" /><stop
         style="stop-color:#f2af00;stop-opacity:1;"
         offset="1"
         id="stop14" /></linearGradient><linearGradient
       id="linearGradient3-1"><stop
         style="stop-color:#ec0000;stop-opacity:1;"
         offset="0"
         id="stop3" /><stop
         style="stop-color:#f2af00;stop-opacity:1;"
         offset="1"
         id="stop4" /></linearGradient><clipPath
       clipPathUnits="userSpaceOnUse"
       id="clipPath77"><path
         style="fill:#000000;stroke:#000000;stroke-width:0.516;stroke-dasharray:none;stroke-opacity:1"
         d="m 43.088528,172.04265 c -0.08775,-0.1503 -0.250858,-0.87764 -0.362443,-1.61633 -0.111584,-0.73868 -0.319957,-1.34305 -0.463047,-1.34305 -0.362968,0 -1.317238,-2.07319 -1.97155,-4.28329 -0.714856,-2.41461 -0.875845,-2.35005 -1.553095,0.62279 -0.617077,2.70871 -1.064013,3.20989 -1.619834,1.81641 -0.198244,-0.49703 -0.590424,-1.39663 -0.871505,-1.99913 l -0.51105,-1.09543 -0.308432,1.90361 c -0.342384,2.11311 -0.107012,1.9976 -3.283896,1.61161 -1.068294,-0.1298 -1.159499,-0.0719 -1.393681,0.88472 -0.362769,1.48193 -1.0397,1.27862 -1.435343,-0.43109 l -0.336627,-1.45471 -0.781869,0.88899 c -0.898218,1.02126 -1.328211,1.10983 -1.726932,0.35565 -0.24257,-0.45882 -0.340708,-0.40737 -0.702307,0.36816 -0.231199,0.49583 -0.542409,0.86887 -0.691593,0.829 -0.149185,-0.0398 -0.387581,0.12176 -0.52976,0.35918 -0.177619,0.29661 -0.259978,0.15352 -0.263188,-0.45729 -0.0026,-0.53496 0.160157,-0.88898 0.409235,-0.88898 0.227648,0 0.538912,-0.46139 0.691706,-1.02529 0.35601,-1.31401 0.927577,-1.5109 1.374174,-0.47338 l 0.350804,0.815 0.908421,-0.96159 c 1.059041,-1.12102 1.758045,-0.83672 1.758045,0.71504 0,0.51162 0.137434,0.93022 0.305402,0.93022 0.167961,0 0.305394,-0.28236 0.305394,-0.62746 0,-0.97887 2.146311,-1.7588 2.6178,-0.95126 0.359891,0.6164 1.64343,0.29919 1.787244,-0.4417 0.543512,-2.80002 0.685026,-3.27765 1.004485,-3.39036 0.206207,-0.0728 0.504961,0.4482 0.702627,1.22522 0.660819,2.59774 1.343319,2.86201 1.768181,0.68463 0.622628,-3.19087 1.8243,-3.88964 2.305871,-1.34084 0.100026,0.5294 0.460156,1.60918 0.800286,2.39952 0.340137,0.79034 0.61842,1.5581 0.61842,1.70614 0,0.14803 0.274854,0.51827 0.61079,0.82274 0.335929,0.30446 0.610783,0.94292 0.610783,1.41878 0,1.90841 0.392526,0.26507 0.780858,-3.26915 0.516991,-4.70507 0.918796,-5.52718 1.636418,-3.34813 0.388637,1.18008 0.700187,0.98123 1.234227,-0.78777 0.201454,-0.66729 0.565559,-1.21225 0.809964,-1.21225 0.244185,0 0.524662,-0.22253 0.623265,-0.49454 0.104692,-0.28877 0.395065,-0.42203 0.697927,-0.32028 0.444105,0.14921 0.569787,-0.23027 0.87435,-2.63978 0.463819,-3.66943 1.018411,-4.34472 1.72329,-2.09832 0.800765,2.55198 1.272919,2.708 1.694217,0.55981 0.219062,-1.11697 0.509296,-1.79551 0.767997,-1.79551 0.426877,0 0.563665,0.32887 0.925503,2.2251 0.135718,0.71125 0.291929,0.95109 0.446743,0.68594 0.374753,-0.64186 0.874144,-0.0891 1.104066,1.22196 0.115832,0.66051 0.382802,1.49186 0.593268,1.84745 0.210468,0.3556 0.474075,1.24854 0.585792,1.98433 0.273205,1.7993 1.22027,1.6441 1.505917,-0.2468 0.106134,-0.70256 0.395152,-1.35949 0.642261,-1.45986 0.502935,-0.2043 0.846807,-1.42792 1.377524,-4.90174 0.529561,-3.46621 1.213517,-3.16489 1.826938,0.80487 0.52869,3.42146 0.756505,3.87453 1.031817,2.05206 0.229177,-1.5171 0.970347,-1.76834 1.224025,-0.41491 0.09164,0.48894 0.455575,3.04903 0.808733,5.68908 0.861389,6.43926 1.031644,6.83098 1.492166,3.43311 0.548968,-4.05043 0.619723,-4.27197 1.303857,-4.0826 0.354541,0.0981 0.660115,-0.0301 0.765671,-0.32125 0.09662,-0.26652 0.502954,-0.61629 0.902978,-0.77728 0.966226,-0.38886 1.16354,-1.04455 1.732807,-5.7583 0.289775,-2.39953 0.661384,-4.20987 0.928993,-4.52574 0.245309,-0.28955 0.536872,-1.04504 0.647924,-1.67885 0.658985,-3.761 1.429114,-2.26245 1.838224,3.5769 0.09343,1.33348 0.226785,3.07912 0.296342,3.87921 0.06957,0.80009 0.228207,3.41855 0.352533,5.81881 0.257897,4.97898 0.516533,4.34909 0.862792,-2.10123 0.114528,-2.13357 0.332732,-5.62486 0.484881,-7.75843 0.152149,-2.13356 0.279758,-3.9883 0.283567,-4.12165 0.129165,-4.51929 1.181088,1.30617 1.524694,8.44363 0.299659,6.22462 0.613687,8.08833 0.628948,3.73277 0.0053,-1.40756 0.07384,-3.72296 0.15314,-5.14533 0.07929,-1.42239 0.282018,-5.27734 0.450491,-8.5666 0.358289,-6.99507 0.897634,-10.69417 2.144596,-14.70867 0.497045,-1.60017 0.975898,-3.30944 1.064126,-3.79839 0.350094,-1.94007 1.447918,-0.84981 1.81104,1.79856 0.172188,1.25581 0.292825,1.48629 0.625165,1.19432 0.313318,-0.27524 0.480642,-0.23158 0.699596,0.18257 0.195499,0.36978 0.356083,0.42736 0.500761,0.17956 0.331682,-0.56808 0.659649,-0.43456 1.026606,0.41796 0.57021,1.32473 1.52557,0.75026 1.761215,-1.05904 0.52665,-4.04372 1.34867,-4.74735 1.754337,-1.50168 0.133338,1.06679 0.325533,2.44875 0.427095,3.07104 l 0.184671,1.13144 0.267948,-1.27686 c 0.484941,-2.3109 1.60115,-3.07751 2.132352,-1.46452 0.198649,0.60319 0.503652,0.94288 0.798226,0.88899 0.313869,-0.0575 0.568948,0.28068 0.74666,0.98967 0.238816,0.95275 0.329782,1.02772 0.789207,0.65039 1.338607,-1.09941 9.436047,-8.51796 9.901557,-9.0714 0.74967,-0.89126 1.05094,-0.52201 1.30693,1.60185 0.18816,1.56118 0.26811,1.74082 0.49339,1.10864 0.73402,-2.05973 1.8586,2.11103 2.2518,8.35121 0.26164,4.15259 0.75296,5.03626 0.79983,1.43855 0.0184,-1.4135 0.0687,-3.00639 0.11166,-3.53979 0.043,-0.53339 0.17349,-3.51553 0.28997,-6.62698 0.23319,-6.22941 0.3338,-6.9829 0.96671,-7.23998 0.2368,-0.0962 0.43054,-0.53453 0.43054,-0.97412 0,-1.68666 0.81229,-1.30046 1.23904,0.58909 l 0.2254,0.99803 0.0313,-0.94701 c 0.0172,-0.52086 0.2986,-1.8301 0.62537,-2.90942 0.32676,-1.07931 0.67875,-2.65337 0.78219,-3.49791 0.21955,-1.79245 0.91446,-2.0827 1.16092,-0.4849 0.0891,0.57784 0.40456,2.7599 0.70094,4.84901 0.60878,4.29118 0.88103,4.69656 1.19406,1.77798 0.21674,-2.02081 0.60379,-2.96859 1.08401,-2.65442 0.14045,0.0919 0.32611,-0.30976 0.41259,-0.89254 0.9111,-6.14049 1.18767,-6.93449 2.28678,-6.56523 0.42861,0.14399 0.5751,-0.18909 0.86146,-1.95865 0.54279,-3.35428 1.10894,-3.24247 1.58461,0.31297 0.40471,3.02503 0.47434,2.95151 0.90317,-0.95354 0.45567,-4.14937 0.76108,-5.13713 1.49493,-4.83476 1.03144,0.42496 1.11917,0.31124 1.36469,-1.76907 0.628,-5.321173 0.69447,-5.65717 1.11922,-5.65717 0.57921,0 1.4271,3.402946 1.8479,7.41656 0.41357,3.9446 0.52491,4.1077 0.79843,1.16951 0.15675,-1.68393 0.36452,-2.41695 0.77032,-2.71783 0.41392,-0.30688 0.64836,-1.176936 0.91895,-3.410313 0.48143,-3.973709 1.84054,-4.403788 2.68593,-0.849937 0.22651,0.952237 0.48429,1.383296 0.79809,1.334547 0.81722,-0.126965 1.02906,-0.623327 1.50876,-3.535128 0.82216,-4.99058 2.34977,-4.438345 3.16746,1.145043 0.39168,2.674497 0.79707,3.613822 1.10968,2.571239 0.46351,-1.545872 1.14601,-0.831757 1.5579,1.630073 l 0.2004,1.197826 0.75582,-1.521093 c 1.24952,-2.514699 1.51998,-2.664153 2.1309,-1.177505 l 0.52301,1.272747 0.25691,-1.293073 c 0.1413,-0.711191 0.42502,-2.227364 0.6305,-3.369294 0.42305,-2.351086 0.97338,-2.849864 1.38937,-1.259225 0.33512,1.281452 0.46127,0.994377 1.0194,-2.319624 0.53951,-3.203526 1.25513,-3.502677 1.78911,-0.747905 0.49802,2.569303 0.66552,3.016756 0.82377,2.200501 0.39619,-2.04375 0.75514,-2.775257 1.17907,-2.402838 0.47677,0.418842 0.49116,0.392806 1.0409,-1.880452 0.32056,-1.325585 0.94835,-1.785768 1.39428,-1.022026 0.12586,0.215574 0.33985,0.06895 0.55245,-0.378558 0.52758,-1.110471 0.98744,-1.079203 1.40193,0.09533 0.82173,2.328545 0.96617,2.588007 1.52717,2.743298 0.81186,0.224737 1.513,3.898791 1.86932,9.795494 0.063,1.042473 0.60991,-1.632931 1.04791,-5.126179 0.50106,-3.996153 0.58832,-4.29852 1.17207,-4.061398 0.28453,0.115568 0.48802,-0.606338 0.7458,-2.645766 0.42002,-3.322893 1.59191,-4.191699 1.59191,-1.180196 0,0.419865 0.23124,1.810396 0.51387,3.090072 l 0.51388,2.326688 0.3485,-2.161121 c 0.19167,-1.188619 0.5404,-2.405909 0.77498,-2.705084 0.23455,-0.29918 0.57564,-1.508728 0.75794,-2.687889 0.48566,-3.141362 1.07529,-2.893849 1.74418,0.732162 0.38213,2.071452 0.69998,3.001714 1.13616,3.325101 0.40078,0.297152 0.67362,0.991743 0.8067,2.053738 0.20716,1.652938 0.36705,1.863016 0.94909,1.2469 0.48215,-0.51037 1.10303,0.678365 1.76888,3.386668 0.59999,2.440473 0.80035,2.374749 1.34956,-0.442702 0.46329,-2.376672 0.81342,-2.940172 1.35892,-2.187081 0.48304,0.666875 0.80383,0.424233 0.80383,-0.608027 0,-3.117923 1.57675,-4.060027 2.22017,-1.326552 0.26157,1.11123 0.645,2.456839 0.85204,2.990227 l 0.37648,0.9698 0.3644,-1.293067 c 0.48918,-1.735862 1.27487,-1.883785 1.55677,-0.293103 l 0.21302,1.201909 0.43483,-0.87849 c 0.56212,-1.135619 1.08686,-0.930714 1.44271,0.56337 0.21952,0.92166 0.40364,1.150831 0.81386,1.013006 0.32903,-0.110534 0.69944,0.07767 0.97628,0.49605 0.37395,0.565147 0.47538,0.593403 0.62715,0.174691 0.70568,-1.946578 1.28,-0.161445 1.55536,4.834446 0.0784,1.42237 0.24523,4.25905 0.37074,6.30371 l 0.22819,3.71758 0.38905,-2.4245 c 0.51005,-3.17864 0.91923,-6.62801 1.18877,-10.021296 0.41471,-5.220746 0.55226,-5.963957 1.12538,-6.080658 0.34361,-0.07 0.53443,0.09201 0.53443,0.453656 0,1.23208 0.25586,0.174401 0.43741,-1.808144 0.42918,-4.686865 0.61124,-5.40336 1.23396,-4.856299 0.43062,0.378298 0.55691,-0.10655 0.94197,-3.616398 0.32311,-2.945261 1.66216,-3.582752 1.66216,-0.791315 0,0.215559 0.2017,0.696752 0.44822,1.069319 0.26137,0.394996 0.60659,2.278031 0.82808,4.51686 0.42417,4.287492 0.56188,3.936188 0.98811,-2.520625 0.29322,-4.441898 0.79901,-10.067658 0.94677,-10.530635 0.27949,-0.87573 1.06416,-0.410549 1.09055,0.646532 0.0392,1.565521 0.43572,0.04048 0.71985,-2.768086 0.39966,-3.950386 1.18582,-2.970594 1.68447,2.099343 0.18043,1.834635 0.41071,3.907037 0.51172,4.60534 l 0.18365,1.269638 0.45464,-1.269638 c 0.25006,-0.698303 0.72695,-2.433402 1.05976,-3.855781 0.81818,-3.496697 0.77938,-3.394308 1.28653,-3.394308 0.29798,0 0.51827,0.489213 0.65505,1.454706 0.21394,1.510161 0.74752,2.01576 0.74752,0.708319 0,-3.022814 1.26599,-1.910878 1.81791,1.59668 0.80768,5.133015 1.29361,5.80819 1.72171,2.392214 0.38888,-3.103223 1.59246,-3.398781 1.68555,-0.41392 0.0236,0.755635 0.0772,1.519358 0.1192,1.697154 0.042,0.177799 0.0935,1.059204 0.11452,1.958682 0.0516,2.208015 0.47593,1.802769 0.58021,-0.554041 0.16505,-3.730519 0.88574,-4.907987 1.33895,-2.18762 0.11618,0.697334 0.3078,1.849763 0.42582,2.560948 0.11803,0.71119 0.28415,1.074867 0.36917,0.808169 0.30906,-0.969546 0.74075,-1.321801 1.1641,-0.949887 0.31346,0.275374 0.47178,0.04953 0.73366,-1.046636 0.62267,-2.606241 1.09174,-3.659779 1.77195,-3.979762 0.37309,-0.175511 0.67835,-0.475017 0.67835,-0.665565 0,-0.675531 0.83504,-1.541557 1.53938,-1.596482 0.55888,-0.0436 0.81807,-0.379419 1.1908,-1.543008 0.26204,-0.818019 0.59163,-1.606691 0.73242,-1.752614 0.14078,-0.145917 0.45895,-0.774452 0.70705,-1.396744 0.46144,-1.157451 1.32741,-0.780619 1.32741,0.577624 0,0.539102 0.91927,2.355598 1.42499,2.815855 0.2796,0.254451 1.32354,3.86045 1.32354,4.571762 0,0.971631 0.63679,-0.716316 0.90483,-2.39845 0.49741,-3.121591 1.8437,-4.03613 1.8437,-1.252425 0,0.607008 0.0259,0.610054 0.59026,0.06942 0.564,-0.540294 0.60758,-0.536024 0.98046,0.096 0.37914,0.642621 0.40101,0.634299 0.76929,-0.292843 0.45222,-1.138474 0.94378,-1.224592 1.2952,-0.226909 0.21551,0.611813 0.31505,0.428821 0.62664,-1.152022 0.37518,-1.903516 0.91511,-2.52186 1.6434,-1.882062 0.29024,0.254975 0.4992,0.247139 0.75959,-0.02847 0.52282,-0.553416 0.93874,0.0244 1.23221,1.711866 l 0.24897,1.43152 0.48851,-1.777969 c 0.26868,-0.977883 0.64069,-2.578058 0.8267,-3.555945 0.56939,-2.993579 1.72914,-3.732038 2.27114,-1.446137 0.22913,0.966358 1.28493,0.962007 2.07944,-0.0086 0.68478,-0.836537 1.06094,-0.312875 1.34045,1.866044 0.26483,2.064647 0.58205,2.161564 1.0212,0.311995 0.35984,-1.515594 1.05737,-2.662939 1.61892,-2.662939 0.15967,0 0.68447,-0.351061 1.16619,-0.780131 1.63743,-1.458457 2.77731,-0.339397 3.18663,3.128427 0.24323,2.060722 0.59274,2.600486 0.8852,1.367043 0.27499,-1.15983 1.03562,-1.00914 1.23511,0.244685 0.41629,2.616729 0.76565,6.946142 0.93257,11.556812 0.0998,2.755857 0.23859,5.308596 0.30851,5.672756 0.0699,0.364163 0.14731,2.002499 0.17201,3.640751 0.0247,1.638254 0.13702,3.038895 0.24961,3.112555 0.11258,0.07364 0.21115,-0.10999 0.21904,-0.408084 0.20266,-7.650493 0.9243,-17.849092 1.47943,-20.907831 0.25814,-1.42238 0.46937,-2.622508 0.46941,-2.666959 1.9e-4,-0.308156 0.96711,0.0067 1.0938,0.356162 0.59836,1.650565 2.0759,-0.357879 2.86,-3.887639 0.60264,-2.712888 1.9052,-2.251989 1.81753,0.643113 l -0.0312,1.029578 -0.31838,-1.050622 c -0.42419,-1.399681 -0.72135,-1.324828 -0.95794,0.24128 -0.28317,1.874528 -1.42648,4.203649 -2.06347,4.203649 -0.29256,0 -0.62098,0.152534 -0.72982,0.338964 -0.13489,0.231042 -0.33746,0.216373 -0.63619,-0.04606 -0.60907,-0.535069 -0.64769,-0.446762 -1.15006,2.63006 -0.48671,2.980865 -0.80378,7.268087 -1.28766,17.411344 -0.10519,2.205115 -0.23422,4.241705 -0.28673,4.525754 -0.0525,0.284036 -0.10599,0.62554 -0.11884,0.758888 -0.30841,3.200022 -0.90169,-1.062111 -1.24874,-8.970671 -0.61992,-14.127556 -1.08619,-18.700773 -1.73619,-17.028919 -0.64305,1.653985 -1.11185,1.082064 -1.69582,-2.068855 -0.61042,-3.293654 -1.15883,-4.069414 -2.19502,-3.104988 -0.34634,0.322362 -1.00225,0.830787 -1.45756,1.12983 -0.54823,0.360069 -0.94118,1.008062 -1.1634,1.918469 -0.59107,2.42156 -0.64849,2.544662 -1.13982,2.443753 -0.50756,-0.104238 -0.81153,-0.894097 -1.13885,-2.959287 -0.19121,-1.206433 -0.21487,-1.226752 -0.78849,-0.677251 -0.32526,0.311574 -0.59137,0.453411 -0.59137,0.315182 0,-0.138224 -0.20011,-0.07551 -0.44471,0.139364 -0.57584,0.505883 -1.04463,0.179265 -1.54678,-1.077676 l -0.40422,-1.011811 -0.35215,0.969801 c -0.19369,0.533394 -0.48629,1.769892 -0.65022,2.747775 -0.40505,2.416203 -1.16882,4.849014 -1.52232,4.849014 -0.32119,0 -0.38495,-0.158795 -0.90843,-2.262875 -0.19905,-0.800088 -0.42343,-1.272863 -0.49862,-1.050617 -0.19561,0.578262 -0.92162,0.498647 -1.2582,-0.137983 -0.22162,-0.419198 -0.37411,-0.107799 -0.67279,1.37389 -0.49055,2.43362 -0.99377,3.10677 -1.52986,2.046455 l -0.38076,-0.753088 -0.25,0.715375 c -0.29393,0.841105 -1.12117,0.946663 -1.39962,0.178599 -0.1647,-0.454348 -0.23352,-0.425373 -0.44812,0.188709 -0.34296,0.981378 -0.94248,0.69847 -1.36899,-0.646017 -0.33882,-1.068052 -0.35708,-1.078611 -0.51696,-0.298985 -0.0911,0.444492 -0.32309,1.564684 -0.51542,2.48931 -0.64618,3.106227 -1.75445,2.524593 -2.31974,-1.217422 -0.10103,-0.668786 -0.64901,-1.908774 -1.21775,-2.755535 -0.56873,-0.846761 -1.03458,-1.841265 -1.03522,-2.210016 -0.002,-0.962732 -0.95974,0.756455 -1.65318,2.966409 -0.59169,1.88566 -0.92233,2.250481 -1.54438,1.704016 -0.33391,-0.29335 -0.50055,-0.21383 -0.78838,0.37625 -0.20074,0.411528 -0.73852,1.119265 -1.19506,1.572757 -0.59548,0.591507 -0.98408,1.505106 -1.375,3.232675 -0.63228,2.794208 -0.94494,3.303803 -1.52076,2.478643 -0.37382,-0.535679 -0.41557,-0.518693 -0.59605,0.242452 -0.4452,1.877635 -1.70939,0.395408 -1.70939,-2.004211 0,-2.045178 -0.34443,-0.885273 -0.59245,1.995123 -0.13195,1.532414 -0.31834,2.869231 -0.4142,2.970702 -0.47182,0.499427 -0.77082,-0.451339 -0.95207,-3.027311 -0.10965,-1.558367 -0.28809,-3.415276 -0.39653,-4.126466 l -0.19715,-1.293069 -0.48081,2.236285 c -0.81117,3.772922 -1.68892,2.910642 -2.58812,-2.542482 -0.56065,-3.400058 -0.6642,-3.579295 -1.00721,-1.743321 -0.37921,2.029733 -1.07483,1.854685 -1.49017,-0.374989 l -0.33118,-1.777965 -0.22572,1.131439 c -0.56357,2.825096 -2.17173,7.75842 -2.52908,7.75842 -0.48143,0 -0.5939,-0.552646 -1.01987,-5.010646 -0.47644,-4.985993 -0.65485,-5.316128 -1.08236,-2.002793 -0.20198,1.565418 -0.44221,2.92559 -0.53386,3.022592 -0.34299,0.363076 -0.81836,-0.280288 -0.82732,-1.119695 -0.0253,-2.362001 -0.58129,0.536931 -0.88776,4.628016 -0.79105,10.560244 -0.94084,11.796886 -1.42899,11.796886 -0.23237,0 -0.42543,-0.181836 -0.42901,-0.404086 -0.0285,-1.765765 -0.90768,-8.417392 -1.15454,-8.733833 -0.17098,-0.219158 -0.43684,-0.907616 -0.59079,-1.529908 -0.26352,-1.065097 -0.30254,-0.970331 -0.66556,1.616337 -0.51126,3.642847 -0.5858,3.879213 -1.22341,3.879213 -0.46921,0 -0.59174,0.481733 -0.87402,3.436125 -0.34499,3.610674 -0.75202,4.699198 -1.24387,3.326472 -0.37543,-1.047784 -0.5125,-0.210252 -1.11531,6.814635 -0.25173,2.93366 -0.59419,6.06127 -0.761,6.95025 -0.16682,0.88898 -0.41115,2.27096 -0.54296,3.07104 -0.58045,3.52331 -0.99365,1.34206 -1.59084,-8.39774 -0.37324,-6.087223 -0.37811,-6.112896 -1.04817,-5.524252 -0.3636,0.319422 -0.52196,0.269186 -0.83751,-0.265653 -0.27232,-0.461584 -0.59255,-0.605517 -1.06681,-0.47951 -0.58271,0.154807 -0.70653,0.01727 -0.88353,-0.981356 -0.23546,-1.32862 -0.44143,-1.433067 -0.99055,-0.502317 -0.48727,0.82591 -0.89394,0.576848 -1.23406,-0.755812 l -0.26408,-1.034705 -0.40359,1.386981 c -0.66634,2.28999 -2.64956,-0.469303 -2.73947,-3.811487 -0.0324,-1.203094 -0.52068,-0.177419 -1.01711,2.136358 -0.4354,2.029292 -0.96912,2.551232 -1.39668,1.365849 l -0.27211,-0.754434 -0.17819,0.808174 c -0.098,0.444493 -0.3533,1.606728 -0.56733,2.582759 -0.55699,2.539974 -1.27291,2.579024 -1.9248,0.104999 -1.07891,-4.094688 -1.07404,-4.083713 -1.52731,-3.434053 -0.55752,0.799034 -0.88365,0.331762 -1.33806,-1.917133 -0.20618,-1.020391 -0.58628,-1.980489 -0.84466,-2.133547 -0.48695,-0.288465 -1.32026,-3.154272 -1.32026,-4.540476 0,-1.266034 -0.37267,-0.520906 -0.64222,1.28409 -0.13618,0.911877 -0.44694,1.824061 -0.69055,2.02707 -0.24362,0.20301 -0.60553,1.423766 -0.80426,2.712797 -0.57246,3.713424 -1.54764,2.589071 -2.31313,-2.666955 l -0.23539,-1.616338 -0.24302,1.29307 c -0.13365,0.711185 -0.35504,2.020422 -0.49196,2.90941 -0.19585,1.271499 -0.36088,1.596065 -0.77354,1.521345 -0.36422,-0.06594 -0.53225,0.131688 -0.54969,0.646533 -0.0777,2.294728 -0.96504,7.675303 -1.36007,8.247153 -0.61585,0.89152 -0.75522,0.45391 -1.22088,-3.833144 -0.66655,-6.136472 -0.68268,-6.203945 -1.62031,-6.77356 -0.55529,-0.33734 -0.97631,-0.991151 -1.24721,-1.936764 -0.38692,-1.350567 -0.42624,-1.387207 -0.72956,-0.67979 -0.2373,0.553421 -0.4935,0.701784 -0.98597,0.570941 -0.58581,-0.15563 -0.71657,0.02553 -1.09353,1.515156 -0.32607,1.288554 -0.56684,1.692264 -1.00988,1.693315 -0.43632,7.26e-4 -0.66444,0.364638 -0.91262,1.454707 -0.51818,2.275866 -1.16362,1.918613 -1.67392,-0.926513 -0.4841,-2.699085 -0.71202,-2.556525 -1.23408,0.771917 -0.45791,2.919454 -1.5457,4.392275 -1.5457,2.092811 0,-1.750843 -0.56609,-0.585365 -0.90866,1.870778 -0.64628,4.633656 -1.22247,5.331646 -1.99508,2.416817 l -0.31305,-1.181089 -1.00657,2.164318 c -1.24091,2.66815 -1.45148,2.6856 -1.92103,0.15922 -0.32145,-1.729504 -0.41393,-1.907242 -0.67282,-1.29307 -0.63812,1.51378 -1.53776,0.226399 -1.98737,-2.843901 -0.75022,-5.123357 -1.59023,-5.442931 -2.20699,-0.839657 -0.34034,2.54014 -0.63236,3.014434 -1.94747,3.162966 -0.82322,0.09297 -0.9286,-0.01596 -1.29728,-1.341307 -0.74926,-2.693366 -1.18244,-2.636587 -1.59266,0.208793 -0.56493,3.918386 -0.66274,4.304746 -1.0899,4.304746 -0.24513,0 -0.4746,0.59249 -0.59469,1.53552 -0.45136,3.54426 -0.55098,3.96002 -0.94895,3.96002 -0.52069,0 -0.66231,-0.55652 -0.90492,-3.55594 -0.26102,-3.22724 -1.21997,-7.804726 -1.45602,-6.950241 -0.0982,0.355592 -0.26259,1.519358 -0.36524,2.586133 -0.43351,4.505118 -0.41632,4.458648 -1.57575,4.259488 -0.70699,-0.12144 -1.03618,-0.0518 -1.03618,0.21919 0,0.78815 -0.93902,8.14025 -1.10015,8.61365 -0.33066,0.97152 -0.97418,-0.63151 -1.19721,-2.98228 -0.23328,-2.45892 -0.54094,-2.40579 -0.88997,0.1537 -0.20677,1.51613 -0.6244,1.89712 -1.29801,1.18408 -0.48569,-0.51413 -0.61924,-0.11622 -1.15533,3.44249 -0.60165,3.99389 -0.72866,4.43111 -1.22822,4.22819 -0.40606,-0.16495 -0.51688,0.23721 -0.9303,3.37591 -0.50524,3.83585 -1.07464,2.92089 -1.99968,-3.21331 l -0.71389,-4.73407 -0.35442,1.9396 c -0.19493,1.06678 -0.46459,2.21965 -0.59926,2.56192 -0.13467,0.34227 -0.39833,1.43331 -0.58591,2.42451 -0.39455,2.08489 -0.71729,2.25695 -1.25809,0.67075 -0.30538,-0.89569 -0.39059,-0.97777 -0.40899,-0.39394 -0.0128,0.40563 -0.21432,0.81513 -0.44787,0.90998 -0.50787,0.20631 -0.71144,2.1604 -0.97411,9.35051 -0.31192,8.53844 -0.55582,11.56822 -0.94213,11.70343 -0.48175,0.16861 -0.63495,-0.53548 -0.85986,-3.9519 -0.33919,-5.1524 -1.68555,-12.56318 -1.68555,-9.27777 0,1.62046 -0.87359,0.69942 -1.08849,-1.1476 -0.39884,-3.42801 -0.049,-3.54246 -6.10076,1.99605 -5.913425,5.41192 -5.94263,5.43268 -5.94263,4.22685 0,-0.57744 -0.165051,-0.80817 -0.578121,-0.80817 -0.382956,0 -0.732889,-0.40924 -1.036576,-1.21225 l -0.458454,-1.21225 -0.511295,1.93959 c -0.724986,2.75027 -0.724029,2.74778 -1.056842,2.74778 -0.363659,0 -0.859568,-2.77134 -0.914489,-5.11055 -0.03835,-1.63271 -0.566636,-0.9227 -0.802911,1.07908 -0.224785,1.9044 -0.412759,2.15837 -1.708781,2.30855 -0.62732,0.0727 -0.885483,-0.0732 -1.039726,-0.5876 -0.153771,-0.51287 -0.267489,-0.57759 -0.453908,-0.2583 -0.190826,0.32683 -0.348266,0.33856 -0.676286,0.0504 -0.307016,-0.26971 -0.520839,-0.27685 -0.758465,-0.0253 -0.435018,0.46048 -0.85532,-0.38152 -1.150739,-2.30527 -0.345128,-2.24751 -0.53267,-2.24544 -1.095126,0.0121 -0.286272,1.14903 -0.747179,2.72814 -1.024226,3.50913 -0.608124,1.71429 -1.598718,8.47158 -1.829596,12.48052 -0.163296,2.83542 -0.272567,5.24239 -0.66042,14.54703 -0.170162,4.08204 -0.416196,5.45612 -0.887598,4.95714 -0.0894,-0.0946 -0.294454,-2.55793 -0.455696,-5.47401 -0.458121,-8.28559 -0.6138,-10.42064 -0.772024,-10.58813 -0.08078,-0.0855 -0.164426,0.48702 -0.185861,1.27229 -0.02141,0.78526 -0.07097,1.7187 -0.110076,2.07429 -0.03915,0.3556 -0.165741,2.31945 -0.281413,4.36411 -0.798964,14.12298 -1.457822,14.97428 -2.12663,2.74778 -0.181448,-3.31702 -0.350845,-5.49403 -0.641418,-8.24333 -0.0658,-0.62228 -0.128858,-1.6128 -0.140198,-2.20113 -0.02141,-1.10875 -0.631394,-1.17227 -0.631394,-0.0657 0,0.3324 -0.223721,0.84118 -0.497151,1.13062 -0.342676,0.36273 -0.675415,1.94484 -1.070799,5.09135 -0.561697,4.47008 -0.992209,5.74294 -1.942378,5.74294 -0.198955,0 -0.522336,0.3731 -0.718618,0.82912 -0.268626,0.62408 -0.507328,0.77859 -0.965197,0.62475 -0.334574,-0.1124 -0.609354,-0.0855 -0.610624,0.0599 -0.0026,0.26784 -0.469421,3.59414 -0.774749,5.51733 -0.578972,3.6468 -1.503325,0.32842 -2.768978,-9.94047 l -0.219141,-1.77797 -0.346112,1.45469 c -0.58655,2.46522 -1.16025,1.89704 -1.759514,-1.74255 -0.63527,-3.85826 -0.714198,-3.98507 -0.986958,-1.58572 -0.317286,2.79093 -0.810462,4.65521 -1.28219,4.84683 -0.23074,0.0937 -0.571355,0.80869 -0.75693,1.5888 -0.185576,0.78012 -0.47773,1.4184 -0.649227,1.4184 -0.171505,0 -0.496141,0.25457 -0.721424,0.56572 -0.553881,0.76497 -0.898909,0.18666 -1.132102,-1.89757 -0.09774,-0.87352 -0.390053,-1.90913 -0.649586,-2.30135 -0.259532,-0.39223 -0.47188,-1.06226 -0.47188,-1.48896 0,-0.66964 -0.06587,-0.71795 -0.481366,-0.35294 -0.583744,0.51282 -1.020789,-0.0275 -1.062384,-1.31352 -0.05942,-1.83711 -0.510006,-2.16261 -0.747505,-0.54001 -0.344165,2.35131 -1.951802,2.25755 -2.449871,-0.14287 -0.270367,-1.30304 -0.648569,-0.90777 -0.881575,0.92136 -0.507833,3.98665 -0.520175,4.02971 -1.107681,3.86708 -0.309902,-0.0858 -0.632252,0.0456 -0.722427,0.29427 -0.08956,0.24705 -0.34249,0.44918 -0.562063,0.44918 -0.21958,0 -0.67053,0.61216 -1.002113,1.36034 -0.743184,1.6769 -1.253263,1.88025 -1.721774,0.68636 -0.32251,-0.82185 -0.41333,-0.46984 -0.88981,3.44885 -0.611634,5.03016 -0.700454,5.31602 -1.321426,4.25246 z"
         id="path78" /></clipPath><clipPath
       clipPathUnits="userSpaceOnUse"
       id="clipPath8"><path
         id="path8"
         style="fill:url(#linearGradient8);fill-opacity:1;stroke:#45a5c7;stroke-width:1.5;stroke-linecap:square;stroke-dasharray:none;stroke-opacity:1"
         d="m 244.18948,48.395199 -8.30752,15.335679 -8.90556,16.439322 11.49324,18.341911 11.07408,17.675139 -0.97127,-12.76585 12.64166,0.17823 L 257.70439,62.290173 245.1983,60.6112 Z M 31.304669,13.695519 28.849921,113.21223 67.136182,113.02909 67.423366,69.955466 c 4.781895,0.357344 7.679463,1.163701 8.752546,2.42002 1.123502,1.256383 1.681382,4.349461 1.673183,9.30482 l -0.05179,31.297794 30.108911,-0.14402 -0.29404,-23.517251 c -0.0887,-7.092564 -0.40262,-11.40947 -0.94691,-12.989185 -0.4972,-1.613192 -1.78846,-3.431346 -3.88259,-5.459926 -2.10764,-2.041654 -6.249075,-3.886863 -12.520629,-5.557003 6.902449,0.129603 11.414389,-0.873881 13.656899,-2.986547 2.21763,-2.089222 3.27506,-6.452361 3.19223,-13.076966 -0.0901,-7.20703 -1.72646,-12.645764 -4.93415,-16.380186 C 98.986905,29.070204 94.800076,26.335545 89.564214,24.666945 84.275876,22.973891 73.82771,20.814804 57.591634,18.096531 Z m 86.653401,14.50767 1.51762,84.575541 45.8706,-0.21941 -0.62653,-15.854269 -18.20668,-0.56255 -0.55135,-17.843079 15.47846,1.073973 -0.56258,-14.696953 -15.38535,-1.570614 -0.46127,-14.92781 16.30425,2.18719 -0.58137,-14.997068 z m 50.93564,8.527739 3.23721,75.795942 27.48039,-0.13145 c 4.82435,-0.0231 8.347,-0.27828 10.63151,-0.76033 2.25551,-0.50565 4.10133,-1.3546 5.55036,-2.54465 1.43443,-1.20845 2.37377,-2.85669 2.82419,-4.94447 0.47547,-2.10536 0.50903,-6.257637 0.10587,-12.435381 L 217.1726,67.94984 c -0.41333,-6.333558 -0.88859,-10.579298 -1.42969,-12.767323 -0.54286,-2.215293 -1.68023,-4.317773 -3.41819,-6.316573 -1.74933,-2.01189 -4.24963,-3.667293 -7.53184,-4.971188 -3.30238,-1.318988 -9.74369,-2.784829 -19.62473,-4.439132 z M 67.655309,35.16713 c 3.949818,0.549055 6.620495,1.360743 8.050401,2.44092 1.476154,1.082431 2.211284,3.036805 2.206598,5.868658 l -0.0082,4.928014 c -0.0066,3.967114 -0.780252,6.247336 -2.326044,6.833535 -1.502054,0.557978 -4.177114,0.64482 -8.058295,0.25107 z M 191.01451,52.314983 c 2.23048,0.310053 3.74893,0.734953 4.56929,1.276081 0.81595,0.51059 1.35778,1.223641 1.62875,2.142117 0.27091,0.918277 0.49536,2.957316 0.67315,6.123092 l 1.54752,27.555383 c 0.26986,4.8052 0.0991,7.756598 -0.5133,8.841137 -0.61675,1.059259 -2.40256,1.552848 -5.38803,1.475929 z m 79.57289,11.392157 3.69127,40.51672 3.5862,0.0665 -3.72036,-40.092273 z m -9.45678,-1.154506 3.57949,41.333126 6.58423,0.12523 -3.63846,-40.560503 z m -89.05555,62.959056 c -5.14188,0.17736 -9.71871,1.09022 -13.69419,2.76135 -4.05368,1.70399 -7.30674,4.07823 -9.72237,7.1251 -2.40705,3.08634 -3.82101,6.46523 -4.22216,10.1208 -0.36193,3.63665 -0.41741,9.83895 -0.16289,18.64394 l 0.43817,15.15827 c 0.26661,9.22327 0.71413,15.67925 1.34193,19.31117 0.62851,3.63604 2.34639,6.76754 5.13695,9.37626 2.76597,2.58573 6.31411,4.18443 10.60261,4.8046 4.25338,0.5639 8.91309,0.24128 13.94591,-0.9367 5.18026,-1.21249 9.57968,-3.02989 13.23938,-5.44138 3.59083,-2.36609 6.33381,-5.17768 8.26255,-8.43961 1.93867,-3.22823 2.99552,-6.52964 3.18735,-9.91939 0.22273,-3.41219 0.11772,-9.07923 -0.31148,-16.97286 l -0.72375,-13.31084 c -0.43127,-7.93164 -0.92984,-13.43363 -1.49804,-16.54576 -0.56763,-3.1091 -1.97039,-5.93081 -4.22335,-8.47922 -2.27042,-2.56818 -5.23004,-4.44606 -8.90707,-5.63378 -3.7019,-1.2402 -7.91975,-1.78647 -12.68955,-1.62195 z m 52.22699,-1.80143 c -4.36285,0.15048 -8.11981,1.00459 -11.23596,2.57932 -3.17357,1.57278 -5.45718,3.70523 -6.81849,6.39851 -1.34304,2.71838 -1.85522,6.95584 -1.52624,12.71196 0.2292,4.01026 0.95006,7.25882 2.15817,9.73367 1.23654,2.46403 2.70552,4.32668 4.40159,5.58725 1.6847,1.25212 5.04647,3.15421 10.01319,5.67044 4.85965,2.43281 7.87404,4.20104 9.11607,5.33572 1.20745,1.13391 1.95619,3.83507 2.25204,8.12321 0.13486,1.9547 -0.0627,3.48959 -0.59613,4.60364 -0.5068,1.1129 -1.36767,1.7924 -2.5874,2.03674 -1.22761,0.24593 -2.12213,0.0205 -2.6763,-0.67775 -0.52563,-0.70541 -0.88043,-2.45494 -1.06391,-5.24288 l -0.59268,-9.00514 -18.12538,2.88546 0.2914,5.07281 c 0.33513,5.83389 1.19461,10.23795 2.5763,13.18581 1.37744,2.93878 4.02309,5.0191 7.88829,6.2276 3.83023,1.18093 8.26384,1.16632 13.25143,-0.001 4.43315,-1.03762 8.17526,-2.75373 11.26041,-5.13475 3.02551,-2.36612 4.95988,-4.84933 5.83883,-7.46596 0.89817,-2.60108 1.15415,-6.38612 0.77379,-11.35389 -0.52046,-6.79764 -1.84809,-11.55943 -3.99769,-14.33181 -2.16641,-2.79407 -7.23706,-6.13264 -15.42164,-10.11141 -2.92686,-1.41593 -4.75091,-2.70735 -5.44408,-3.86283 -0.72392,-1.1552 -1.1642,-2.93584 -1.3214,-5.33178 -0.12203,-1.85983 0.0653,-3.2648 0.56015,-4.21532 0.52211,-0.94893 1.33293,-1.45615 2.42928,-1.5281 1.00429,-0.0659 1.74092,0.21854 2.21362,0.85691 0.47194,0.63735 0.79131,2.17559 0.95837,4.61522 l 0.35911,5.24418 15.97785,-1.50903 -0.20346,-2.67969 c -0.40783,-5.37126 -1.18886,-9.12357 -2.34999,-11.28206 -1.14079,-2.19482 -3.30515,-3.96266 -6.52657,-5.31127 -3.24403,-1.37059 -7.17308,-1.98442 -11.83257,-1.8237 z m -195.932793,8.98793 -2.759217,111.86003 35.904042,-8.25248 0.618887,-70.32342 13.213394,67.14409 21.779032,-5.00587 10.700755,-68.23987 0.8,65.59644 26.64808,-6.12502 -2.19073,-90.66778 -39.268955,1.50525 -7.436507,45.88733 -4.766776,-24.72182 c -1.474351,-7.89735 -2.86426,-14.7402 -4.172844,-20.53779 z m 218.962313,-8.3932 1.03156,13.28543 9.29005,-0.69923 4.37234,53.32733 14.82578,-3.40768 -4.53367,-51.02339 8.14268,-0.61287 -1.12097,-12.09651 z m -74.57004,14.76928 c 1.44843,-0.0951 2.41273,0.37057 2.90094,1.39795 0.52295,0.99062 0.86777,3.35212 1.03308,7.09819 l 1.66408,37.70947 c 0.21742,4.92702 0.13139,8.09967 -0.2603,9.5051 -0.39297,1.41005 -1.40247,2.27931 -3.03395,2.60614 -1.60548,0.32162 -2.6677,-0.0521 -3.17839,-1.12405 -0.47258,-1.08059 -0.81035,-4.1045 -1.0117,-9.05309 l -1.58721,-39.00748 c -0.17151,-4.2152 0.0494,-6.75876 0.65825,-7.64134 0.64284,-0.91525 1.58206,-1.40997 2.8152,-1.49089 z"
         inkscape:path-effect="#path-effect8"
         inkscape:original-d="m 228.34961,33.341797 -13.9707,15.853515 -13.97266,15.855469 13.97266,15.855469 13.9707,15.855469 0.0547,-11.632813 19.36132,-0.06445 V 45.037109 l -19.3496,0.0332 z M 26.933594,34.263672 v 58.841797 h 23.236328 v -26.53125 c 3.20136,0 5.170305,0.375854 5.90625,1.126953 0.772742,0.751099 1.160156,2.699837 1.160156,5.849609 V 93.105469 H 78.816406 V 77.585938 c 0,-4.748887 -0.200699,-7.6437 -0.605468,-8.685547 -0.367973,-1.066077 -1.3435,-2.230326 -2.925782,-3.490235 -1.582281,-1.259908 -4.673781,-2.264525 -9.273437,-3.015625 5.07802,-0.314977 8.481467,-1.261051 10.210937,-2.835937 1.729471,-1.574886 2.59375,-4.651185 2.59375,-9.230469 0,-5.015406 -1.231849,-8.661926 -3.697265,-10.939453 C 72.690523,37.086916 69.525508,35.656877 65.625,35.099609 61.761289,34.542342 54.346439,34.263672 43.380859,34.263672 Z m 60.880859,0 V 93.105469 H 128.10742 V 81.330078 H 111.05273 V 68.390625 h 14.51563 V 57.197266 H 111.05273 V 46.039062 h 15.50977 v -11.77539 z m 46.970707,0 v 58.841797 h 29.31054 c 5.55639,0 9.71482,-0.194367 12.47461,-0.582031 2.75979,-0.411894 5.07647,-1.114033 6.95313,-2.107422 1.87666,-1.017619 3.18398,-2.41097 3.91992,-4.179688 0.77274,-1.792947 1.1582,-5.331356 1.1582,-10.613281 V 55.015625 c 0,-5.572673 -0.25632,-9.303496 -0.77148,-11.193359 -0.51516,-1.914093 -1.80459,-3.646609 -3.86524,-5.197266 -2.06064,-1.550657 -5.07667,-2.665338 -9.05078,-3.34375 -3.9373,-0.678412 -11.51902,-1.017578 -22.74218,-1.017578 z M 50.169922,44.332031 c 2.686199,0 4.526005,0.289598 5.519531,0.871094 1.030323,0.581496 1.546875,1.806241 1.546875,3.671875 v 3.234375 c 0,2.592504 -0.534442,4.130654 -1.601562,4.615234 -1.030323,0.460352 -2.852239,0.691407 -5.464844,0.691407 z m 107.853518,0 c 2.53901,0 4.26951,0.181487 5.18945,0.544922 0.91993,0.339206 1.50804,0.883666 1.76563,1.634766 0.25758,0.751099 0.38671,2.459808 0.38671,5.125 v 22.859375 c 0,3.9251 -0.38741,6.335948 -1.16015,7.232422 -0.77274,0.872244 -2.83309,1.308593 -6.18164,1.308593 z m 111.2207,0.34375 v 40.751953 h 6.20703 V 44.675781 Z m -15.90625,0.152344 v 40.445313 h 10.86523 V 44.828125 Z m -119.1582,57.923825 c -5.04122,0 -9.45793,0.54446 -13.24805,1.63477 -3.79011,1.0903 -6.8081,2.65421 -9.05273,4.68945 -2.20784,2.03524 -3.5311,4.28841 -3.97266,6.75977 -0.40477,2.44713 -0.60742,6.62718 -0.60742,12.53906 v 10.06641 c 0,6.05725 0.22054,10.2978 0.66211,12.7207 0.44156,2.4229 1.82044,4.66319 4.13867,6.72266 2.31823,2.05946 5.37394,3.61049 9.16406,4.65234 3.82691,1.01762 8.13238,1.52539 12.91602,1.52539 5.04122,0 9.45598,-0.54446 13.24609,-1.63477 3.79012,-1.0903 6.78826,-2.65226 8.9961,-4.6875 2.24462,-2.03523 3.56984,-4.27747 3.9746,-6.72461 0.44158,-2.47135 0.66211,-6.66233 0.66211,-12.57421 V 128.375 c 0,-6.05725 -0.22053,-10.2978 -0.66211,-12.7207 -0.44156,-2.4229 -1.82044,-4.66515 -4.13867,-6.72461 -2.31822,-2.05947 -5.39184,-3.59762 -9.21875,-4.61524 -3.79011,-1.04184 -8.07573,-1.5625 -12.85937,-1.5625 z m 58.83789,0 c -5.51958,0 -10.23035,0.59403 -14.13086,1.78125 -3.90051,1.163 -6.73373,2.78545 -8.5,4.86914 -1.72947,2.0837 -2.59375,5.38013 -2.59375,9.88672 0,3.12554 0.60796,5.69212 1.82226,7.70313 1.25111,2.01101 2.81475,3.58584 4.69141,4.72461 1.87665,1.13876 5.7033,2.96846 11.48047,5.48828 5.77717,2.49559 9.40116,4.27768 10.87305,5.34375 1.43509,1.06608 2.15234,3.33017 2.15234,6.79492 0,1.57488 -0.38546,2.76294 -1.1582,3.5625 -0.73595,0.79956 -1.87639,1.19922 -3.42188,1.19922 -1.54548,0 -2.63226,-0.31536 -3.25781,-0.94531 -0.58876,-0.62996 -0.88281,-2.04712 -0.88281,-4.25196 v -7.16015 h -21.58008 v 3.85351 c 0,4.40968 0.67952,7.81227 2.04101,10.21094 1.3615,2.39867 4.23246,4.37512 8.61133,5.92578 4.41567,1.55066 9.73244,2.32422 15.95117,2.32422 5.66678,0 10.63387,-0.66545 14.90235,-1.99805 4.26848,-1.35682 7.13944,-3.02884 8.61133,-5.01562 1.50868,-1.98678 2.26367,-5.07596 2.26367,-9.26758 0,-5.76651 -1.3431,-9.94656 -4.0293,-12.53906 -2.6862,-2.59251 -9.20099,-5.91079 -19.54101,-9.95703 -3.60613,-1.40529 -5.79562,-2.60427 -6.56836,-3.59766 -0.80954,-0.99339 -1.21289,-2.473 -1.21289,-4.43555 0,-1.52643 0.34967,-2.66491 1.04882,-3.41601 0.73595,-0.7511 1.80289,-1.125 3.20118,-1.125 1.2879,0 2.2078,0.27671 2.75976,0.83398 0.55196,0.55727 0.82813,1.85539 0.82813,3.89063 v 4.35937 h 21.58007 v -2.32422 c 0,-4.6762 -0.69741,-7.98355 -2.0957,-9.92187 -1.3615,-1.96255 -4.17683,-3.58696 -8.44531,-4.8711 -4.23168,-1.28413 -9.36564,-1.92578 -15.40039,-1.92578 z m -166.083986,1.23633 v 58.83984 h 20.3125 v -38.81445 l 8.554687,38.81445 h 14.40625 l 8.113281,-39.7246 v 39.7246 h 20.3125 V 103.98828 H 68.330078 l -5.298828,27.47461 -3.201172,-14.97266 c -0.993526,-4.79734 -1.93132,-8.96451 -2.814453,-12.50195 z m 197.269526,0 v 11.77539 h 13.74415 v 47.06445 h 23.23828 v -47.06445 h 13.79883 v -11.77539 z m -89.91406,8.72266 c 1.43509,0 2.37288,0.38678 2.81446,1.16211 0.47836,0.7511 0.71875,2.49454 0.71875,5.23242 v 27.04101 c 0,3.46476 -0.22054,5.65743 -0.66211,6.57813 -0.44157,0.9207 -1.45483,1.38086 -3.03711,1.38086 -1.54549,0 -2.53891,-0.39966 -2.98047,-1.19922 -0.40477,-0.79956 -0.60742,-2.90793 -0.60742,-6.32422 v -27.47656 c 0,-3.02863 0.3139,-4.84545 0.93945,-5.45117 0.66235,-0.62996 1.60015,-0.94336 2.81445,-0.94336 z"
         transform="translate(-3.0497235,20.851473)" /></clipPath><linearGradient
       inkscape:collect="always"
       xlink:href="#linearGradient3-1"
       id="linearGradient8"
       gradientUnits="userSpaceOnUse"
       gradientTransform="matrix(0.63201945,0,0,0.62761113,157.14406,-74.886598)"
       x1="-125.95338"
       y1="193.88341"
       x2="103.14753"
       y2="376.2507" /></defs><g
     inkscape:label="Layer 1"
     inkscape:groupmode="layer"
     id="layer1"><text
       xml:space="preserve"
       style="font-size:61.3187px;line-height:1.1;font-family:Kabrio;-inkscape-font-specification:Kabrio;text-decoration-color:#000000;letter-spacing:0px;opacity:1;fill:#00ff00;fill-opacity:1;stroke:#767676;stroke-width:2;stroke-linecap:round;stroke-linejoin:round;stroke-dasharray:none;paint-order:markers stroke fill"
       x="32.991467"
       y="174.23706"
       id="text4"><tspan
         sodipodi:role="line"
         id="tspan4"
         x="32.991467"
         y="174.23706"
         style="font-style:normal;font-variant:normal;font-weight:normal;font-stretch:normal;font-family:Impact;-inkscape-font-specification:Impact;stroke-width:2;stroke-dasharray:none"><tspan
   style="fill:#ffffff;fill-opacity:1;stroke-width:2;stroke-dasharray:none"
   id="tspan7"><tspan
   style="fill:#4e4e4e;fill-opacity:1;stroke-width:2;stroke-dasharray:none"
   id="tspan8">FITS</tspan>2</tspan><tspan
   style="fill:#ff3a15;fill-opacity:1;stroke-width:2;stroke-dasharray:none"
   id="tspan5">R</tspan>G<tspan
   style="fill:#0037ff;fill-opacity:1;stroke-width:2;stroke-dasharray:none"
   id="tspan6">B</tspan></tspan></text></g></svg>
