  0
SECTION
  2
HEADER
  9
$ACADVER
  1
AC1027
  9
$ACADMAINTVER
 70
105
  9
$DWGCODEPAGE
  3
ANSI_1252
  9
$LASTSAVEDBY
  1
ezdxf
  9
$REQUIREDVERSIONS
160
0
  9
$INSBASE
 10
0.0
 20
0.0
 30
0.0
  9
$EXTMIN
 10
1e+20
 20
1e+20
 30
1e+20
  9
$EXTMAX
 10
-1e+20
 20
-1e+20
 30
-1e+20
  9
$LIMMIN
 10
0.0
 20
0.0
  9
$LIMMAX
 10
420.0
 20
297.0
  9
$ORTHOMODE
 70
0
  9
$REGENMODE
 70
1
  9
$FILLMODE
 70
1
  9
$QTEXTMODE
 70
0
  9
$MIRRTEXT
 70
1
  9
$LTSCALE
 40
1.0
  9
$ATTMODE
 70
1
  9
$TEXTSIZE
 40
2.5
  9
$TRACEWID
 40
1.0
  9
$TEXTSTYLE
  7
Standard
  9
$CLAYER
  8
0
  9
$CELTYPE
  6
ByLayer
  9
$CECOLOR
 62
256
  9
$CELTSCALE
 40
1.0
  9
$DISPSILH
 70
0
  9
$DIMSCALE
 40
1.0
  9
$DIMASZ
 40
2.5
  9
$DIMEXO
 40
0.625
  9
$DIMDLI
 40
3.75
  9
$DIMRND
 40
0.0
  9
$DIMDLE
 40
0.0
  9
$DIMEXE
 40
1.25
  9
$DIMTP
 40
0.0
  9
$DIMTM
 40
0.0
  9
$DIMTXT
 40
2.5
  9
$DIMCEN
 40
2.5
  9
$DIMTSZ
 40
0.0
  9
$DIMTOL
 70
0
  9
$DIMLIM
 70
0
  9
$DIMTIH
 70
0
  9
$DIMTOH
 70
0
  9
$DIMSE1
 70
0
  9
$DIMSE2
 70
0
  9
$DIMTAD
 70
1
  9
$DIMZIN
 70
8
  9
$DIMBLK
  1

  9
$DIMASO
 70
1
  9
$DIMSHO
 70
1
  9
$DIMPOST
  1

  9
$DIMAPOST
  1

  9
$DIMALT
 70
0
  9
$DIMALTD
 70
3
  9
$DIMALTF
 40
0.03937007874
  9
$DIMLFAC
 40
1.0
  9
$DIMTOFL
 70
1
  9
$DIMTVP
 40
0.0
  9
$DIMTIX
 70
0
  9
$DIMSOXD
 70
0
  9
$DIMSAH
 70
0
  9
$DIMBLK1
  1

  9
$DIMBLK2
  1

  9
$DIMSTYLE
  2
ISO-25
  9
$DIMCLRD
 70
0
  9
$DIMCLRE
 70
0
  9
$DIMCLRT
 70
0
  9
$DIMTFAC
 40
1.0
  9
$DIMGAP
 40
0.625
  9
$DIMJUST
 70
0
  9
$DIMSD1
 70
0
  9
$DIMSD2
 70
0
  9
$DIMTOLJ
 70
0
  9
$DIMTZIN
 70
8
  9
$DIMALTZ
 70
0
  9
$DIMALTTZ
 70
0
  9
$DIMUPT
 70
0
  9
$DIMDEC
 70
2
  9
$DIMTDEC
 70
2
  9
$DIMALTU
 70
2
  9
$DIMALTTD
 70
3
  9
$DIMTXSTY
  7
Standard
  9
$DIMAUNIT
 70
0
  9
$DIMADEC
 70
0
  9
$DIMALTRND
 40
0.0
  9
$DIMAZIN
 70
0
  9
$DIMDSEP
 70
44
  9
$DIMATFIT
 70
3
  9
$DIMFRAC
 70
0
  9
$DIMLDRBLK
  1

  9
$DIMLUNIT
 70
2
  9
$DIMLWD
 70
-2
  9
$DIMLWE
 70
-2
  9
$DIMTMOVE
 70
0
  9
$DIMFXL
 40
1.0
  9
$DIMFXLON
 70
0
  9
$DIMJOGANG
 40
0.785398163397
  9
$DIMTFILL
 70
0
  9
$DIMTFILLCLR
 70
0
  9
$DIMARCSYM
 70
0
  9
$DIMLTYPE
  6

  9
$DIMLTEX1
  6

  9
$DIMLTEX2
  6

  9
$DIMTXTDIRECTION
 70
0
  9
$LUNITS
 70
2
  9
$LUPREC
 70
4
  9
$SKETCHINC
 40
1.0
  9
$FILLETRAD
 40
10.0
  9
$AUNITS
 70
0
  9
$AUPREC
 70
2
  9
$MENU
  1
.
  9
$ELEVATION
 40
0.0
  9
$PELEVATION
 40
0.0
  9
$THICKNESS
 40
0.0
  9
$LIMCHECK
 70
0
  9
$CHAMFERA
 40
0.0
  9
$CHAMFERB
 40
0.0
  9
$CHAMFERC
 40
0.0
  9
$CHAMFERD
 40
0.0
  9
$SKPOLY
 70
0
  9
$TDCREATE
 40
2460298.439537037
  9
$TDUCREATE
 40
2458532.153996898
  9
$TDUPDATE
 40
2460298.439548611
  9
$TDUUPDATE
 40
2458532.1544311
  9
$TDINDWG
 40
0.0
  9
$TDUSRTIMER
 40
0.0
  9
$USRTIMER
 70
1
  9
$ANGBASE
 50
0.0
  9
$ANGDIR
 70
0
  9
$PDMODE
 70
0
  9
$PDSIZE
 40
0.0
  9
$PLINEWID
 40
0.0
  9
$SPLFRAME
 70
0
  9
$SPLINETYPE
 70
6
  9
$SPLINESEGS
 70
8
  9
$HANDSEED
  5
4C
  9
$SURFTAB1
 70
6
  9
$SURFTAB2
 70
6
  9
$SURFTYPE
 70
6
  9
$SURFU
 70
6
  9
$SURFV
 70
6
  9
$UCSBASE
  2

  9
$UCSNAME
  2

  9
$UCSORG
 10
0.0
 20
0.0
 30
0.0
  9
$UCSXDIR
 10
1.0
 20
0.0
 30
0.0
  9
$UCSYDIR
 10
0.0
 20
1.0
 30
0.0
  9
$UCSORTHOREF
  2

  9
$UCSORTHOVIEW
 70
0
  9
$UCSORGTOP
 10
0.0
 20
0.0
 30
0.0
  9
$UCSORGBOTTOM
 10
0.0
 20
0.0
 30
0.0
  9
$UCSORGLEFT
 10
0.0
 20
0.0
 30
0.0
  9
$UCSORGRIGHT
 10
0.0
 20
0.0
 30
0.0
  9
$UCSORGFRONT
 10
0.0
 20
0.0
 30
0.0
  9
$UCSORGBACK
 10
0.0
 20
0.0
 30
0.0
  9
$PUCSBASE
  2

  9
$PUCSNAME
  2

  9
$PUCSORG
 10
0.0
 20
0.0
 30
0.0
  9
$PUCSXDIR
 10
1.0
 20
0.0
 30
0.0
  9
$PUCSYDIR
 10
0.0
 20
1.0
 30
0.0
  9
$PUCSORTHOREF
  2

  9
$PUCSORTHOVIEW
 70
0
  9
$PUCSORGTOP
 10
0.0
 20
0.0
 30
0.0
  9
$PUCSORGBOTTOM
 10
0.0
 20
0.0
 30
0.0
  9
$PUCSORGLEFT
 10
0.0
 20
0.0
 30
0.0
  9
$PUCSORGRIGHT
 10
0.0
 20
0.0
 30
0.0
  9
$PUCSORGFRONT
 10
0.0
 20
0.0
 30
0.0
  9
$PUCSORGBACK
 10
0.0
 20
0.0
 30
0.0
  9
$USERI1
 70
0
  9
$USERI2
 70
0
  9
$USERI3
 70
0
  9
$USERI4
 70
0
  9
$USERI5
 70
0
  9
$USERR1
 40
0.0
  9
$USERR2
 40
0.0
  9
$USERR3
 40
0.0
  9
$USERR4
 40
0.0
  9
$USERR5
 40
0.0
  9
$WORLDVIEW
 70
1
  9
$SHADEDGE
 70
3
  9
$SHADEDIF
 70
70
  9
$TILEMODE
 70
1
  9
$MAXACTVP
 70
64
  9
$PINSBASE
 10
0.0
 20
0.0
 30
0.0
  9
$PLIMCHECK
 70
0
  9
$PEXTMIN
 10
1e+20
 20
1e+20
 30
1e+20
  9
$PEXTMAX
 10
-1e+20
 20
-1e+20
 30
-1e+20
  9
$PLIMMIN
 10
0.0
 20
0.0
  9
$PLIMMAX
 10
420.0
 20
297.0
  9
$UNITMODE
 70
0
  9
$VISRETAIN
 70
1
  9
$PLINEGEN
 70
0
  9
$PSLTSCALE
 70
1
  9
$TREEDEPTH
 70
3020
  9
$CMLSTYLE
  2
Standard
  9
$CMLJUST
 70
0
  9
$CMLSCALE
 40
20.0
  9
$PROXYGRAPHICS
 70
1
  9
$MEASUREMENT
 70
1
  9
$CELWEIGHT
370
-1
  9
$ENDCAPS
280
0
  9
$JOINSTYLE
280
0
  9
$LWDISPLAY
290
0
  9
$INSUNITS
 70
6
  9
$HYPERLINKBASE
  1

  9
$STYLESHEET
  1

  9
$XEDIT
290
1
  9
$CEPSNTYPE
380
0
  9
$PSTYLEMODE
290
1
  9
$FINGERPRINTGUID
  2
{2A0C506D-FC77-4069-BA17-51542E71E6DE}
  9
$VERSIONGUID
  2
{BEA30AB9-D9F1-4A0E-93E9-A422D1938E26}
  9
$EXTNAMES
290
1
  9
$PSVPSCALE
 40
0.0
  9
$OLESTARTUP
290
0
  9
$SORTENTS
280
127
  9
$INDEXCTL
280
0
  9
$HIDETEXT
280
1
  9
$XCLIPFRAME
280
0
  9
$HALOGAP
280
0
  9
$OBSCOLOR
 70
257
  9
$OBSLTYPE
280
0
  9
$INTERSECTIONDISPLAY
280
0
  9
$INTERSECTIONCOLOR
 70
257
  9
$DIMASSOC
280
2
  9
$PROJECTNAME
  1

  9
$CAMERADISPLAY
290
0
  9
$LENSLENGTH
 40
50.0
  9
$CAMERAHEIGHT
 40
0.0
  9
$STEPSPERSEC
 40
24.0
  9
$STEPSIZE
 40
100.0
  9
$3DDWFPREC
 40
2.0
  9
$PSOLWIDTH
 40
0.005
  9
$PSOLHEIGHT
 40
0.08
  9
$LOFTANG1
 40
1.570796326795
  9
$LOFTANG2
 40
1.570796326795
  9
$LOFTMAG1
 40
0.0
  9
$LOFTMAG2
 40
0.0
  9
$LOFTPARAM
 70
7
  9
$LOFTNORMALS
280
1
  9
$LATITUDE
 40
37.795
  9
$LONGITUDE
 40
-122.394
  9
$NORTHDIRECTION
 40
0.0
  9
$TIMEZONE
 70
-8000
  9
$LIGHTGLYPHDISPLAY
280
1
  9
$TILEMODELIGHTSYNCH
280
1
  9
$CMATERIAL
347
20
  9
$SOLIDHIST
280
0
  9
$SHOWHIST
280
1
  9
$DWFFRAME
280
2
  9
$DGNFRAME
280
2
  9
$REALWORLDSCALE
290
1
  9
$INTERFERECOLOR
 62
256
  9
$CSHADOW
280
0
  9
$SHADOWPLANELOCATION
 40
0.0
  0
ENDSEC
  0
SECTION
  2
CLASSES
  0
CLASS
  1
ACDBDICTIONARYWDFLT
  2
AcDbDictionaryWithDefault
  3
ObjectDBX Classes
 90
0
 91
0
280
0
281
0
  0
CLASS
  1
SUN
  2
AcDbSun
  3
SCENEOE
 90
1153
 91
0
280
0
281
0
  0
CLASS
  1
VISUALSTYLE
  2
AcDbVisualStyle
  3
ObjectDBX Classes
 90
4095
 91
0
280
0
281
0
  0
CLASS
  1
MATERIAL
  2
AcDbMaterial
  3
ObjectDBX Classes
 90
1153
 91
0
280
0
281
0
  0
CLASS
  1
SCALE
  2
AcDbScale
  3
ObjectDBX Classes
 90
1153
 91
0
280
0
281
0
  0
CLASS
  1
TABLESTYLE
  2
AcDbTableStyle
  3
ObjectDBX Classes
 90
4095
 91
0
280
0
281
0
  0
CLASS
  1
MLEADERSTYLE
  2
AcDbMLeaderStyle
  3
ACDB_MLEADERSTYLE_CLASS
 90
4095
 91
0
280
0
281
0
  0
CLASS
  1
DICTIONARYVAR
  2
AcDbDictionaryVar
  3
ObjectDBX Classes
 90
0
 91
0
280
0
281
0
  0
CLASS
  1
CELLSTYLEMAP
  2
AcDbCellStyleMap
  3
ObjectDBX Classes
 90
1152
 91
0
280
0
281
0
  0
CLASS
  1
MENTALRAYRENDERSETTINGS
  2
AcDbMentalRayRenderSettings
  3
SCENEOE
 90
1024
 91
0
280
0
281
0
  0
CLASS
  1
ACDBDETAILVIEWSTYLE
  2
AcDbDetailViewStyle
  3
ObjectDBX Classes
 90
1025
 91
0
280
0
281
0
  0
CLASS
  1
ACDBSECTIONVIEWSTYLE
  2
AcDbSectionViewStyle
  3
ObjectDBX Classes
 90
1025
 91
0
280
0
281
0
  0
CLASS
  1
RASTERVARIABLES
  2
AcDbRasterVariables
  3
ISM
 90
0
 91
0
280
0
281
0
  0
CLASS
  1
ACDBPLACEHOLDER
  2
AcDbPlaceHolder
  3
ObjectDBX Classes
 90
0
 91
0
280
0
281
0
  0
CLASS
  1
LAYOUT
  2
AcDbLayout
  3
ObjectDBX Classes
 90
0
 91
0
280
0
281
0
  0
ENDSEC
  0
SECTION
  2
TABLES
  0
TABLE
  2
VPORT
  5
8
330
0
100
AcDbSymbolTable
 70
1
  0
VPORT
  5
23
330
8
100
AcDbSymbolTableRecord
100
AcDbViewportTableRecord
  2
*Active
 70
0
 10
0.0
 20
0.0
 11
1.0
 21
1.0
 12
0.0
 22
0.0
 13
0.0
 23
0.0
 14
0.5
 24
0.5
 15
0.5
 25
0.5
 16
0.0
 26
0.0
 36
1.0
 17
0.0
 27
0.0
 37
0.0
 40
1000.0
 41
1.34
 42
50.0
 43
0.0
 44
0.0
 50
0.0
 51
0.0
 71
0
 72
1000
 73
1
 74
3
 75
0
 76
0
 77
0
 78
0
281
0
 65
0
146
0.0
  0
ENDTAB
  0
TABLE
  2
LTYPE
  5
2
330
0
100
AcDbSymbolTable
 70
3
  0
LTYPE
  5
24
330
2
100
AcDbSymbolTableRecord
100
AcDbLinetypeTableRecord
  2
ByBlock
 70
0
  3

 72
65
 73
0
 40
0.0
  0
LTYPE
  5
25
330
2
100
AcDbSymbolTableRecord
100
AcDbLinetypeTableRecord
  2
ByLayer
 70
0
  3

 72
65
 73
0
 40
0.0
  0
LTYPE
  5
26
330
2
100
AcDbSymbolTableRecord
100
AcDbLinetypeTableRecord
  2
Continuous
 70
0
  3

 72
65
 73
0
 40
0.0
  0
ENDTAB
  0
TABLE
  2
LAYER
  5
1
330
0
100
AcDbSymbolTable
 70
5
  0
LAYER
  5
27
330
1
100
AcDbSymbolTableRecord
100
AcDbLayerTableRecord
  2
0
 70
0
 62
7
  6
Continuous
370
-3
390
13
347
21
  0
LAYER
  5
28
330
1
100
AcDbSymbolTableRecord
100
AcDbLayerTableRecord
  2
Defpoints
 70
0
 62
7
  6
Continuous
290
0
370
-3
390
13
347
21
  0
LAYER
  5
2F
330
1
100
AcDbSymbolTableRecord
100
AcDbLayerTableRecord
  2
conductor
 70
0
 62
1
  6
Continuous
370
-3
390
13
347
21
  0
LAYER
  5
30
330
1
100
AcDbSymbolTableRecord
100
AcDbLayerTableRecord
  2
dielectric
 70
0
 62
8
  6
Continuous
370
-3
390
13
347
21
  0
LAYER
  5
31
330
1
100
AcDbSymbolTableRecord
100
AcDbLayerTableRecord
  2
substrate
 70
0
 62
5
  6
Continuous
370
-3
390
13
347
21
  0
ENDTAB
  0
TABLE
  2
STYLE
  5
5
330
0
100
AcDbSymbolTable
 70
1
  0
STYLE
  5
29
330
5
100
AcDbSymbolTableRecord
100
AcDbTextStyleTableRecord
  2
Standard
 70
0
 40
0.0
 41
1.0
 50
0.0
 71
0
 42
2.5
  3
txt
  4

  0
ENDTAB
  0
TABLE
  2
VIEW
  5
7
330
0
100
AcDbSymbolTable
 70
0
  0
ENDTAB
  0
TABLE
  2
UCS
  5
6
330
0
100
AcDbSymbolTable
 70
0
  0
ENDTAB
  0
TABLE
  2
APPID
  5
3
330
0
100
AcDbSymbolTable
 70
3
  0
APPID
  5
2A
330
3
100
AcDbSymbolTableRecord
100
AcDbRegAppTableRecord
  2
ACAD
 70
0
  0
APPID
  5
49
330
3
100
AcDbSymbolTableRecord
100
AcDbRegAppTableRecord
  2
HATCHBACKGROUNDCOLOR
 70
0
  0
APPID
  5
4A
330
3
100
AcDbSymbolTableRecord
100
AcDbRegAppTableRecord
  2
EZDXF
 70
0
  0
ENDTAB
  0
TABLE
  2
DIMSTYLE
  5
4
330
0
100
AcDbSymbolTable
 70
1
100
AcDbDimStyleTable
  0
DIMSTYLE
105
2B
330
4
100
AcDbSymbolTableRecord
100
AcDbDimStyleTableRecord
  2
Standard
 70
0
 40
1.0
 41
2.5
 42
0.625
 43
3.75
 44
1.25
 45
0.0
 46
0.0
 47
0.0
 48
0.0
 49
2.5
140
2.5
141
2.5
142
0.0
143
0.03937007874
144
1.0
145
0.0
146
1.0
147
0.625
148
0.0
 69
0
 70
0
 71
0
 72
0
 73
0
 74
0
 75
0
 76
0
 77
1
 78
8
 79
3
170
0
171
3
172
1
173
0
174
0
175
0
176
0
177
0
178
0
179
2
271
2
272
2
273
2
274
3
275
0
276
0
277
2
278
44
279
0
280
0
281
0
282
0
283
0
284
8
285
0
286
0
288
0
289
3
290
0
371
-2
372
-2
  0
ENDTAB
  0
TABLE
  2
BLOCK_RECORD
  5
9
330
0
100
AcDbSymbolTable
 70
2
  0
BLOCK_RECORD
  5
17
330
9
100
AcDbSymbolTableRecord
100
AcDbBlockTableRecord
  2
*Model_Space
340
1A
 70
0
280
1
281
0
  0
BLOCK_RECORD
  5
1B
330
9
100
AcDbSymbolTableRecord
100
AcDbBlockTableRecord
  2
*Paper_Space
340
1E
 70
0
280
1
281
0
  0
ENDTAB
  0
ENDSEC
  0
SECTION
  2
BLOCKS
  0
BLOCK
  5
18
330
17
100
AcDbEntity
  8
0
100
AcDbBlockBegin
  2
*Model_Space
 70
0
 10
0.0
 20
0.0
 30
0.0
  3
*Model_Space
  1

  0
ENDBLK
  5
19
330
17
100
AcDbEntity
  8
0
100
AcDbBlockEnd
  0
BLOCK
  5
1C
330
1B
100
AcDbEntity
  8
0
100
AcDbBlockBegin
  2
*Paper_Space
 70
0
 10
0.0
 20
0.0
 30
0.0
  3
*Paper_Space
  1

  0
ENDBLK
  5
1D
330
1B
100
AcDbEntity
  8
0
100
AcDbBlockEnd
  0
ENDSEC
  0
SECTION
  2
ENTITIES
  0
LWPOLYLINE
  5
32
330
17
100
AcDbEntity
  8
conductor
100
AcDbPolyline
 90
1629
 70
1
 43
0.5
 10
0.0
 20
-0.0
 10
0.0
 20
-11.574074074074074
 10
0.0
 20
-23.14814814814815
 10
0.0
 20
-34.72222222222222
 10
0.0
 20
-46.2962962962963
 10
0.0
 20
-57.870370370370374
 10
0.0
 20
-69.44444444444444
 10
0.0
 20
-81.01851851851852
 10
0.0
 20
-92.5925925925926
 10
0.0
 20
-104.16666666666667
 10
0.0
 20
-115.74074074074075
 10
0.0
 20
-127.31481481481482
 10
0.0
 20
-138.88888888888889
 10
0.0
 20
-150.46296296296296
 10
0.0
 20
-162.03703703703704
 10
0.0
 20
-173.61111111111111
 10
0.0
 20
-185.1851851851852
 10
0.0
 20
-196.75925925925927
 10
0.0
 20
-208.33333333333334
 10
0.0
 20
-219.90740740740742
 10
0.0
 20
-231.4814814814815
 10
0.0
 20
-243.05555555555557
 10
0.0
 20
-254.62962962962965
 10
0.0
 20
-266.2037037037037
 10
0.0
 20
-277.77777777777777
 10
0.0
 20
-289.35185185185185
 10
0.0
 20
-300.9259259259259
 10
0.0
 20
-312.5
 10
0.0
 20
-324.0740740740741
 10
0.0
 20
-335.64814814814815
 10
0.0
 20
-347.22222222222223
 10
0.0
 20
-358.7962962962963
 10
0.0
 20
-370.3703703703704
 10
0.0
 20
-381.94444444444446
 10
0.0
 20
-393.51851851851853
 10
0.0
 20
-405.0925925925926
 10
0.0
 20
-416.6666666666667
 10
0.0
 20
-428.24074074074076
 10
0.0
 20
-439.81481481481484
 10
0.0
 20
-451.3888888888889
 10
0.0
 20
-462.962962962963
 10
0.0
 20
-474.53703703703707
 10
0.0
 20
-486.11111111111114
 10
0.0
 20
-497.6851851851852
 10
0.0
 20
-509.2592592592593
 10
0.0
 20
-520.8333333333334
 10
0.0
 20
-532.4074074074074
 10
0.0
 20
-543.9814814814815
 10
0.0
 20
-555.5555555555555
 10
0.0
 20
-567.1296296296297
 10
0.0
 20
-578.7037037037037
 10
0.0
 20
-590.2777777777778
 10
0.0
 20
-601.8518518518518
 10
0.0
 20
-613.425925925926
 10
0.0
 20
-625.0
 10
0.0
 20
-636.5740740740741
 10
0.0
 20
-648.1481481481482
 10
0.0
 20
-659.7222222222223
 10
0.0
 20
-671.2962962962963
 10
0.0
 20
-682.8703703703704
 10
0.0
 20
-694.4444444444445
 10
0.0
 20
-706.0185185185186
 10
0.0
 20
-717.5925925925926
 10
0.0
 20
-729.1666666666667
 10
0.0
 20
-740.7407407407408
 10
0.0
 20
-752.3148148148148
 10
0.0
 20
-763.8888888888889
 10
0.0
 20
-775.4629629629629
 10
0.0
 20
-787.0370370370371
 10
0.0
 20
-798.6111111111111
 10
0.0
 20
-810.1851851851852
 10
0.0
 20
-821.7592592592592
 10
0.0
 20
-833.3333333333334
 10
0.0
 20
-844.9074074074074
 10
0.0
 20
-856.4814814814815
 10
0.0
 20
-868.0555555555555
 10
0.0
 20
-879.6296296296297
 10
0.0
 20
-891.2037037037037
 10
0.0
 20
-902.7777777777778
 10
0.0
 20
-914.3518518518518
 10
0.0
 20
-925.925925925926
 10
0.0
 20
-937.5
 10
0.0
 20
-949.0740740740741
 10
0.0
 20
-960.6481481481482
 10
0.0
 20
-972.2222222222223
 10
0.0
 20
-983.7962962962963
 10
0.0
 20
-995.3703703703704
 10
0.0
 20
-1006.9444444444445
 10
0.0
 20
-1018.5185185185186
 10
0.0
 20
-1030.0925925925926
 10
0.0
 20
-1041.6666666666667
 10
0.0
 20
-1053.2407407407409
 10
0.0
 20
-1064.8148148148148
 10
0.0
 20
-1076.388888888889
 10
0.0
 20
-1087.962962962963
 10
0.0
 20
-1099.5370370370372
 10
0.0
 20
-1111.111111111111
 10
0.0
 20
-1122.6851851851852
 10
0.0
 20
-1134.2592592592594
 10
0.0
 20
-1145.8333333333333
 10
0.0
 20
-1157.4074074074074
 10
0.0
 20
-1168.9814814814815
 10
0.0
 20
-1180.5555555555557
 10
0.0
 20
-1192.1296296296296
 10
0.0
 20
-1203.7037037037037
 10
0.0
 20
-1215.2777777777778
 10
0.0
 20
-1226.851851851852
 10
0.0
 20
-1238.4259259259259
 10
0.0
 20
-1250.0
 10
0.0
 20
-1261.5740740740741
 10
0.0
 20
-1273.1481481481483
 10
0.0
 20
-1284.7222222222222
 10
0.0
 20
-1296.2962962962963
 10
0.0
 20
-1307.8703703703704
 10
0.0
 20
-1319.4444444444446
 10
0.0
 20
-1331.0185185185185
 10
0.0
 20
-1342.5925925925926
 10
0.0
 20
-1354.1666666666667
 10
0.0
 20
-1365.7407407407409
 10
0.0
 20
-1377.3148148148148
 10
0.0
 20
-1388.888888888889
 10
0.0
 20
-1400.462962962963
 10
0.0
 20
-1412.0370370370372
 10
0.0
 20
-1423.611111111111
 10
0.0
 20
-1435.1851851851852
 10
0.0
 20
-1446.7592592592594
 10
0.0
 20
-1458.3333333333335
 10
0.0
 20
-1469.9074074074074
 10
0.0
 20
-1481.4814814814815
 10
0.0
 20
-1493.0555555555557
 10
0.0
 20
-1504.6296296296296
 10
0.0
 20
-1516.2037037037037
 10
0.0
 20
-1527.7777777777778
 10
0.0
 20
-1539.351851851852
 10
0.0
 20
-1550.9259259259259
 10
0.0
 20
-1562.5
 10
0.0
 20
-1574.0740740740741
 10
0.0
 20
-1585.6481481481483
 10
0.0
 20
-1597.2222222222222
 10
0.0
 20
-1608.7962962962963
 10
0.0
 20
-1620.3703703703704
 10
0.0
 20
-1631.9444444444446
 10
0.0
 20
-1643.5185185185185
 10
0.0
 20
-1655.0925925925926
 10
0.0
 20
-1666.6666666666667
 10
0.0
 20
-1678.2407407407409
 10
0.0
 20
-1689.8148148148148
 10
0.0
 20
-1701.388888888889
 10
0.0
 20
-1712.962962962963
 10
0.0
 20
-1724.5370370370372
 10
0.0
 20
-1736.111111111111
 10
0.0
 20
-1747.6851851851852
 10
0.0
 20
-1759.2592592592594
 10
0.0
 20
-1770.8333333333335
 10
0.0
 20
-1782.4074074074074
 10
0.0
 20
-1793.9814814814815
 10
0.0
 20
-1805.5555555555557
 10
0.0
 20
-1817.1296296296298
 10
0.0
 20
-1828.7037037037037
 10
0.0
 20
-1840.2777777777778
 10
0.0
 20
-1851.851851851852
 10
0.0
 20
-1863.4259259259259
 10
0.0
 20
-1875.0
 10
0.0
 20
-1886.5740740740741
 10
0.0
 20
-1898.1481481481483
 10
0.0
 20
-1909.7222222222222
 10
0.0
 20
-1921.2962962962963
 10
0.0
 20
-1932.8703703703704
 10
0.0
 20
-1944.4444444444446
 10
0.0
 20
-1956.0185185185185
 10
0.0
 20
-1967.5925925925926
 10
0.0
 20
-1979.1666666666667
 10
0.0
 20
-1990.7407407407409
 10
0.0
 20
-2002.3148148148148
 10
0.0
 20
-2013.888888888889
 10
0.0
 20
-2025.462962962963
 10
0.0
 20
-2037.0370370370372
 10
0.0
 20
-2048.6111111111113
 10
0.0
 20
-2060.185185185185
 10
0.0
 20
-2071.759259259259
 10
0.0
 20
-2083.3333333333335
 10
0.0
 20
-2094.9074074074074
 10
0.0
 20
-2106.4814814814818
 10
0.0
 20
-2118.0555555555557
 10
0.0
 20
-2129.6296296296296
 10
0.0
 20
-2141.203703703704
 10
0.0
 20
-2152.777777777778
 10
0.0
 20
-2164.3518518518517
 10
0.0
 20
-2175.925925925926
 10
0.0
 20
-2187.5
 10
0.0
 20
-2199.0740740740744
 10
0.0
 20
-2210.6481481481483
 10
0.0
 20
-2222.222222222222
 10
0.0
 20
-2233.7962962962965
 10
0.0
 20
-2245.3703703703704
 10
0.0
 20
-2256.9444444444443
 10
0.0
 20
-2268.5185185185187
 10
0.0
 20
-2280.0925925925926
 10
0.0
 20
-2291.6666666666665
 10
0.0
 20
-2303.240740740741
 10
0.0
 20
-2314.814814814815
 10
0.0
 20
-2326.388888888889
 10
0.0
 20
-2337.962962962963
 10
0.0
 20
-2349.537037037037
 10
0.0
 20
-2361.1111111111113
 10
0.0
 20
-2372.685185185185
 10
0.0
 20
-2384.259259259259
 10
0.0
 20
-2395.8333333333335
 10
0.0
 20
-2407.4074074074074
 10
0.0
 20
-2418.9814814814818
 10
0.0
 20
-2430.5555555555557
 10
0.0
 20
-2442.1296296296296
 10
0.0
 20
-2453.703703703704
 10
0.0
 20
-2465.277777777778
 10
0.0
 20
-2476.8518518518517
 10
0.0
 20
-2488.425925925926
 10
0.0
 20
-2500.0
 10
0.0
 20
-2511.5740740740744
 10
0.0
 20
-2523.1481481481483
 10
0.0
 20
-2534.722222222222
 10
0.0
 20
-2546.2962962962965
 10
0.0
 20
-2557.8703703703704
 10
0.0
 20
-2569.4444444444443
 10
0.0
 20
-2581.0185185185187
 10
0.0
 20
-2592.5925925925926
 10
0.0
 20
-2604.1666666666665
 10
0.0
 20
-2615.740740740741
 10
0.0
 20
-2627.314814814815
 10
0.0
 20
-2638.888888888889
 10
0.0
 20
-2650.462962962963
 10
0.0
 20
-2662.037037037037
 10
0.0
 20
-2673.6111111111113
 10
0.0
 20
-2685.185185185185
 10
0.0
 20
-2696.759259259259
 10
0.0
 20
-2708.3333333333335
 10
0.0
 20
-2719.9074074074074
 10
0.0
 20
-2731.4814814814818
 10
0.0
 20
-2743.0555555555557
 10
0.0
 20
-2754.6296296296296
 10
0.0
 20
-2766.203703703704
 10
0.0
 20
-2777.777777777778
 10
0.0
 20
-2789.3518518518517
 10
0.0
 20
-2800.925925925926
 10
0.0
 20
-2812.5
 10
0.0
 20
-2824.0740740740744
 10
0.0
 20
-2835.6481481481483
 10
0.0
 20
-2847.222222222222
 10
0.0
 20
-2858.7962962962965
 10
0.0
 20
-2870.3703703703704
 10
0.0
 20
-2881.9444444444443
 10
0.0
 20
-2893.5185185185187
 10
0.0
 20
-2905.0925925925926
 10
0.0
 20
-2916.666666666667
 10
0.0
 20
-2928.240740740741
 10
0.0
 20
-2939.814814814815
 10
0.0
 20
-2951.388888888889
 10
0.0
 20
-2962.962962962963
 10
0.0
 20
-2974.537037037037
 10
0.0
 20
-2986.1111111111113
 10
0.0
 20
-2997.685185185185
 10
0.0
 20
-3009.259259259259
 10
0.0
 20
-3020.8333333333335
 10
0.0
 20
-3032.4074074074074
 10
0.0
 20
-3043.9814814814818
 10
0.0
 20
-3055.5555555555557
 10
0.0
 20
-3067.1296296296296
 10
0.0
 20
-3078.703703703704
 10
0.0
 20
-3090.277777777778
 10
0.0
 20
-3101.8518518518517
 10
0.0
 20
-3113.425925925926
 10
0.0
 20
-3125.0
 10
0.0
 20
-3136.5740740740744
 10
0.0
 20
-3148.1481481481483
 10
0.0
 20
-3159.722222222222
 10
0.0
 20
-3171.2962962962965
 10
0.0
 20
-3182.8703703703704
 10
0.0
 20
-3194.4444444444443
 10
0.0
 20
-3206.0185185185187
 10
0.0
 20
-3217.5925925925926
 10
0.0
 20
-3229.166666666667
 10
0.0
 20
-3240.740740740741
 10
0.0
 20
-3252.314814814815
 10
0.0
 20
-3263.888888888889
 10
0.0
 20
-3275.462962962963
 10
0.0
 20
-3287.037037037037
 10
0.0
 20
-3298.6111111111113
 10
0.0
 20
-3310.185185185185
 10
0.0
 20
-3321.7592592592596
 10
0.0
 20
-3333.3333333333335
 10
0.0
 20
-3344.9074074074074
 10
0.0
 20
-3356.4814814814818
 10
0.0
 20
-3368.0555555555557
 10
0.0
 20
-3379.6296296296296
 10
0.0
 20
-3391.203703703704
 10
0.0
 20
-3402.777777777778
 10
0.0
 20
-3414.3518518518517
 10
0.0
 20
-3425.925925925926
 10
0.0
 20
-3437.5
 10
0.0
 20
-3449.0740740740744
 10
0.0
 20
-3460.6481481481483
 10
0.0
 20
-3472.222222222222
 10
0.0
 20
-3483.7962962962965
 10
0.0
 20
-3495.3703703703704
 10
0.0
 20
-3506.9444444444443
 10
0.0
 20
-3518.5185185185187
 10
0.0
 20
-3530.0925925925926
 10
0.0
 20
-3541.666666666667
 10
0.0
 20
-3553.240740740741
 10
0.0
 20
-3564.814814814815
 10
0.0
 20
-3576.388888888889
 10
0.0
 20
-3587.962962962963
 10
0.0
 20
-3599.537037037037
 10
0.0
 20
-3611.1111111111113
 10
0.0
 20
-3622.685185185185
 10
0.0
 20
-3634.2592592592596
 10
0.0
 20
-3645.8333333333335
 10
0.0
 20
-3657.4074074074074
 10
0.0
 20
-3668.9814814814818
 10
0.0
 20
-3680.5555555555557
 10
0.0
 20
-3692.1296296296296
 10
0.0
 20
-3703.703703703704
 10
0.0
 20
-3715.277777777778
 10
0.0
 20
-3726.8518518518517
 10
0.0
 20
-3738.425925925926
 10
0.0
 20
-3750.0
 10
0.0
 20
-3761.5740740740744
 10
0.0
 20
-3773.1481481481483
 10
0.0
 20
-3784.722222222222
 10
0.0
 20
-3796.2962962962965
 10
0.0
 20
-3807.8703703703704
 10
0.0
 20
-3819.4444444444443
 10
0.0
 20
-3831.0185185185187
 10
0.0
 20
-3842.5925925925926
 10
0.0
 20
-3854.166666666667
 10
0.0
 20
-3865.740740740741
 10
0.0
 20
-3877.314814814815
 10
0.0
 20
-3888.888888888889
 10
0.0
 20
-3900.462962962963
 10
0.0
 20
-3912.037037037037
 10
0.0
 20
-3923.6111111111113
 10
0.0
 20
-3935.185185185185
 10
0.0
 20
-3946.7592592592596
 10
0.0
 20
-3958.3333333333335
 10
0.0
 20
-3969.9074074074074
 10
0.0
 20
-3981.4814814814818
 10
0.0
 20
-3993.0555555555557
 10
0.0
 20
-4004.6296296296296
 10
0.0
 20
-4016.203703703704
 10
0.0
 20
-4027.777777777778
 10
0.0
 20
-4039.351851851852
 10
0.0
 20
-4050.925925925926
 10
0.0
 20
-4062.5
 10
0.0
 20
-4074.0740740740744
 10
0.0
 20
-4085.6481481481483
 10
0.0
 20
-4097.222222222223
 10
0.0
 20
-4108.7962962962965
 10
0.0
 20
-4120.37037037037
 10
0.0
 20
-4131.944444444444
 10
0.0
 20
-4143.518518518518
 10
0.0
 20
-4155.092592592593
 10
0.0
 20
-4166.666666666667
 10
0.0
 20
-4178.240740740741
 10
0.0
 20
-4189.814814814815
 10
0.0
 20
-4201.388888888889
 10
0.0
 20
-4212.9629629629635
 10
0.0
 20
-4224.537037037037
 10
0.0
 20
-4236.111111111111
 10
0.0
 20
-4247.685185185185
 10
0.0
 20
-4259.259259259259
 10
0.0
 20
-4270.833333333333
 10
0.0
 20
-4282.407407407408
 10
0.0
 20
-4293.981481481482
 10
0.0
 20
-4305.555555555556
 10
0.0
 20
-4317.12962962963
 10
0.0
 20
-4328.7037037037035
 10
0.0
 20
-4340.277777777778
 10
0.0
 20
-4351.851851851852
 10
0.0
 20
-4363.425925925926
 10
0.0
 20
-4375.0
 10
0.0
 20
-4386.574074074074
 10
0.0
 20
-4398.148148148149
 10
0.0
 20
-4409.722222222223
 10
0.0
 20
-4421.2962962962965
 10
0.0
 20
-4432.87037037037
 10
0.0
 20
-4444.444444444444
 10
0.0
 20
-4456.018518518518
 10
0.0
 20
-4467.592592592593
 10
0.0
 20
-4479.166666666667
 10
0.0
 20
-4490.740740740741
 10
0.0
 20
-4502.314814814815
 10
0.0
 20
-4513.888888888889
 10
0.0
 20
-4525.4629629629635
 10
0.0
 20
-4537.037037037037
 10
0.0
 20
-4548.611111111111
 10
0.0
 20
-4560.185185185185
 10
0.0
 20
-4571.759259259259
 10
0.0
 20
-4583.333333333333
 10
0.0
 20
-4594.907407407408
 10
0.0
 20
-4606.481481481482
 10
0.0
 20
-4618.055555555556
 10
0.0
 20
-4629.62962962963
 10
0.0
 20
-4641.2037037037035
 10
0.0
 20
-4652.777777777778
 10
0.0
 20
-4664.351851851852
 10
0.0
 20
-4675.925925925926
 10
0.0
 20
-4687.5
 10
0.0
 20
-4699.074074074074
 10
0.0
 20
-4710.648148148149
 10
0.0
 20
-4722.222222222223
 10
0.0
 20
-4733.7962962962965
 10
0.0
 20
-4745.37037037037
 10
0.0
 20
-4756.944444444444
 10
0.0
 20
-4768.518518518518
 10
0.0
 20
-4780.092592592593
 10
0.0
 20
-4791.666666666667
 10
0.0
 20
-4803.240740740741
 10
0.0
 20
-4814.814814814815
 10
0.0
 20
-4826.388888888889
 10
0.0
 20
-4837.9629629629635
 10
0.0
 20
-4849.537037037037
 10
0.0
 20
-4861.111111111111
 10
0.0
 20
-4872.685185185185
 10
0.0
 20
-4884.259259259259
 10
0.0
 20
-4895.833333333333
 10
0.0
 20
-4907.407407407408
 10
0.0
 20
-4918.981481481482
 10
0.0
 20
-4930.555555555556
 10
0.0
 20
-4942.12962962963
 10
0.0
 20
-4953.7037037037035
 10
0.0
 20
-4965.277777777778
 10
0.0
 20
-4976.851851851852
 10
0.0
 20
-4988.425925925926
 10
11.574074074074074
 20
-4988.425925925926
 10
23.14814814814815
 20
-4988.425925925926
 10
34.72222222222222
 20
-4988.425925925926
 10
46.2962962962963
 20
-4988.425925925926
 10
57.870370370370374
 20
-4988.425925925926
 10
69.44444444444444
 20
-4988.425925925926
 10
81.01851851851852
 20
-4988.425925925926
 10
92.5925925925926
 20
-4988.425925925926
 10
104.16666666666667
 20
-4988.425925925926
 10
115.74074074074075
 20
-4988.425925925926
 10
127.31481481481482
 20
-4988.425925925926
 10
138.88888888888889
 20
-4988.425925925926
 10
150.46296296296296
 20
-4988.425925925926
 10
162.03703703703704
 20
-4988.425925925926
 10
173.61111111111111
 20
-4988.425925925926
 10
185.1851851851852
 20
-4988.425925925926
 10
196.75925925925927
 20
-4988.425925925926
 10
208.33333333333334
 20
-4988.425925925926
 10
219.90740740740742
 20
-4988.425925925926
 10
231.4814814814815
 20
-4988.425925925926
 10
243.05555555555557
 20
-4988.425925925926
 10
254.62962962962965
 20
-4988.425925925926
 10
266.2037037037037
 20
-4988.425925925926
 10
277.77777777777777
 20
-4988.425925925926
 10
289.35185185185185
 20
-4988.425925925926
 10
300.9259259259259
 20
-4988.425925925926
 10
312.5
 20
-4988.425925925926
 10
324.0740740740741
 20
-4988.425925925926
 10
335.64814814814815
 20
-4988.425925925926
 10
347.22222222222223
 20
-4988.425925925926
 10
358.7962962962963
 20
-4988.425925925926
 10
370.3703703703704
 20
-4988.425925925926
 10
381.94444444444446
 20
-4988.425925925926
 10
393.51851851851853
 20
-4988.425925925926
 10
405.0925925925926
 20
-4988.425925925926
 10
416.6666666666667
 20
-4988.425925925926
 10
428.24074074074076
 20
-4988.425925925926
 10
439.81481481481484
 20
-4988.425925925926
 10
451.3888888888889
 20
-4988.425925925926
 10
462.962962962963
 20
-4988.425925925926
 10
474.53703703703707
 20
-4988.425925925926
 10
486.11111111111114
 20
-4988.425925925926
 10
497.6851851851852
 20
-4988.425925925926
 10
509.2592592592593
 20
-4988.425925925926
 10
520.8333333333334
 20
-4988.425925925926
 10
532.4074074074074
 20
-4988.425925925926
 10
543.9814814814815
 20
-4988.425925925926
 10
555.5555555555555
 20
-4988.425925925926
 10
567.1296296296297
 20
-4988.425925925926
 10
578.7037037037037
 20
-4988.425925925926
 10
590.2777777777778
 20
-4988.425925925926
 10
601.8518518518518
 20
-4988.425925925926
 10
613.425925925926
 20
-4988.425925925926
 10
625.0
 20
-4988.425925925926
 10
636.5740740740741
 20
-4988.425925925926
 10
648.1481481481482
 20
-4988.425925925926
 10
659.7222222222223
 20
-4988.425925925926
 10
671.2962962962963
 20
-4988.425925925926
 10
682.8703703703704
 20
-4988.425925925926
 10
694.4444444444445
 20
-4988.425925925926
 10
706.0185185185186
 20
-4988.425925925926
 10
717.5925925925926
 20
-4988.425925925926
 10
729.1666666666667
 20
-4988.425925925926
 10
740.7407407407408
 20
-4988.425925925926
 10
752.3148148148148
 20
-4988.425925925926
 10
763.8888888888889
 20
-4988.425925925926
 10
775.4629629629629
 20
-4988.425925925926
 10
787.0370370370371
 20
-4988.425925925926
 10
798.6111111111111
 20
-4988.425925925926
 10
810.1851851851852
 20
-4988.425925925926
 10
821.7592592592592
 20
-4988.425925925926
 10
833.3333333333334
 20
-4988.425925925926
 10
844.9074074074074
 20
-4988.425925925926
 10
856.4814814814815
 20
-4988.425925925926
 10
868.0555555555555
 20
-4988.425925925926
 10
879.6296296296297
 20
-4988.425925925926
 10
891.2037037037037
 20
-4988.425925925926
 10
902.7777777777778
 20
-4988.425925925926
 10
914.3518518518518
 20
-4988.425925925926
 10
925.925925925926
 20
-4988.425925925926
 10
937.5
 20
-4988.425925925926
 10
949.0740740740741
 20
-4988.425925925926
 10
960.6481481481482
 20
-4988.425925925926
 10
972.2222222222223
 20
-4988.425925925926
 10
983.7962962962963
 20
-4988.425925925926
 10
995.3703703703704
 20
-4988.425925925926
 10
1006.9444444444445
 20
-4988.425925925926
 10
1018.5185185185186
 20
-4988.425925925926
 10
1030.0925925925926
 20
-4988.425925925926
 10
1041.6666666666667
 20
-4988.425925925926
 10
1053.2407407407409
 20
-4988.425925925926
 10
1064.8148148148148
 20
-4988.425925925926
 10
1076.388888888889
 20
-4988.425925925926
 10
1087.962962962963
 20
-4988.425925925926
 10
1099.5370370370372
 20
-4988.425925925926
 10
1111.111111111111
 20
-4988.425925925926
 10
1122.6851851851852
 20
-4988.425925925926
 10
1134.2592592592594
 20
-4988.425925925926
 10
1145.8333333333333
 20
-4988.425925925926
 10
1157.4074074074074
 20
-4988.425925925926
 10
1168.9814814814815
 20
-4988.425925925926
 10
1180.5555555555557
 20
-4988.425925925926
 10
1192.1296296296296
 20
-4988.425925925926
 10
1203.7037037037037
 20
-4988.425925925926
 10
1215.2777777777778
 20
-4988.425925925926
 10
1226.851851851852
 20
-4988.425925925926
 10
1238.4259259259259
 20
-4988.425925925926
 10
1250.0
 20
-4988.425925925926
 10
1261.5740740740741
 20
-4988.425925925926
 10
1273.1481481481483
 20
-4988.425925925926
 10
1284.7222222222222
 20
-4988.425925925926
 10
1296.2962962962963
 20
-4988.425925925926
 10
1307.8703703703704
 20
-4988.425925925926
 10
1319.4444444444446
 20
-4988.425925925926
 10
1331.0185185185185
 20
-4988.425925925926
 10
1342.5925925925926
 20
-4988.425925925926
 10
1354.1666666666667
 20
-4988.425925925926
 10
1365.7407407407409
 20
-4988.425925925926
 10
1377.3148148148148
 20
-4988.425925925926
 10
1388.888888888889
 20
-4988.425925925926
 10
1400.462962962963
 20
-4988.425925925926
 10
1412.0370370370372
 20
-4988.425925925926
 10
1423.611111111111
 20
-4988.425925925926
 10
1435.1851851851852
 20
-4988.425925925926
 10
1446.7592592592594
 20
-4988.425925925926
 10
1458.3333333333335
 20
-4988.425925925926
 10
1469.9074074074074
 20
-4988.425925925926
 10
1481.4814814814815
 20
-4988.425925925926
 10
1493.0555555555557
 20
-4988.425925925926
 10
1504.6296296296296
 20
-4988.425925925926
 10
1516.2037037037037
 20
-4988.425925925926
 10
1527.7777777777778
 20
-4988.425925925926
 10
1539.351851851852
 20
-4988.425925925926
 10
1550.9259259259259
 20
-4988.425925925926
 10
1562.5
 20
-4988.425925925926
 10
1574.0740740740741
 20
-4988.425925925926
 10
1585.6481481481483
 20
-4988.425925925926
 10
1597.2222222222222
 20
-4988.425925925926
 10
1608.7962962962963
 20
-4988.425925925926
 10
1620.3703703703704
 20
-4988.425925925926
 10
1631.9444444444446
 20
-4988.425925925926
 10
1643.5185185185185
 20
-4988.425925925926
 10
1655.0925925925926
 20
-4988.425925925926
 10
1666.6666666666667
 20
-4988.425925925926
 10
1678.2407407407409
 20
-4988.425925925926
 10
1689.8148148148148
 20
-4988.425925925926
 10
1701.388888888889
 20
-4988.425925925926
 10
1712.962962962963
 20
-4988.425925925926
 10
1724.5370370370372
 20
-4988.425925925926
 10
1736.111111111111
 20
-4988.425925925926
 10
1747.6851851851852
 20
-4988.425925925926
 10
1759.2592592592594
 20
-4988.425925925926
 10
1770.8333333333335
 20
-4988.425925925926
 10
1782.4074074074074
 20
-4988.425925925926
 10
1793.9814814814815
 20
-4988.425925925926
 10
1805.5555555555557
 20
-4988.425925925926
 10
1817.1296296296298
 20
-4988.425925925926
 10
1828.7037037037037
 20
-4988.425925925926
 10
1840.2777777777778
 20
-4988.425925925926
 10
1851.851851851852
 20
-4988.425925925926
 10
1863.4259259259259
 20
-4988.425925925926
 10
1875.0
 20
-4988.425925925926
 10
1886.5740740740741
 20
-4988.425925925926
 10
1898.1481481481483
 20
-4988.425925925926
 10
1909.7222222222222
 20
-4988.425925925926
 10
1921.2962962962963
 20
-4988.425925925926
 10
1932.8703703703704
 20
-4988.425925925926
 10
1944.4444444444446
 20
-4988.425925925926
 10
1956.0185185185185
 20
-4988.425925925926
 10
1967.5925925925926
 20
-4988.425925925926
 10
1979.1666666666667
 20
-4988.425925925926
 10
1990.7407407407409
 20
-4988.425925925926
 10
2002.3148148148148
 20
-4988.425925925926
 10
2013.888888888889
 20
-4988.425925925926
 10
2025.462962962963
 20
-4988.425925925926
 10
2037.0370370370372
 20
-4988.425925925926
 10
2048.6111111111113
 20
-4988.425925925926
 10
2060.185185185185
 20
-4988.425925925926
 10
2071.759259259259
 20
-4988.425925925926
 10
2083.3333333333335
 20
-4988.425925925926
 10
2094.9074074074074
 20
-4988.425925925926
 10
2106.4814814814818
 20
-4988.425925925926
 10
2118.0555555555557
 20
-4988.425925925926
 10
2129.6296296296296
 20
-4988.425925925926
 10
2141.203703703704
 20
-4988.425925925926
 10
2152.777777777778
 20
-4988.425925925926
 10
2164.3518518518517
 20
-4988.425925925926
 10
2175.925925925926
 20
-4988.425925925926
 10
2187.5
 20
-4988.425925925926
 10
2199.0740740740744
 20
-4988.425925925926
 10
2210.6481481481483
 20
-4988.425925925926
 10
2222.222222222222
 20
-4988.425925925926
 10
2233.7962962962965
 20
-4988.425925925926
 10
2245.3703703703704
 20
-4988.425925925926
 10
2256.9444444444443
 20
-4988.425925925926
 10
2268.5185185185187
 20
-4988.425925925926
 10
2280.0925925925926
 20
-4988.425925925926
 10
2291.6666666666665
 20
-4988.425925925926
 10
2303.240740740741
 20
-4988.425925925926
 10
2314.814814814815
 20
-4988.425925925926
 10
2326.388888888889
 20
-4988.425925925926
 10
2337.962962962963
 20
-4988.425925925926
 10
2349.537037037037
 20
-4988.425925925926
 10
2361.1111111111113
 20
-4988.425925925926
 10
2372.685185185185
 20
-4988.425925925926
 10
2384.259259259259
 20
-4988.425925925926
 10
2395.8333333333335
 20
-4988.425925925926
 10
2407.4074074074074
 20
-4988.425925925926
 10
2418.9814814814818
 20
-4988.425925925926
 10
2430.5555555555557
 20
-4988.425925925926
 10
2442.1296296296296
 20
-4988.425925925926
 10
2453.703703703704
 20
-4988.425925925926
 10
2465.277777777778
 20
-4988.425925925926
 10
2476.8518518518517
 20
-4988.425925925926
 10
2488.425925925926
 20
-4988.425925925926
 10
2500.0
 20
-4988.425925925926
 10
2511.5740740740744
 20
-4988.425925925926
 10
2523.1481481481483
 20
-4988.425925925926
 10
2534.722222222222
 20
-4988.425925925926
 10
2546.2962962962965
 20
-4988.425925925926
 10
2557.8703703703704
 20
-4988.425925925926
 10
2569.4444444444443
 20
-4988.425925925926
 10
2581.0185185185187
 20
-4988.425925925926
 10
2592.5925925925926
 20
-4988.425925925926
 10
2604.1666666666665
 20
-4988.425925925926
 10
2615.740740740741
 20
-4988.425925925926
 10
2627.314814814815
 20
-4988.425925925926
 10
2638.888888888889
 20
-4988.425925925926
 10
2650.462962962963
 20
-4988.425925925926
 10
2662.037037037037
 20
-4988.425925925926
 10
2673.6111111111113
 20
-4988.425925925926
 10
2685.185185185185
 20
-4988.425925925926
 10
2696.759259259259
 20
-4988.425925925926
 10
2708.3333333333335
 20
-4988.425925925926
 10
2719.9074074074074
 20
-4988.425925925926
 10
2731.4814814814818
 20
-4988.425925925926
 10
2743.0555555555557
 20
-4988.425925925926
 10
2754.6296296296296
 20
-4988.425925925926
 10
2766.203703703704
 20
-4988.425925925926
 10
2777.777777777778
 20
-4988.425925925926
 10
2789.3518518518517
 20
-4988.425925925926
 10
2800.925925925926
 20
-4988.425925925926
 10
2812.5
 20
-4988.425925925926
 10
2824.0740740740744
 20
-4988.425925925926
 10
2835.6481481481483
 20
-4988.425925925926
 10
2847.222222222222
 20
-4988.425925925926
 10
2858.7962962962965
 20
-4988.425925925926
 10
2870.3703703703704
 20
-4988.425925925926
 10
2881.9444444444443
 20
-4988.425925925926
 10
2893.5185185185187
 20
-4988.425925925926
 10
2905.0925925925926
 20
-4988.425925925926
 10
2916.666666666667
 20
-4988.425925925926
 10
2928.240740740741
 20
-4988.425925925926
 10
2939.814814814815
 20
-4988.425925925926
 10
2951.388888888889
 20
-4988.425925925926
 10
2962.962962962963
 20
-4988.425925925926
 10
2974.537037037037
 20
-4988.425925925926
 10
2986.1111111111113
 20
-4988.425925925926
 10
2997.685185185185
 20
-4988.425925925926
 10
3009.259259259259
 20
-4988.425925925926
 10
3020.8333333333335
 20
-4988.425925925926
 10
3032.4074074074074
 20
-4988.425925925926
 10
3043.9814814814818
 20
-4988.425925925926
 10
3055.5555555555557
 20
-4988.425925925926
 10
3067.1296296296296
 20
-4988.425925925926
 10
3078.703703703704
 20
-4988.425925925926
 10
3090.277777777778
 20
-4988.425925925926
 10
3101.8518518518517
 20
-4988.425925925926
 10
3113.425925925926
 20
-4988.425925925926
 10
3125.0
 20
-4988.425925925926
 10
3136.5740740740744
 20
-4988.425925925926
 10
3148.1481481481483
 20
-4988.425925925926
 10
3159.722222222222
 20
-4988.425925925926
 10
3171.2962962962965
 20
-4988.425925925926
 10
3182.8703703703704
 20
-4988.425925925926
 10
3194.4444444444443
 20
-4988.425925925926
 10
3206.0185185185187
 20
-4988.425925925926
 10
3217.5925925925926
 20
-4988.425925925926
 10
3229.166666666667
 20
-4988.425925925926
 10
3240.740740740741
 20
-4988.425925925926
 10
3252.314814814815
 20
-4988.425925925926
 10
3263.888888888889
 20
-4988.425925925926
 10
3275.462962962963
 20
-4988.425925925926
 10
3287.037037037037
 20
-4988.425925925926
 10
3298.6111111111113
 20
-4988.425925925926
 10
3310.185185185185
 20
-4988.425925925926
 10
3321.7592592592596
 20
-4988.425925925926
 10
3333.3333333333335
 20
-4988.425925925926
 10
3344.9074074074074
 20
-4988.425925925926
 10
3356.4814814814818
 20
-4988.425925925926
 10
3368.0555555555557
 20
-4988.425925925926
 10
3379.6296296296296
 20
-4988.425925925926
 10
3391.203703703704
 20
-4988.425925925926
 10
3402.777777777778
 20
-4988.425925925926
 10
3414.3518518518517
 20
-4988.425925925926
 10
3425.925925925926
 20
-4988.425925925926
 10
3437.5
 20
-4988.425925925926
 10
3449.0740740740744
 20
-4988.425925925926
 10
3460.6481481481483
 20
-4988.425925925926
 10
3472.222222222222
 20
-4988.425925925926
 10
3483.7962962962965
 20
-4988.425925925926
 10
3495.3703703703704
 20
-4988.425925925926
 10
3506.9444444444443
 20
-4988.425925925926
 10
3518.5185185185187
 20
-4988.425925925926
 10
3530.0925925925926
 20
-4988.425925925926
 10
3541.666666666667
 20
-4988.425925925926
 10
3553.240740740741
 20
-4988.425925925926
 10
3564.814814814815
 20
-4988.425925925926
 10
3576.388888888889
 20
-4988.425925925926
 10
3587.962962962963
 20
-4988.425925925926
 10
3599.537037037037
 20
-4988.425925925926
 10
3611.1111111111113
 20
-4988.425925925926
 10
3622.685185185185
 20
-4988.425925925926
 10
3634.2592592592596
 20
-4988.425925925926
 10
3645.8333333333335
 20
-4988.425925925926
 10
3657.4074074074074
 20
-4988.425925925926
 10
3668.9814814814818
 20
-4988.425925925926
 10
3680.5555555555557
 20
-4988.425925925926
 10
3692.1296296296296
 20
-4988.425925925926
 10
3703.703703703704
 20
-4988.425925925926
 10
3715.277777777778
 20
-4988.425925925926
 10
3726.8518518518517
 20
-4988.425925925926
 10
3738.425925925926
 20
-4988.425925925926
 10
3750.0
 20
-4988.425925925926
 10
3761.5740740740744
 20
-4988.425925925926
 10
3773.1481481481483
 20
-4988.425925925926
 10
3784.722222222222
 20
-4988.425925925926
 10
3796.2962962962965
 20
-4988.425925925926
 10
3807.8703703703704
 20
-4988.425925925926
 10
3819.4444444444443
 20
-4988.425925925926
 10
3831.0185185185187
 20
-4988.425925925926
 10
3842.5925925925926
 20
-4988.425925925926
 10
3854.166666666667
 20
-4988.425925925926
 10
3865.740740740741
 20
-4988.425925925926
 10
3877.314814814815
 20
-4988.425925925926
 10
3888.888888888889
 20
-4988.425925925926
 10
3900.462962962963
 20
-4988.425925925926
 10
3912.037037037037
 20
-4988.425925925926
 10
3923.6111111111113
 20
-4988.425925925926
 10
3935.185185185185
 20
-4988.425925925926
 10
3946.7592592592596
 20
-4988.425925925926
 10
3958.3333333333335
 20
-4988.425925925926
 10
3969.9074074074074
 20
-4988.425925925926
 10
3981.4814814814818
 20
-4988.425925925926
 10
3993.0555555555557
 20
-4988.425925925926
 10
4004.6296296296296
 20
-4988.425925925926
 10
4016.203703703704
 20
-4988.425925925926
 10
4027.777777777778
 20
-4988.425925925926
 10
4039.351851851852
 20
-4988.425925925926
 10
4050.925925925926
 20
-4988.425925925926
 10
4062.5
 20
-4988.425925925926
 10
4074.0740740740744
 20
-4988.425925925926
 10
4085.6481481481483
 20
-4988.425925925926
 10
4097.222222222223
 20
-4988.425925925926
 10
4108.7962962962965
 20
-4988.425925925926
 10
4120.37037037037
 20
-4988.425925925926
 10
4131.944444444444
 20
-4988.425925925926
 10
4143.518518518518
 20
-4988.425925925926
 10
4155.092592592593
 20
-4988.425925925926
 10
4166.666666666667
 20
-4988.425925925926
 10
4178.240740740741
 20
-4988.425925925926
 10
4189.814814814815
 20
-4988.425925925926
 10
4201.388888888889
 20
-4988.425925925926
 10
4212.9629629629635
 20
-4988.425925925926
 10
4224.537037037037
 20
-4988.425925925926
 10
4236.111111111111
 20
-4988.425925925926
 10
4247.685185185185
 20
-4988.425925925926
 10
4259.259259259259
 20
-4988.425925925926
 10
4270.833333333333
 20
-4988.425925925926
 10
4282.407407407408
 20
-4988.425925925926
 10
4293.981481481482
 20
-4988.425925925926
 10
4305.555555555556
 20
-4976.851851851852
 10
4317.12962962963
 20
-4976.851851851852
 10
4328.7037037037035
 20
-4965.277777777778
 10
4340.277777777778
 20
-4965.277777777778
 10
4351.851851851852
 20
-4965.277777777778
 10
4363.425925925926
 20
-4965.277777777778
 10
4375.0
 20
-4965.277777777778
 10
4386.574074074074
 20
-4953.7037037037035
 10
4398.148148148149
 20
-4953.7037037037035
 10
4409.722222222223
 20
-4953.7037037037035
 10
4409.722222222223
 20
-4942.12962962963
 10
4409.722222222223
 20
-4930.555555555556
 10
4409.722222222223
 20
-4918.981481481482
 10
4409.722222222223
 20
-4907.407407407408
 10
4409.722222222223
 20
-4895.833333333333
 10
4409.722222222223
 20
-4884.259259259259
 10
4421.2962962962965
 20
-4872.685185185185
 10
4421.2962962962965
 20
-4861.111111111111
 10
4421.2962962962965
 20
-4849.537037037037
 10
4432.87037037037
 20
-4837.9629629629635
 10
4432.87037037037
 20
-4826.388888888889
 10
4432.87037037037
 20
-4814.814814814815
 10
4432.87037037037
 20
-4803.240740740741
 10
4432.87037037037
 20
-4791.666666666667
 10
4421.2962962962965
 20
-4780.092592592593
 10
4421.2962962962965
 20
-4768.518518518518
 10
4421.2962962962965
 20
-4756.944444444444
 10
4409.722222222223
 20
-4745.37037037037
 10
4409.722222222223
 20
-4733.7962962962965
 10
4409.722222222223
 20
-4722.222222222223
 10
4421.2962962962965
 20
-4710.648148148149
 10
4432.87037037037
 20
-4710.648148148149
 10
4444.444444444444
 20
-4710.648148148149
 10
4444.444444444444
 20
-4699.074074074074
 10
4444.444444444444
 20
-4687.5
 10
4456.018518518518
 20
-4675.925925925926
 10
4456.018518518518
 20
-4664.351851851852
 10
4456.018518518518
 20
-4652.777777777778
 10
4467.592592592593
 20
-4641.2037037037035
 10
4467.592592592593
 20
-4629.62962962963
 10
4467.592592592593
 20
-4618.055555555556
 10
4467.592592592593
 20
-4606.481481481482
 10
4479.166666666667
 20
-4594.907407407408
 10
4479.166666666667
 20
-4583.333333333333
 10
4479.166666666667
 20
-4571.759259259259
 10
4479.166666666667
 20
-4560.185185185185
 10
4479.166666666667
 20
-4548.611111111111
 10
4479.166666666667
 20
-4537.037037037037
 10
4479.166666666667
 20
-4525.4629629629635
 10
4479.166666666667
 20
-4513.888888888889
 10
4479.166666666667
 20
-4502.314814814815
 10
4479.166666666667
 20
-4490.740740740741
 10
4479.166666666667
 20
-4479.166666666667
 10
4479.166666666667
 20
-4467.592592592593
 10
4479.166666666667
 20
-4456.018518518518
 10
4479.166666666667
 20
-4444.444444444444
 10
4479.166666666667
 20
-4432.87037037037
 10
4479.166666666667
 20
-4421.2962962962965
 10
4479.166666666667
 20
-4409.722222222223
 10
4479.166666666667
 20
-4398.148148148149
 10
4479.166666666667
 20
-4386.574074074074
 10
4479.166666666667
 20
-4375.0
 10
4479.166666666667
 20
-4363.425925925926
 10
4479.166666666667
 20
-4351.851851851852
 10
4479.166666666667
 20
-4340.277777777778
 10
4479.166666666667
 20
-4328.7037037037035
 10
4479.166666666667
 20
-4317.12962962963
 10
4479.166666666667
 20
-4305.555555555556
 10
4479.166666666667
 20
-4293.981481481482
 10
4479.166666666667
 20
-4282.407407407408
 10
4479.166666666667
 20
-4270.833333333333
 10
4479.166666666667
 20
-4259.259259259259
 10
4479.166666666667
 20
-4247.685185185185
 10
4479.166666666667
 20
-4236.111111111111
 10
4479.166666666667
 20
-4224.537037037037
 10
4479.166666666667
 20
-4212.9629629629635
 10
4479.166666666667
 20
-4201.388888888889
 10
4479.166666666667
 20
-4189.814814814815
 10
4479.166666666667
 20
-4178.240740740741
 10
4479.166666666667
 20
-4166.666666666667
 10
4479.166666666667
 20
-4155.092592592593
 10
4479.166666666667
 20
-4143.518518518518
 10
4479.166666666667
 20
-4131.944444444444
 10
4479.166666666667
 20
-4120.37037037037
 10
4479.166666666667
 20
-4108.7962962962965
 10
4479.166666666667
 20
-4097.222222222223
 10
4479.166666666667
 20
-4085.6481481481483
 10
4479.166666666667
 20
-4074.0740740740744
 10
4479.166666666667
 20
-4062.5
 10
4479.166666666667
 20
-4050.925925925926
 10
4479.166666666667
 20
-4039.351851851852
 10
4479.166666666667
 20
-4027.777777777778
 10
4479.166666666667
 20
-4016.203703703704
 10
4479.166666666667
 20
-4004.6296296296296
 10
4479.166666666667
 20
-3993.0555555555557
 10
4479.166666666667
 20
-3981.4814814814818
 10
4479.166666666667
 20
-3969.9074074074074
 10
4479.166666666667
 20
-3958.3333333333335
 10
4479.166666666667
 20
-3946.7592592592596
 10
4479.166666666667
 20
-3935.185185185185
 10
4479.166666666667
 20
-3923.6111111111113
 10
4479.166666666667
 20
-3912.037037037037
 10
4479.166666666667
 20
-3900.462962962963
 10
4479.166666666667
 20
-3888.888888888889
 10
4479.166666666667
 20
-3877.314814814815
 10
4479.166666666667
 20
-3865.740740740741
 10
4479.166666666667
 20
-3854.166666666667
 10
4479.166666666667
 20
-3842.5925925925926
 10
4479.166666666667
 20
-3831.0185185185187
 10
4479.166666666667
 20
-3819.4444444444443
 10
4479.166666666667
 20
-3807.8703703703704
 10
4479.166666666667
 20
-3796.2962962962965
 10
4479.166666666667
 20
-3784.722222222222
 10
4479.166666666667
 20
-3773.1481481481483
 10
4479.166666666667
 20
-3761.5740740740744
 10
4479.166666666667
 20
-3750.0
 10
4479.166666666667
 20
-3738.425925925926
 10
4479.166666666667
 20
-3726.8518518518517
 10
4479.166666666667
 20
-3715.277777777778
 10
4479.166666666667
 20
-3703.703703703704
 10
4479.166666666667
 20
-3692.1296296296296
 10
4479.166666666667
 20
-3680.5555555555557
 10
4479.166666666667
 20
-3668.9814814814818
 10
4479.166666666667
 20
-3657.4074074074074
 10
4479.166666666667
 20
-3645.8333333333335
 10
4479.166666666667
 20
-3634.2592592592596
 10
4479.166666666667
 20
-3622.685185185185
 10
4479.166666666667
 20
-3611.1111111111113
 10
4479.166666666667
 20
-3599.537037037037
 10
4479.166666666667
 20
-3587.962962962963
 10
4479.166666666667
 20
-3576.388888888889
 10
4479.166666666667
 20
-3564.814814814815
 10
4479.166666666667
 20
-3553.240740740741
 10
4479.166666666667
 20
-3541.666666666667
 10
4479.166666666667
 20
-3530.0925925925926
 10
4479.166666666667
 20
-3518.5185185185187
 10
4479.166666666667
 20
-3506.9444444444443
 10
4479.166666666667
 20
-3495.3703703703704
 10
4479.166666666667
 20
-3483.7962962962965
 10
4479.166666666667
 20
-3472.222222222222
 10
4479.166666666667
 20
-3460.6481481481483
 10
4479.166666666667
 20
-3449.0740740740744
 10
4479.166666666667
 20
-3437.5
 10
4479.166666666667
 20
-3425.925925925926
 10
4479.166666666667
 20
-3414.3518518518517
 10
4479.166666666667
 20
-3402.777777777778
 10
4479.166666666667
 20
-3391.203703703704
 10
4479.166666666667
 20
-3379.6296296296296
 10
4479.166666666667
 20
-3368.0555555555557
 10
4479.166666666667
 20
-3356.4814814814818
 10
4479.166666666667
 20
-3344.9074074074074
 10
4479.166666666667
 20
-3333.3333333333335
 10
4479.166666666667
 20
-3321.7592592592596
 10
4479.166666666667
 20
-3310.185185185185
 10
4479.166666666667
 20
-3298.6111111111113
 10
4479.166666666667
 20
-3287.037037037037
 10
4479.166666666667
 20
-3275.462962962963
 10
4479.166666666667
 20
-3263.888888888889
 10
4479.166666666667
 20
-3252.314814814815
 10
4479.166666666667
 20
-3240.740740740741
 10
4479.166666666667
 20
-3229.166666666667
 10
4479.166666666667
 20
-3217.5925925925926
 10
4479.166666666667
 20
-3206.0185185185187
 10
4479.166666666667
 20
-3194.4444444444443
 10
4479.166666666667
 20
-3182.8703703703704
 10
4479.166666666667
 20
-3171.2962962962965
 10
4479.166666666667
 20
-3159.722222222222
 10
4479.166666666667
 20
-3148.1481481481483
 10
4479.166666666667
 20
-3136.5740740740744
 10
4479.166666666667
 20
-3125.0
 10
4479.166666666667
 20
-3113.425925925926
 10
4479.166666666667
 20
-3101.8518518518517
 10
4479.166666666667
 20
-3090.277777777778
 10
4479.166666666667
 20
-3078.703703703704
 10
4479.166666666667
 20
-3067.1296296296296
 10
4479.166666666667
 20
-3055.5555555555557
 10
4479.166666666667
 20
-3043.9814814814818
 10
4479.166666666667
 20
-3032.4074074074074
 10
4479.166666666667
 20
-3020.8333333333335
 10
4479.166666666667
 20
-3009.259259259259
 10
4479.166666666667
 20
-2997.685185185185
 10
4479.166666666667
 20
-2986.1111111111113
 10
4479.166666666667
 20
-2974.537037037037
 10
4479.166666666667
 20
-2962.962962962963
 10
4479.166666666667
 20
-2951.388888888889
 10
4479.166666666667
 20
-2939.814814814815
 10
4479.166666666667
 20
-2928.240740740741
 10
4479.166666666667
 20
-2916.666666666667
 10
4479.166666666667
 20
-2905.0925925925926
 10
4479.166666666667
 20
-2893.5185185185187
 10
4479.166666666667
 20
-2881.9444444444443
 10
4479.166666666667
 20
-2870.3703703703704
 10
4479.166666666667
 20
-2858.7962962962965
 10
4479.166666666667
 20
-2847.222222222222
 10
4479.166666666667
 20
-2835.6481481481483
 10
4479.166666666667
 20
-2824.0740740740744
 10
4479.166666666667
 20
-2812.5
 10
4479.166666666667
 20
-2800.925925925926
 10
4479.166666666667
 20
-2789.3518518518517
 10
4479.166666666667
 20
-2777.777777777778
 10
4479.166666666667
 20
-2766.203703703704
 10
4479.166666666667
 20
-2754.6296296296296
 10
4479.166666666667
 20
-2743.0555555555557
 10
4479.166666666667
 20
-2731.4814814814818
 10
4479.166666666667
 20
-2719.9074074074074
 10
4479.166666666667
 20
-2708.3333333333335
 10
4479.166666666667
 20
-2696.759259259259
 10
4479.166666666667
 20
-2685.185185185185
 10
4479.166666666667
 20
-2673.6111111111113
 10
4479.166666666667
 20
-2662.037037037037
 10
4479.166666666667
 20
-2650.462962962963
 10
4479.166666666667
 20
-2638.888888888889
 10
4479.166666666667
 20
-2627.314814814815
 10
4479.166666666667
 20
-2615.740740740741
 10
4479.166666666667
 20
-2604.1666666666665
 10
4479.166666666667
 20
-2592.5925925925926
 10
4479.166666666667
 20
-2581.0185185185187
 10
4479.166666666667
 20
-2569.4444444444443
 10
4479.166666666667
 20
-2557.8703703703704
 10
4479.166666666667
 20
-2546.2962962962965
 10
4479.166666666667
 20
-2534.722222222222
 10
4479.166666666667
 20
-2523.1481481481483
 10
4479.166666666667
 20
-2511.5740740740744
 10
4479.166666666667
 20
-2500.0
 10
4479.166666666667
 20
-2488.425925925926
 10
4479.166666666667
 20
-2476.8518518518517
 10
4479.166666666667
 20
-2465.277777777778
 10
4479.166666666667
 20
-2453.703703703704
 10
4479.166666666667
 20
-2442.1296296296296
 10
4479.166666666667
 20
-2430.5555555555557
 10
4479.166666666667
 20
-2418.9814814814818
 10
4479.166666666667
 20
-2407.4074074074074
 10
4479.166666666667
 20
-2395.8333333333335
 10
4479.166666666667
 20
-2384.259259259259
 10
4479.166666666667
 20
-2372.685185185185
 10
4479.166666666667
 20
-2361.1111111111113
 10
4479.166666666667
 20
-2349.537037037037
 10
4479.166666666667
 20
-2337.962962962963
 10
4479.166666666667
 20
-2326.388888888889
 10
4479.166666666667
 20
-2314.814814814815
 10
4479.166666666667
 20
-2303.240740740741
 10
4479.166666666667
 20
-2291.6666666666665
 10
4479.166666666667
 20
-2280.0925925925926
 10
4479.166666666667
 20
-2268.5185185185187
 10
4479.166666666667
 20
-2256.9444444444443
 10
4479.166666666667
 20
-2245.3703703703704
 10
4479.166666666667
 20
-2233.7962962962965
 10
4479.166666666667
 20
-2222.222222222222
 10
4479.166666666667
 20
-2210.6481481481483
 10
4479.166666666667
 20
-2199.0740740740744
 10
4479.166666666667
 20
-2187.5
 10
4479.166666666667
 20
-2175.925925925926
 10
4479.166666666667
 20
-2164.3518518518517
 10
4479.166666666667
 20
-2152.777777777778
 10
4479.166666666667
 20
-2141.203703703704
 10
4479.166666666667
 20
-2129.6296296296296
 10
4479.166666666667
 20
-2118.0555555555557
 10
4479.166666666667
 20
-2106.4814814814818
 10
4479.166666666667
 20
-2094.9074074074074
 10
4479.166666666667
 20
-2083.3333333333335
 10
4479.166666666667
 20
-2071.759259259259
 10
4479.166666666667
 20
-2060.185185185185
 10
4479.166666666667
 20
-2048.6111111111113
 10
4479.166666666667
 20
-2037.0370370370372
 10
4479.166666666667
 20
-2025.462962962963
 10
4479.166666666667
 20
-2013.888888888889
 10
4479.166666666667
 20
-2002.3148148148148
 10
4479.166666666667
 20
-1990.7407407407409
 10
4479.166666666667
 20
-1979.1666666666667
 10
4479.166666666667
 20
-1967.5925925925926
 10
4479.166666666667
 20
-1956.0185185185185
 10
4479.166666666667
 20
-1944.4444444444446
 10
4479.166666666667
 20
-1932.8703703703704
 10
4479.166666666667
 20
-1921.2962962962963
 10
4479.166666666667
 20
-1909.7222222222222
 10
4479.166666666667
 20
-1898.1481481481483
 10
4479.166666666667
 20
-1886.5740740740741
 10
4479.166666666667
 20
-1875.0
 10
4479.166666666667
 20
-1863.4259259259259
 10
4479.166666666667
 20
-1851.851851851852
 10
4479.166666666667
 20
-1840.2777777777778
 10
4479.166666666667
 20
-1828.7037037037037
 10
4479.166666666667
 20
-1817.1296296296298
 10
4479.166666666667
 20
-1805.5555555555557
 10
4479.166666666667
 20
-1793.9814814814815
 10
4479.166666666667
 20
-1782.4074074074074
 10
4479.166666666667
 20
-1770.8333333333335
 10
4479.166666666667
 20
-1759.2592592592594
 10
4479.166666666667
 20
-1747.6851851851852
 10
4479.166666666667
 20
-1736.111111111111
 10
4479.166666666667
 20
-1724.5370370370372
 10
4479.166666666667
 20
-1712.962962962963
 10
4479.166666666667
 20
-1701.388888888889
 10
4479.166666666667
 20
-1689.8148148148148
 10
4479.166666666667
 20
-1678.2407407407409
 10
4479.166666666667
 20
-1666.6666666666667
 10
4479.166666666667
 20
-1655.0925925925926
 10
4479.166666666667
 20
-1643.5185185185185
 10
4479.166666666667
 20
-1631.9444444444446
 10
4479.166666666667
 20
-1620.3703703703704
 10
4479.166666666667
 20
-1608.7962962962963
 10
4479.166666666667
 20
-1597.2222222222222
 10
4479.166666666667
 20
-1585.6481481481483
 10
4479.166666666667
 20
-1574.0740740740741
 10
4479.166666666667
 20
-1562.5
 10
4479.166666666667
 20
-1550.9259259259259
 10
4479.166666666667
 20
-1539.351851851852
 10
4479.166666666667
 20
-1527.7777777777778
 10
4479.166666666667
 20
-1516.2037037037037
 10
4479.166666666667
 20
-1504.6296296296296
 10
4479.166666666667
 20
-1493.0555555555557
 10
4479.166666666667
 20
-1481.4814814814815
 10
4479.166666666667
 20
-1469.9074074074074
 10
4479.166666666667
 20
-1458.3333333333335
 10
4479.166666666667
 20
-1446.7592592592594
 10
4479.166666666667
 20
-1435.1851851851852
 10
4479.166666666667
 20
-1423.611111111111
 10
4479.166666666667
 20
-1412.0370370370372
 10
4479.166666666667
 20
-1400.462962962963
 10
4479.166666666667
 20
-1388.888888888889
 10
4479.166666666667
 20
-1377.3148148148148
 10
4479.166666666667
 20
-1365.7407407407409
 10
4479.166666666667
 20
-1354.1666666666667
 10
4479.166666666667
 20
-1342.5925925925926
 10
4479.166666666667
 20
-1331.0185185185185
 10
4479.166666666667
 20
-1319.4444444444446
 10
4479.166666666667
 20
-1307.8703703703704
 10
4479.166666666667
 20
-1296.2962962962963
 10
4479.166666666667
 20
-1284.7222222222222
 10
4479.166666666667
 20
-1273.1481481481483
 10
4479.166666666667
 20
-1261.5740740740741
 10
4479.166666666667
 20
-1250.0
 10
4479.166666666667
 20
-1238.4259259259259
 10
4479.166666666667
 20
-1226.851851851852
 10
4479.166666666667
 20
-1215.2777777777778
 10
4479.166666666667
 20
-1203.7037037037037
 10
4479.166666666667
 20
-1192.1296296296296
 10
4479.166666666667
 20
-1180.5555555555557
 10
4479.166666666667
 20
-1168.9814814814815
 10
4479.166666666667
 20
-1157.4074074074074
 10
4479.166666666667
 20
-1145.8333333333333
 10
4479.166666666667
 20
-1134.2592592592594
 10
4479.166666666667
 20
-1122.6851851851852
 10
4479.166666666667
 20
-1111.111111111111
 10
4479.166666666667
 20
-1099.5370370370372
 10
4479.166666666667
 20
-1087.962962962963
 10
4479.166666666667
 20
-1076.388888888889
 10
4479.166666666667
 20
-1064.8148148148148
 10
4479.166666666667
 20
-1053.2407407407409
 10
4479.166666666667
 20
-1041.6666666666667
 10
4479.166666666667
 20
-1030.0925925925926
 10
4479.166666666667
 20
-1018.5185185185186
 10
4479.166666666667
 20
-1006.9444444444445
 10
4479.166666666667
 20
-995.3703703703704
 10
4479.166666666667
 20
-983.7962962962963
 10
4479.166666666667
 20
-972.2222222222223
 10
4479.166666666667
 20
-960.6481481481482
 10
4479.166666666667
 20
-949.0740740740741
 10
4479.166666666667
 20
-937.5
 10
4479.166666666667
 20
-925.925925925926
 10
4479.166666666667
 20
-914.3518518518518
 10
4479.166666666667
 20
-902.7777777777778
 10
4479.166666666667
 20
-891.2037037037037
 10
4479.166666666667
 20
-879.6296296296297
 10
4479.166666666667
 20
-868.0555555555555
 10
4479.166666666667
 20
-856.4814814814815
 10
4479.166666666667
 20
-844.9074074074074
 10
4479.166666666667
 20
-833.3333333333334
 10
4479.166666666667
 20
-821.7592592592592
 10
4479.166666666667
 20
-810.1851851851852
 10
4479.166666666667
 20
-798.6111111111111
 10
4479.166666666667
 20
-787.0370370370371
 10
4479.166666666667
 20
-775.4629629629629
 10
4479.166666666667
 20
-763.8888888888889
 10
4479.166666666667
 20
-752.3148148148148
 10
4479.166666666667
 20
-740.7407407407408
 10
4479.166666666667
 20
-729.1666666666667
 10
4479.166666666667
 20
-717.5925925925926
 10
4479.166666666667
 20
-706.0185185185186
 10
4479.166666666667
 20
-694.4444444444445
 10
4479.166666666667
 20
-682.8703703703704
 10
4479.166666666667
 20
-671.2962962962963
 10
4479.166666666667
 20
-659.7222222222223
 10
4479.166666666667
 20
-648.1481481481482
 10
4479.166666666667
 20
-636.5740740740741
 10
4479.166666666667
 20
-625.0
 10
4479.166666666667
 20
-613.425925925926
 10
4479.166666666667
 20
-601.8518518518518
 10
4479.166666666667
 20
-590.2777777777778
 10
4479.166666666667
 20
-578.7037037037037
 10
4479.166666666667
 20
-567.1296296296297
 10
4479.166666666667
 20
-555.5555555555555
 10
4479.166666666667
 20
-543.9814814814815
 10
4479.166666666667
 20
-532.4074074074074
 10
4479.166666666667
 20
-520.8333333333334
 10
4479.166666666667
 20
-509.2592592592593
 10
4479.166666666667
 20
-497.6851851851852
 10
4479.166666666667
 20
-486.11111111111114
 10
4479.166666666667
 20
-474.53703703703707
 10
4479.166666666667
 20
-462.962962962963
 10
4479.166666666667
 20
-451.3888888888889
 10
4479.166666666667
 20
-439.81481481481484
 10
4479.166666666667
 20
-428.24074074074076
 10
4479.166666666667
 20
-416.6666666666667
 10
4479.166666666667
 20
-405.0925925925926
 10
4479.166666666667
 20
-393.51851851851853
 10
4479.166666666667
 20
-381.94444444444446
 10
4479.166666666667
 20
-370.3703703703704
 10
4479.166666666667
 20
-358.7962962962963
 10
4479.166666666667
 20
-347.22222222222223
 10
4479.166666666667
 20
-335.64814814814815
 10
4479.166666666667
 20
-324.0740740740741
 10
4479.166666666667
 20
-312.5
 10
4479.166666666667
 20
-300.9259259259259
 10
4479.166666666667
 20
-289.35185185185185
 10
4479.166666666667
 20
-277.77777777777777
 10
4479.166666666667
 20
-266.2037037037037
 10
4479.166666666667
 20
-254.62962962962965
 10
4479.166666666667
 20
-243.05555555555557
 10
4479.166666666667
 20
-231.4814814814815
 10
4479.166666666667
 20
-219.90740740740742
 10
4479.166666666667
 20
-208.33333333333334
 10
4479.166666666667
 20
-196.75925925925927
 10
4479.166666666667
 20
-185.1851851851852
 10
4479.166666666667
 20
-173.61111111111111
 10
4479.166666666667
 20
-162.03703703703704
 10
4479.166666666667
 20
-150.46296296296296
 10
4479.166666666667
 20
-138.88888888888889
 10
4479.166666666667
 20
-127.31481481481482
 10
4479.166666666667
 20
-115.74074074074075
 10
4479.166666666667
 20
-104.16666666666667
 10
4479.166666666667
 20
-92.5925925925926
 10
4479.166666666667
 20
-81.01851851851852
 10
4479.166666666667
 20
-69.44444444444444
 10
4479.166666666667
 20
-57.870370370370374
 10
4479.166666666667
 20
-46.2962962962963
 10
4479.166666666667
 20
-34.72222222222222
 10
4479.166666666667
 20
-23.14814814814815
 10
4479.166666666667
 20
-11.574074074074074
 10
4479.166666666667
 20
-0.0
 10
4467.592592592593
 20
-0.0
 10
4456.018518518518
 20
-0.0
 10
4444.444444444444
 20
-0.0
 10
4432.87037037037
 20
-0.0
 10
4421.2962962962965
 20
-0.0
 10
4409.722222222223
 20
-0.0
 10
4398.148148148149
 20
-0.0
 10
4386.574074074074
 20
-0.0
 10
4375.0
 20
-0.0
 10
4363.425925925926
 20
-0.0
 10
4351.851851851852
 20
-0.0
 10
4340.277777777778
 20
-0.0
 10
4328.7037037037035
 20
-0.0
 10
4317.12962962963
 20
-0.0
 10
4305.555555555556
 20
-0.0
 10
4293.981481481482
 20
-0.0
 10
4282.407407407408
 20
-0.0
 10
4270.833333333333
 20
-0.0
 10
4259.259259259259
 20
-0.0
 10
4247.685185185185
 20
-0.0
 10
4236.111111111111
 20
-0.0
 10
4224.537037037037
 20
-0.0
 10
4212.9629629629635
 20
-0.0
 10
4201.388888888889
 20
-0.0
 10
4189.814814814815
 20
-0.0
 10
4178.240740740741
 20
-0.0
 10
4166.666666666667
 20
-0.0
 10
4155.092592592593
 20
-0.0
 10
4143.518518518518
 20
-0.0
 10
4131.944444444444
 20
-0.0
 10
4120.37037037037
 20
-0.0
 10
4108.7962962962965
 20
-0.0
 10
4097.222222222223
 20
-0.0
 10
4085.6481481481483
 20
-0.0
 10
4074.0740740740744
 20
-0.0
 10
4062.5
 20
-0.0
 10
4050.925925925926
 20
-0.0
 10
4039.351851851852
 20
-0.0
 10
4027.777777777778
 20
-0.0
 10
4016.203703703704
 20
-0.0
 10
4004.6296296296296
 20
-0.0
 10
3993.0555555555557
 20
-0.0
 10
3981.4814814814818
 20
-0.0
 10
3969.9074074074074
 20
-0.0
 10
3958.3333333333335
 20
-0.0
 10
3946.7592592592596
 20
-0.0
 10
3935.185185185185
 20
-0.0
 10
3923.6111111111113
 20
-0.0
 10
3912.037037037037
 20
-0.0
 10
3900.462962962963
 20
-0.0
 10
3888.888888888889
 20
-0.0
 10
3877.314814814815
 20
-0.0
 10
3865.740740740741
 20
-0.0
 10
3854.166666666667
 20
-0.0
 10
3842.5925925925926
 20
-0.0
 10
3831.0185185185187
 20
-0.0
 10
3819.4444444444443
 20
-0.0
 10
3807.8703703703704
 20
-0.0
 10
3796.2962962962965
 20
-0.0
 10
3784.722222222222
 20
-0.0
 10
3773.1481481481483
 20
-0.0
 10
3761.5740740740744
 20
-0.0
 10
3750.0
 20
-0.0
 10
3738.425925925926
 20
-0.0
 10
3726.8518518518517
 20
-0.0
 10
3715.277777777778
 20
-0.0
 10
3703.703703703704
 20
-0.0
 10
3692.1296296296296
 20
-0.0
 10
3680.5555555555557
 20
-0.0
 10
3668.9814814814818
 20
-0.0
 10
3657.4074074074074
 20
-0.0
 10
3645.8333333333335
 20
-0.0
 10
3634.2592592592596
 20
-0.0
 10
3622.685185185185
 20
-0.0
 10
3611.1111111111113
 20
-0.0
 10
3599.537037037037
 20
-0.0
 10
3587.962962962963
 20
-0.0
 10
3576.388888888889
 20
-0.0
 10
3564.814814814815
 20
-0.0
 10
3553.240740740741
 20
-0.0
 10
3541.666666666667
 20
-0.0
 10
3530.0925925925926
 20
-0.0
 10
3518.5185185185187
 20
-0.0
 10
3506.9444444444443
 20
-0.0
 10
3495.3703703703704
 20
-0.0
 10
3483.7962962962965
 20
-0.0
 10
3472.222222222222
 20
-0.0
 10
3460.6481481481483
 20
-0.0
 10
3449.0740740740744
 20
-0.0
 10
3437.5
 20
-0.0
 10
3425.925925925926
 20
-0.0
 10
3414.3518518518517
 20
-0.0
 10
3402.777777777778
 20
-0.0
 10
3391.203703703704
 20
-0.0
 10
3379.6296296296296
 20
-0.0
 10
3368.0555555555557
 20
-0.0
 10
3356.4814814814818
 20
-0.0
 10
3344.9074074074074
 20
-0.0
 10
3333.3333333333335
 20
-0.0
 10
3321.7592592592596
 20
-0.0
 10
3310.185185185185
 20
-0.0
 10
3298.6111111111113
 20
-0.0
 10
3287.037037037037
 20
-0.0
 10
3275.462962962963
 20
-0.0
 10
3263.888888888889
 20
-0.0
 10
3252.314814814815
 20
-0.0
 10
3240.740740740741
 20
-0.0
 10
3229.166666666667
 20
-0.0
 10
3217.5925925925926
 20
-0.0
 10
3206.0185185185187
 20
-0.0
 10
3194.4444444444443
 20
-0.0
 10
3182.8703703703704
 20
-0.0
 10
3171.2962962962965
 20
-0.0
 10
3159.722222222222
 20
-0.0
 10
3148.1481481481483
 20
-0.0
 10
3136.5740740740744
 20
-0.0
 10
3125.0
 20
-0.0
 10
3113.425925925926
 20
-0.0
 10
3101.8518518518517
 20
-0.0
 10
3090.277777777778
 20
-0.0
 10
3078.703703703704
 20
-0.0
 10
3067.1296296296296
 20
-0.0
 10
3055.5555555555557
 20
-0.0
 10
3043.9814814814818
 20
-0.0
 10
3032.4074074074074
 20
-0.0
 10
3020.8333333333335
 20
-0.0
 10
3009.259259259259
 20
-0.0
 10
2997.685185185185
 20
-0.0
 10
2986.1111111111113
 20
-0.0
 10
2974.537037037037
 20
-0.0
 10
2962.962962962963
 20
-0.0
 10
2951.388888888889
 20
-0.0
 10
2939.814814814815
 20
-0.0
 10
2928.240740740741
 20
-0.0
 10
2916.666666666667
 20
-0.0
 10
2905.0925925925926
 20
-0.0
 10
2893.5185185185187
 20
-0.0
 10
2881.9444444444443
 20
-0.0
 10
2870.3703703703704
 20
-0.0
 10
2858.7962962962965
 20
-0.0
 10
2847.222222222222
 20
-0.0
 10
2835.6481481481483
 20
-0.0
 10
2824.0740740740744
 20
-0.0
 10
2812.5
 20
-0.0
 10
2800.925925925926
 20
-0.0
 10
2789.3518518518517
 20
-0.0
 10
2777.777777777778
 20
-0.0
 10
2766.203703703704
 20
-0.0
 10
2754.6296296296296
 20
-0.0
 10
2743.0555555555557
 20
-0.0
 10
2731.4814814814818
 20
-0.0
 10
2719.9074074074074
 20
-0.0
 10
2708.3333333333335
 20
-0.0
 10
2696.759259259259
 20
-0.0
 10
2685.185185185185
 20
-0.0
 10
2673.6111111111113
 20
-0.0
 10
2662.037037037037
 20
-0.0
 10
2650.462962962963
 20
-0.0
 10
2638.888888888889
 20
-0.0
 10
2627.314814814815
 20
-0.0
 10
2615.740740740741
 20
-0.0
 10
2604.1666666666665
 20
-0.0
 10
2592.5925925925926
 20
-0.0
 10
2581.0185185185187
 20
-0.0
 10
2569.4444444444443
 20
-0.0
 10
2557.8703703703704
 20
-0.0
 10
2546.2962962962965
 20
-0.0
 10
2534.722222222222
 20
-0.0
 10
2523.1481481481483
 20
-0.0
 10
2511.5740740740744
 20
-0.0
 10
2500.0
 20
-0.0
 10
2488.425925925926
 20
-0.0
 10
2476.8518518518517
 20
-0.0
 10
2465.277777777778
 20
-0.0
 10
2453.703703703704
 20
-0.0
 10
2442.1296296296296
 20
-0.0
 10
2430.5555555555557
 20
-0.0
 10
2418.9814814814818
 20
-0.0
 10
2407.4074074074074
 20
-0.0
 10
2395.8333333333335
 20
-0.0
 10
2384.259259259259
 20
-0.0
 10
2372.685185185185
 20
-0.0
 10
2361.1111111111113
 20
-0.0
 10
2349.537037037037
 20
-0.0
 10
2337.962962962963
 20
-0.0
 10
2326.388888888889
 20
-0.0
 10
2314.814814814815
 20
-0.0
 10
2303.240740740741
 20
-0.0
 10
2291.6666666666665
 20
-0.0
 10
2280.0925925925926
 20
-0.0
 10
2268.5185185185187
 20
-0.0
 10
2256.9444444444443
 20
-0.0
 10
2245.3703703703704
 20
-0.0
 10
2233.7962962962965
 20
-0.0
 10
2222.222222222222
 20
-0.0
 10
2210.6481481481483
 20
-0.0
 10
2199.0740740740744
 20
-0.0
 10
2187.5
 20
-0.0
 10
2175.925925925926
 20
-0.0
 10
2164.3518518518517
 20
-0.0
 10
2152.777777777778
 20
-0.0
 10
2141.203703703704
 20
-0.0
 10
2129.6296296296296
 20
-0.0
 10
2118.0555555555557
 20
-0.0
 10
2106.4814814814818
 20
-0.0
 10
2094.9074074074074
 20
-0.0
 10
2083.3333333333335
 20
-0.0
 10
2071.759259259259
 20
-0.0
 10
2060.185185185185
 20
-0.0
 10
2048.6111111111113
 20
-0.0
 10
2037.0370370370372
 20
-0.0
 10
2025.462962962963
 20
-0.0
 10
2013.888888888889
 20
-0.0
 10
2002.3148148148148
 20
-0.0
 10
1990.7407407407409
 20
-0.0
 10
1979.1666666666667
 20
-0.0
 10
1967.5925925925926
 20
-0.0
 10
1956.0185185185185
 20
-0.0
 10
1944.4444444444446
 20
-0.0
 10
1932.8703703703704
 20
-0.0
 10
1921.2962962962963
 20
-0.0
 10
1909.7222222222222
 20
-0.0
 10
1898.1481481481483
 20
-0.0
 10
1886.5740740740741
 20
-0.0
 10
1875.0
 20
-0.0
 10
1863.4259259259259
 20
-0.0
 10
1851.851851851852
 20
-0.0
 10
1840.2777777777778
 20
-0.0
 10
1828.7037037037037
 20
-0.0
 10
1817.1296296296298
 20
-0.0
 10
1805.5555555555557
 20
-0.0
 10
1793.9814814814815
 20
-0.0
 10
1782.4074074074074
 20
-0.0
 10
1770.8333333333335
 20
-0.0
 10
1759.2592592592594
 20
-0.0
 10
1747.6851851851852
 20
-0.0
 10
1736.111111111111
 20
-0.0
 10
1724.5370370370372
 20
-0.0
 10
1712.962962962963
 20
-0.0
 10
1701.388888888889
 20
-0.0
 10
1689.8148148148148
 20
-0.0
 10
1678.2407407407409
 20
-0.0
 10
1666.6666666666667
 20
-0.0
 10
1655.0925925925926
 20
-0.0
 10
1643.5185185185185
 20
-0.0
 10
1631.9444444444446
 20
-0.0
 10
1620.3703703703704
 20
-0.0
 10
1608.7962962962963
 20
-0.0
 10
1597.2222222222222
 20
-0.0
 10
1585.6481481481483
 20
-0.0
 10
1574.0740740740741
 20
-0.0
 10
1562.5
 20
-0.0
 10
1550.9259259259259
 20
-0.0
 10
1539.351851851852
 20
-0.0
 10
1527.7777777777778
 20
-0.0
 10
1516.2037037037037
 20
-0.0
 10
1504.6296296296296
 20
-0.0
 10
1493.0555555555557
 20
-0.0
 10
1481.4814814814815
 20
-0.0
 10
1469.9074074074074
 20
-0.0
 10
1458.3333333333335
 20
-0.0
 10
1446.7592592592594
 20
-0.0
 10
1435.1851851851852
 20
-0.0
 10
1423.611111111111
 20
-0.0
 10
1412.0370370370372
 20
-0.0
 10
1400.462962962963
 20
-0.0
 10
1388.888888888889
 20
-0.0
 10
1377.3148148148148
 20
-0.0
 10
1365.7407407407409
 20
-0.0
 10
1354.1666666666667
 20
-0.0
 10
1342.5925925925926
 20
-0.0
 10
1331.0185185185185
 20
-0.0
 10
1319.4444444444446
 20
-0.0
 10
1307.8703703703704
 20
-0.0
 10
1296.2962962962963
 20
-0.0
 10
1284.7222222222222
 20
-0.0
 10
1273.1481481481483
 20
-0.0
 10
1261.5740740740741
 20
-0.0
 10
1250.0
 20
-0.0
 10
1238.4259259259259
 20
-0.0
 10
1226.851851851852
 20
-0.0
 10
1215.2777777777778
 20
-0.0
 10
1203.7037037037037
 20
-0.0
 10
1192.1296296296296
 20
-0.0
 10
1180.5555555555557
 20
-0.0
 10
1168.9814814814815
 20
-0.0
 10
1157.4074074074074
 20
-0.0
 10
1145.8333333333333
 20
-0.0
 10
1134.2592592592594
 20
-0.0
 10
1122.6851851851852
 20
-0.0
 10
1111.111111111111
 20
-0.0
 10
1099.5370370370372
 20
-0.0
 10
1087.962962962963
 20
-0.0
 10
1076.388888888889
 20
-0.0
 10
1064.8148148148148
 20
-0.0
 10
1053.2407407407409
 20
-0.0
 10
1041.6666666666667
 20
-0.0
 10
1030.0925925925926
 20
-0.0
 10
1018.5185185185186
 20
-0.0
 10
1006.9444444444445
 20
-0.0
 10
995.3703703703704
 20
-0.0
 10
983.7962962962963
 20
-0.0
 10
972.2222222222223
 20
-0.0
 10
960.6481481481482
 20
-0.0
 10
949.0740740740741
 20
-0.0
 10
937.5
 20
-0.0
 10
925.925925925926
 20
-0.0
 10
914.3518518518518
 20
-0.0
 10
902.7777777777778
 20
-0.0
 10
891.2037037037037
 20
-0.0
 10
879.6296296296297
 20
-0.0
 10
868.0555555555555
 20
-0.0
 10
856.4814814814815
 20
-0.0
 10
844.9074074074074
 20
-0.0
 10
833.3333333333334
 20
-0.0
 10
821.7592592592592
 20
-0.0
 10
810.1851851851852
 20
-0.0
 10
798.6111111111111
 20
-0.0
 10
787.0370370370371
 20
-0.0
 10
775.4629629629629
 20
-0.0
 10
763.8888888888889
 20
-0.0
 10
752.3148148148148
 20
-0.0
 10
740.7407407407408
 20
-0.0
 10
729.1666666666667
 20
-0.0
 10
717.5925925925926
 20
-0.0
 10
706.0185185185186
 20
-0.0
 10
694.4444444444445
 20
-0.0
 10
682.8703703703704
 20
-0.0
 10
671.2962962962963
 20
-0.0
 10
659.7222222222223
 20
-0.0
 10
648.1481481481482
 20
-0.0
 10
636.5740740740741
 20
-0.0
 10
625.0
 20
-0.0
 10
613.425925925926
 20
-0.0
 10
601.8518518518518
 20
-0.0
 10
590.2777777777778
 20
-0.0
 10
578.7037037037037
 20
-0.0
 10
567.1296296296297
 20
-0.0
 10
555.5555555555555
 20
-0.0
 10
543.9814814814815
 20
-0.0
 10
532.4074074074074
 20
-0.0
 10
520.8333333333334
 20
-0.0
 10
509.2592592592593
 20
-0.0
 10
497.6851851851852
 20
-0.0
 10
486.11111111111114
 20
-0.0
 10
474.53703703703707
 20
-0.0
 10
462.962962962963
 20
-0.0
 10
451.3888888888889
 20
-0.0
 10
439.81481481481484
 20
-0.0
 10
428.24074074074076
 20
-0.0
 10
416.6666666666667
 20
-0.0
 10
405.0925925925926
 20
-0.0
 10
393.51851851851853
 20
-0.0
 10
381.94444444444446
 20
-0.0
 10
370.3703703703704
 20
-0.0
 10
358.7962962962963
 20
-0.0
 10
347.22222222222223
 20
-0.0
 10
335.64814814814815
 20
-0.0
 10
324.0740740740741
 20
-0.0
 10
312.5
 20
-0.0
 10
300.9259259259259
 20
-0.0
 10
289.35185185185185
 20
-0.0
 10
277.77777777777777
 20
-0.0
 10
266.2037037037037
 20
-0.0
 10
254.62962962962965
 20
-0.0
 10
243.05555555555557
 20
-0.0
 10
231.4814814814815
 20
-0.0
 10
219.90740740740742
 20
-0.0
 10
208.33333333333334
 20
-0.0
 10
196.75925925925927
 20
-0.0
 10
185.1851851851852
 20
-0.0
 10
173.61111111111111
 20
-0.0
 10
162.03703703703704
 20
-0.0
 10
150.46296296296296
 20
-0.0
 10
138.88888888888889
 20
-0.0
 10
127.31481481481482
 20
-0.0
 10
115.74074074074075
 20
-0.0
 10
104.16666666666667
 20
-0.0
 10
92.5925925925926
 20
-0.0
 10
81.01851851851852
 20
-0.0
 10
69.44444444444444
 20
-0.0
 10
57.870370370370374
 20
-0.0
 10
46.2962962962963
 20
-0.0
 10
34.72222222222222
 20
-0.0
 10
23.14814814814815
 20
-0.0
 10
11.574074074074074
 20
-0.0
  0
LWPOLYLINE
  5
33
330
17
100
AcDbEntity
  8
conductor
100
AcDbPolyline
 90
239
 70
1
 43
0.5
 10
2060.185185185185
 20
-3877.314814814815
 10
2071.759259259259
 20
-3865.740740740741
 10
2083.3333333333335
 20
-3865.740740740741
 10
2094.9074074074074
 20
-3877.314814814815
 10
2106.4814814814818
 20
-3877.314814814815
 10
2118.0555555555557
 20
-3865.740740740741
 10
2129.6296296296296
 20
-3877.314814814815
 10
2141.203703703704
 20
-3877.314814814815
 10
2152.777777777778
 20
-3888.888888888889
 10
2164.3518518518517
 20
-3888.888888888889
 10
2175.925925925926
 20
-3900.462962962963
 10
2187.5
 20
-3900.462962962963
 10
2199.0740740740744
 20
-3912.037037037037
 10
2210.6481481481483
 20
-3923.6111111111113
 10
2222.222222222222
 20
-3923.6111111111113
 10
2233.7962962962965
 20
-3935.185185185185
 10
2245.3703703703704
 20
-3935.185185185185
 10
2256.9444444444443
 20
-3946.7592592592596
 10
2256.9444444444443
 20
-3958.3333333333335
 10
2268.5185185185187
 20
-3969.9074074074074
 10
2268.5185185185187
 20
-3981.4814814814818
 10
2280.0925925925926
 20
-3981.4814814814818
 10
2291.6666666666665
 20
-3981.4814814814818
 10
2303.240740740741
 20
-3981.4814814814818
 10
2314.814814814815
 20
-3993.0555555555557
 10
2326.388888888889
 20
-4004.6296296296296
 10
2337.962962962963
 20
-4016.203703703704
 10
2337.962962962963
 20
-4027.777777777778
 10
2349.537037037037
 20
-4039.351851851852
 10
2361.1111111111113
 20
-4039.351851851852
 10
2372.685185185185
 20
-4050.925925925926
 10
2384.259259259259
 20
-4050.925925925926
 10
2395.8333333333335
 20
-4062.5
 10
2395.8333333333335
 20
-4074.0740740740744
 10
2407.4074074074074
 20
-4085.6481481481483
 10
2418.9814814814818
 20
-4097.222222222223
 10
2430.5555555555557
 20
-4108.7962962962965
 10
2442.1296296296296
 20
-4120.37037037037
 10
2453.703703703704
 20
-4131.944444444444
 10
2465.277777777778
 20
-4143.518518518518
 10
2476.8518518518517
 20
-4155.092592592593
 10
2476.8518518518517
 20
-4166.666666666667
 10
2488.425925925926
 20
-4178.240740740741
 10
2488.425925925926
 20
-4189.814814814815
 10
2488.425925925926
 20
-4201.388888888889
 10
2488.425925925926
 20
-4212.9629629629635
 10
2500.0
 20
-4224.537037037037
 10
2500.0
 20
-4236.111111111111
 10
2500.0
 20
-4247.685185185185
 10
2500.0
 20
-4259.259259259259
 10
2500.0
 20
-4270.833333333333
 10
2500.0
 20
-4282.407407407408
 10
2500.0
 20
-4293.981481481482
 10
2500.0
 20
-4305.555555555556
 10
2500.0
 20
-4317.12962962963
 10
2500.0
 20
-4328.7037037037035
 10
2500.0
 20
-4340.277777777778
 10
2500.0
 20
-4351.851851851852
 10
2488.425925925926
 20
-4363.425925925926
 10
2488.425925925926
 20
-4375.0
 10
2488.425925925926
 20
-4386.574074074074
 10
2488.425925925926
 20
-4398.148148148149
 10
2488.425925925926
 20
-4409.722222222223
 10
2476.8518518518517
 20
-4421.2962962962965
 10
2476.8518518518517
 20
-4432.87037037037
 10
2476.8518518518517
 20
-4444.444444444444
 10
2476.8518518518517
 20
-4456.018518518518
 10
2465.277777777778
 20
-4467.592592592593
 10
2465.277777777778
 20
-4479.166666666667
 10
2453.703703703704
 20
-4490.740740740741
 10
2442.1296296296296
 20
-4502.314814814815
 10
2442.1296296296296
 20
-4513.888888888889
 10
2430.5555555555557
 20
-4525.4629629629635
 10
2430.5555555555557
 20
-4537.037037037037
 10
2418.9814814814818
 20
-4548.611111111111
 10
2407.4074074074074
 20
-4560.185185185185
 10
2395.8333333333335
 20
-4560.185185185185
 10
2384.259259259259
 20
-4571.759259259259
 10
2372.685185185185
 20
-4571.759259259259
 10
2361.1111111111113
 20
-4583.333333333333
 10
2349.537037037037
 20
-4583.333333333333
 10
2337.962962962963
 20
-4594.907407407408
 10
2326.388888888889
 20
-4594.907407407408
 10
2314.814814814815
 20
-4606.481481481482
 10
2303.240740740741
 20
-4606.481481481482
 10
2291.6666666666665
 20
-4606.481481481482
 10
2280.0925925925926
 20
-4606.481481481482
 10
2268.5185185185187
 20
-4618.055555555556
 10
2256.9444444444443
 20
-4629.62962962963
 10
2245.3703703703704
 20
-4629.62962962963
 10
2233.7962962962965
 20
-4629.62962962963
 10
2222.222222222222
 20
-4641.2037037037035
 10
2210.6481481481483
 20
-4652.777777777778
 10
2199.0740740740744
 20
-4652.777777777778
 10
2187.5
 20
-4652.777777777778
 10
2175.925925925926
 20
-4641.2037037037035
 10
2175.925925925926
 20
-4652.777777777778
 10
2175.925925925926
 20
-4664.351851851852
 10
2164.3518518518517
 20
-4675.925925925926
 10
2152.777777777778
 20
-4675.925925925926
 10
2141.203703703704
 20
-4664.351851851852
 10
2129.6296296296296
 20
-4675.925925925926
 10
2118.0555555555557
 20
-4675.925925925926
 10
2106.4814814814818
 20
-4687.5
 10
2094.9074074074074
 20
-4699.074074074074
 10
2083.3333333333335
 20
-4699.074074074074
 10
2071.759259259259
 20
-4687.5
 10
2060.185185185185
 20
-4675.925925925926
 10
2048.6111111111113
 20
-4675.925925925926
 10
2037.0370370370372
 20
-4675.925925925926
 10
2025.462962962963
 20
-4675.925925925926
 10
2025.462962962963
 20
-4687.5
 10
2013.888888888889
 20
-4699.074074074074
 10
2002.3148148148148
 20
-4687.5
 10
2002.3148148148148
 20
-4675.925925925926
 10
2002.3148148148148
 20
-4664.351851851852
 10
1990.7407407407409
 20
-4652.777777777778
 10
2002.3148148148148
 20
-4641.2037037037035
 10
2013.888888888889
 20
-4641.2037037037035
 10
2002.3148148148148
 20
-4641.2037037037035
 10
1990.7407407407409
 20
-4629.62962962963
 10
1979.1666666666667
 20
-4641.2037037037035
 10
1967.5925925925926
 20
-4641.2037037037035
 10
1956.0185185185185
 20
-4652.777777777778
 10
1944.4444444444446
 20
-4652.777777777778
 10
1932.8703703703704
 20
-4652.777777777778
 10
1932.8703703703704
 20
-4664.351851851852
 10
1944.4444444444446
 20
-4675.925925925926
 10
1932.8703703703704
 20
-4687.5
 10
1921.2962962962963
 20
-4687.5
 10
1909.7222222222222
 20
-4687.5
 10
1898.1481481481483
 20
-4687.5
 10
1886.5740740740741
 20
-4687.5
 10
1875.0
 20
-4675.925925925926
 10
1886.5740740740741
 20
-4664.351851851852
 10
1886.5740740740741
 20
-4652.777777777778
 10
1886.5740740740741
 20
-4641.2037037037035
 10
1875.0
 20
-4641.2037037037035
 10
1863.4259259259259
 20
-4652.777777777778
 10
1851.851851851852
 20
-4652.777777777778
 10
1840.2777777777778
 20
-4641.2037037037035
 10
1828.7037037037037
 20
-4629.62962962963
 10
1817.1296296296298
 20
-4641.2037037037035
 10
1805.5555555555557
 20
-4641.2037037037035
 10
1793.9814814814815
 20
-4641.2037037037035
 10
1782.4074074074074
 20
-4641.2037037037035
 10
1770.8333333333335
 20
-4641.2037037037035
 10
1759.2592592592594
 20
-4629.62962962963
 10
1747.6851851851852
 20
-4629.62962962963
 10
1736.111111111111
 20
-4629.62962962963
 10
1724.5370370370372
 20
-4618.055555555556
 10
1712.962962962963
 20
-4618.055555555556
 10
1701.388888888889
 20
-4606.481481481482
 10
1689.8148148148148
 20
-4606.481481481482
 10
1678.2407407407409
 20
-4594.907407407408
 10
1666.6666666666667
 20
-4583.333333333333
 10
1655.0925925925926
 20
-4571.759259259259
 10
1643.5185185185185
 20
-4560.185185185185
 10
1631.9444444444446
 20
-4548.611111111111
 10
1631.9444444444446
 20
-4537.037037037037
 10
1620.3703703703704
 20
-4525.4629629629635
 10
1620.3703703703704
 20
-4513.888888888889
 10
1608.7962962962963
 20
-4502.314814814815
 10
1608.7962962962963
 20
-4490.740740740741
 10
1597.2222222222222
 20
-4479.166666666667
 10
1597.2222222222222
 20
-4467.592592592593
 10
1597.2222222222222
 20
-4456.018518518518
 10
1585.6481481481483
 20
-4444.444444444444
 10
1574.0740740740741
 20
-4432.87037037037
 10
1574.0740740740741
 20
-4421.2962962962965
 10
1562.5
 20
-4409.722222222223
 10
1562.5
 20
-4398.148148148149
 10
1550.9259259259259
 20
-4386.574074074074
 10
1550.9259259259259
 20
-4375.0
 10
1539.351851851852
 20
-4363.425925925926
 10
1539.351851851852
 20
-4351.851851851852
 10
1539.351851851852
 20
-4340.277777777778
 10
1539.351851851852
 20
-4328.7037037037035
 10
1539.351851851852
 20
-4317.12962962963
 10
1539.351851851852
 20
-4305.555555555556
 10
1539.351851851852
 20
-4293.981481481482
 10
1539.351851851852
 20
-4282.407407407408
 10
1539.351851851852
 20
-4270.833333333333
 10
1539.351851851852
 20
-4259.259259259259
 10
1550.9259259259259
 20
-4247.685185185185
 10
1550.9259259259259
 20
-4236.111111111111
 10
1550.9259259259259
 20
-4224.537037037037
 10
1562.5
 20
-4212.9629629629635
 10
1562.5
 20
-4201.388888888889
 10
1574.0740740740741
 20
-4189.814814814815
 10
1574.0740740740741
 20
-4178.240740740741
 10
1585.6481481481483
 20
-4166.666666666667
 10
1597.2222222222222
 20
-4155.092592592593
 10
1608.7962962962963
 20
-4143.518518518518
 10
1608.7962962962963
 20
-4131.944444444444
 10
1620.3703703703704
 20
-4120.37037037037
 10
1631.9444444444446
 20
-4108.7962962962965
 10
1643.5185185185185
 20
-4097.222222222223
 10
1655.0925925925926
 20
-4097.222222222223
 10
1666.6666666666667
 20
-4085.6481481481483
 10
1678.2407407407409
 20
-4074.0740740740744
 10
1689.8148148148148
 20
-4062.5
 10
1701.388888888889
 20
-4050.925925925926
 10
1689.8148148148148
 20
-4039.351851851852
 10
1701.388888888889
 20
-4027.777777777778
 10
1712.962962962963
 20
-4016.203703703704
 10
1724.5370370370372
 20
-4016.203703703704
 10
1724.5370370370372
 20
-4004.6296296296296
 10
1736.111111111111
 20
-3993.0555555555557
 10
1747.6851851851852
 20
-3981.4814814814818
 10
1759.2592592592594
 20
-3969.9074074074074
 10
1770.8333333333335
 20
-3981.4814814814818
 10
1759.2592592592594
 20
-3969.9074074074074
 10
1770.8333333333335
 20
-3958.3333333333335
 10
1782.4074074074074
 20
-3946.7592592592596
 10
1793.9814814814815
 20
-3946.7592592592596
 10
1805.5555555555557
 20
-3946.7592592592596
 10
1817.1296296296298
 20
-3935.185185185185
 10
1828.7037037037037
 20
-3935.185185185185
 10
1840.2777777777778
 20
-3923.6111111111113
 10
1851.851851851852
 20
-3923.6111111111113
 10
1863.4259259259259
 20
-3912.037037037037
 10
1875.0
 20
-3912.037037037037
 10
1886.5740740740741
 20
-3912.037037037037
 10
1898.1481481481483
 20
-3923.6111111111113
 10
1909.7222222222222
 20
-3912.037037037037
 10
1921.2962962962963
 20
-3912.037037037037
 10
1932.8703703703704
 20
-3900.462962962963
 10
1944.4444444444446
 20
-3912.037037037037
 10
1956.0185185185185
 20
-3900.462962962963
 10
1967.5925925925926
 20
-3888.888888888889
 10
1979.1666666666667
 20
-3900.462962962963
 10
1990.7407407407409
 20
-3900.462962962963
 10
2002.3148148148148
 20
-3900.462962962963
 10
2013.888888888889
 20
-3900.462962962963
 10
2025.462962962963
 20
-3888.888888888889
 10
2037.0370370370372
 20
-3888.888888888889
 10
2048.6111111111113
 20
-3888.888888888889
 10
2060.185185185185
 20
-3888.888888888889
  0
LWPOLYLINE
  5
34
330
17
100
AcDbEntity
  8
conductor
100
AcDbPolyline
 90
5
 70
1
 43
0.5
 10
2094.9074074074074
 20
-4641.2037037037035
 10
2094.9074074074074
 20
-4652.777777777778
 10
2083.3333333333335
 20
-4664.351851851852
 10
2094.9074074074074
 20
-4664.351851851852
 10
2094.9074074074074
 20
-4652.777777777778
  0
LWPOLYLINE
  5
35
330
17
100
AcDbEntity
  8
conductor
100
AcDbPolyline
 90
6
 70
1
 43
0.5
 10
1805.5555555555557
 20
-3969.9074074074074
 10
1793.9814814814815
 20
-3981.4814814814818
 10
1805.5555555555557
 20
-3993.0555555555557
 10
1817.1296296296298
 20
-3993.0555555555557
 10
1817.1296296296298
 20
-3981.4814814814818
 10
1817.1296296296298
 20
-3969.9074074074074
  0
LWPOLYLINE
  5
36
330
17
100
AcDbEntity
  8
conductor
100
AcDbPolyline
 90
4
 70
1
 43
0.5
 10
2025.462962962963
 20
-3877.314814814815
 10
2037.0370370370372
 20
-3865.740740740741
 10
2048.6111111111113
 20
-3877.314814814815
 10
2037.0370370370372
 20
-3888.888888888889
  0
LWPOLYLINE
  5
37
330
17
100
AcDbEntity
  8
conductor
100
AcDbPolyline
 90
4
 70
1
 43
0.5
 10
2384.259259259259
 20
-3055.5555555555557
 10
2395.8333333333335
 20
-3043.9814814814818
 10
2407.4074074074074
 20
-3055.5555555555557
 10
2395.8333333333335
 20
-3067.1296296296296
  0
LWPOLYLINE
  5
38
330
17
100
AcDbEntity
  8
conductor
100
AcDbPolyline
 90
25
 70
1
 43
0.5
 10
567.1296296296297
 20
-1018.5185185185186
 10
578.7037037037037
 20
-1006.9444444444445
 10
590.2777777777778
 20
-1018.5185185185186
 10
590.2777777777778
 20
-1030.0925925925926
 10
590.2777777777778
 20
-1041.6666666666667
 10
590.2777777777778
 20
-1053.2407407407409
 10
601.8518518518518
 20
-1064.8148148148148
 10
601.8518518518518
 20
-1076.388888888889
 10
601.8518518518518
 20
-1087.962962962963
 10
601.8518518518518
 20
-1099.5370370370372
 10
601.8518518518518
 20
-1111.111111111111
 10
613.425925925926
 20
-1122.6851851851852
 10
613.425925925926
 20
-1134.2592592592594
 10
601.8518518518518
 20
-1145.8333333333333
 10
590.2777777777778
 20
-1145.8333333333333
 10
578.7037037037037
 20
-1134.2592592592594
 10
567.1296296296297
 20
-1122.6851851851852
 10
567.1296296296297
 20
-1111.111111111111
 10
567.1296296296297
 20
-1099.5370370370372
 10
567.1296296296297
 20
-1087.962962962963
 10
567.1296296296297
 20
-1076.388888888889
 10
567.1296296296297
 20
-1064.8148148148148
 10
567.1296296296297
 20
-1053.2407407407409
 10
567.1296296296297
 20
-1041.6666666666667
 10
567.1296296296297
 20
-1030.0925925925926
  0
LWPOLYLINE
  5
39
330
17
100
AcDbEntity
  8
conductor
100
AcDbPolyline
 90
9
 70
1
 43
0.5
 10
543.9814814814815
 20
-937.5
 10
555.5555555555555
 20
-925.925925925926
 10
567.1296296296297
 20
-925.925925925926
 10
578.7037037037037
 20
-937.5
 10
578.7037037037037
 20
-949.0740740740741
 10
578.7037037037037
 20
-960.6481481481482
 10
567.1296296296297
 20
-972.2222222222223
 10
555.5555555555555
 20
-960.6481481481482
 10
543.9814814814815
 20
-949.0740740740741
  0
LWPOLYLINE
  5
3A
330
17
100
AcDbEntity
  8
conductor
100
AcDbPolyline
 90
7
 70
1
 43
0.5
 10
1828.7037037037037
 20
-717.5925925925926
 10
1840.2777777777778
 20
-706.0185185185186
 10
1851.851851851852
 20
-717.5925925925926
 10
1851.851851851852
 20
-729.1666666666667
 10
1840.2777777777778
 20
-740.7407407407408
 10
1828.7037037037037
 20
-740.7407407407408
 10
1817.1296296296298
 20
-729.1666666666667
  0
LWPOLYLINE
  5
3B
330
17
100
AcDbEntity
  8
conductor
100
AcDbPolyline
 90
4
 70
1
 43
0.5
 10
1851.851851851852
 20
-694.4444444444445
 10
1863.4259259259259
 20
-682.8703703703704
 10
1875.0
 20
-694.4444444444445
 10
1863.4259259259259
 20
-706.0185185185186
  0
LWPOLYLINE
  5
3C
330
17
100
AcDbEntity
  8
conductor
100
AcDbPolyline
 90
7
 70
1
 43
0.5
 10
2071.759259259259
 20
-578.7037037037037
 10
2083.3333333333335
 20
-567.1296296296297
 10
2094.9074074074074
 20
-578.7037037037037
 10
2094.9074074074074
 20
-590.2777777777778
 10
2083.3333333333335
 20
-601.8518518518518
 10
2071.759259259259
 20
-601.8518518518518
 10
2060.185185185185
 20
-590.2777777777778
  0
LWPOLYLINE
  5
3D
330
17
100
AcDbEntity
  8
conductor
100
AcDbPolyline
 90
4
 70
1
 43
0.5
 10
2164.3518518518517
 20
-567.1296296296297
 10
2175.925925925926
 20
-555.5555555555555
 10
2187.5
 20
-567.1296296296297
 10
2175.925925925926
 20
-578.7037037037037
  0
LWPOLYLINE
  5
3E
330
17
100
AcDbEntity
  8
conductor
100
AcDbPolyline
 90
858
 70
1
 43
0.5
 10
2280.0925925925926
 20
-555.5555555555555
 10
2291.6666666666665
 20
-543.9814814814815
 10
2303.240740740741
 20
-543.9814814814815
 10
2314.814814814815
 20
-543.9814814814815
 10
2326.388888888889
 20
-555.5555555555555
 10
2337.962962962963
 20
-555.5555555555555
 10
2349.537037037037
 20
-555.5555555555555
 10
2361.1111111111113
 20
-555.5555555555555
 10
2372.685185185185
 20
-555.5555555555555
 10
2384.259259259259
 20
-555.5555555555555
 10
2395.8333333333335
 20
-555.5555555555555
 10
2407.4074074074074
 20
-555.5555555555555
 10
2418.9814814814818
 20
-555.5555555555555
 10
2430.5555555555557
 20
-555.5555555555555
 10
2442.1296296296296
 20
-555.5555555555555
 10
2453.703703703704
 20
-555.5555555555555
 10
2465.277777777778
 20
-555.5555555555555
 10
2476.8518518518517
 20
-555.5555555555555
 10
2488.425925925926
 20
-555.5555555555555
 10
2500.0
 20
-555.5555555555555
 10
2511.5740740740744
 20
-555.5555555555555
 10
2523.1481481481483
 20
-567.1296296296297
 10
2534.722222222222
 20
-567.1296296296297
 10
2546.2962962962965
 20
-567.1296296296297
 10
2557.8703703703704
 20
-567.1296296296297
 10
2569.4444444444443
 20
-567.1296296296297
 10
2581.0185185185187
 20
-567.1296296296297
 10
2592.5925925925926
 20
-567.1296296296297
 10
2604.1666666666665
 20
-567.1296296296297
 10
2615.740740740741
 20
-578.7037037037037
 10
2627.314814814815
 20
-578.7037037037037
 10
2627.314814814815
 20
-567.1296296296297
 10
2638.888888888889
 20
-555.5555555555555
 10
2650.462962962963
 20
-567.1296296296297
 10
2662.037037037037
 20
-567.1296296296297
 10
2673.6111111111113
 20
-567.1296296296297
 10
2685.185185185185
 20
-555.5555555555555
 10
2696.759259259259
 20
-555.5555555555555
 10
2708.3333333333335
 20
-555.5555555555555
 10
2719.9074074074074
 20
-567.1296296296297
 10
2719.9074074074074
 20
-578.7037037037037
 10
2731.4814814814818
 20
-578.7037037037037
 10
2743.0555555555557
 20
-578.7037037037037
 10
2754.6296296296296
 20
-578.7037037037037
 10
2766.203703703704
 20
-590.2777777777778
 10
2766.203703703704
 20
-578.7037037037037
 10
2777.777777777778
 20
-567.1296296296297
 10
2789.3518518518517
 20
-555.5555555555555
 10
2800.925925925926
 20
-567.1296296296297
 10
2812.5
 20
-578.7037037037037
 10
2824.0740740740744
 20
-578.7037037037037
 10
2835.6481481481483
 20
-590.2777777777778
 10
2847.222222222222
 20
-601.8518518518518
 10
2858.7962962962965
 20
-601.8518518518518
 10
2870.3703703703704
 20
-613.425925925926
 10
2881.9444444444443
 20
-613.425925925926
 10
2893.5185185185187
 20
-625.0
 10
2905.0925925925926
 20
-636.5740740740741
 10
2916.666666666667
 20
-648.1481481481482
 10
2928.240740740741
 20
-659.7222222222223
 10
2939.814814814815
 20
-659.7222222222223
 10
2951.388888888889
 20
-671.2962962962963
 10
2951.388888888889
 20
-682.8703703703704
 10
2962.962962962963
 20
-694.4444444444445
 10
2974.537037037037
 20
-706.0185185185186
 10
2986.1111111111113
 20
-706.0185185185186
 10
2997.685185185185
 20
-706.0185185185186
 10
3009.259259259259
 20
-717.5925925925926
 10
3020.8333333333335
 20
-729.1666666666667
 10
3032.4074074074074
 20
-729.1666666666667
 10
3043.9814814814818
 20
-740.7407407407408
 10
3055.5555555555557
 20
-752.3148148148148
 10
3067.1296296296296
 20
-752.3148148148148
 10
3078.703703703704
 20
-763.8888888888889
 10
3090.277777777778
 20
-763.8888888888889
 10
3101.8518518518517
 20
-775.4629629629629
 10
3101.8518518518517
 20
-787.0370370370371
 10
3113.425925925926
 20
-798.6111111111111
 10
3125.0
 20
-810.1851851851852
 10
3136.5740740740744
 20
-810.1851851851852
 10
3148.1481481481483
 20
-821.7592592592592
 10
3159.722222222222
 20
-833.3333333333334
 10
3171.2962962962965
 20
-844.9074074074074
 10
3171.2962962962965
 20
-856.4814814814815
 10
3182.8703703703704
 20
-868.0555555555555
 10
3194.4444444444443
 20
-868.0555555555555
 10
3206.0185185185187
 20
-879.6296296296297
 10
3217.5925925925926
 20
-891.2037037037037
 10
3229.166666666667
 20
-902.7777777777778
 10
3240.740740740741
 20
-914.3518518518518
 10
3252.314814814815
 20
-925.925925925926
 10
3263.888888888889
 20
-937.5
 10
3275.462962962963
 20
-949.0740740740741
 10
3287.037037037037
 20
-960.6481481481482
 10
3298.6111111111113
 20
-972.2222222222223
 10
3310.185185185185
 20
-983.7962962962963
 10
3321.7592592592596
 20
-995.3703703703704
 10
3321.7592592592596
 20
-1006.9444444444445
 10
3333.3333333333335
 20
-1018.5185185185186
 10
3344.9074074074074
 20
-1030.0925925925926
 10
3356.4814814814818
 20
-1041.6666666666667
 10
3368.0555555555557
 20
-1053.2407407407409
 10
3379.6296296296296
 20
-1064.8148148148148
 10
3391.203703703704
 20
-1076.388888888889
 10
3402.777777777778
 20
-1087.962962962963
 10
3402.777777777778
 20
-1099.5370370370372
 10
3414.3518518518517
 20
-1111.111111111111
 10
3414.3518518518517
 20
-1122.6851851851852
 10
3414.3518518518517
 20
-1134.2592592592594
 10
3425.925925925926
 20
-1145.8333333333333
 10
3425.925925925926
 20
-1157.4074074074074
 10
3437.5
 20
-1168.9814814814815
 10
3437.5
 20
-1180.5555555555557
 10
3449.0740740740744
 20
-1192.1296296296296
 10
3449.0740740740744
 20
-1203.7037037037037
 10
3460.6481481481483
 20
-1215.2777777777778
 10
3460.6481481481483
 20
-1226.851851851852
 10
3472.222222222222
 20
-1238.4259259259259
 10
3472.222222222222
 20
-1250.0
 10
3483.7962962962965
 20
-1261.5740740740741
 10
3495.3703703703704
 20
-1273.1481481481483
 10
3495.3703703703704
 20
-1284.7222222222222
 10
3495.3703703703704
 20
-1296.2962962962963
 10
3495.3703703703704
 20
-1307.8703703703704
 10
3495.3703703703704
 20
-1319.4444444444446
 10
3495.3703703703704
 20
-1331.0185185185185
 10
3506.9444444444443
 20
-1342.5925925925926
 10
3495.3703703703704
 20
-1354.1666666666667
 10
3495.3703703703704
 20
-1365.7407407407409
 10
3495.3703703703704
 20
-1377.3148148148148
 10
3506.9444444444443
 20
-1388.888888888889
 10
3506.9444444444443
 20
-1400.462962962963
 10
3506.9444444444443
 20
-1412.0370370370372
 10
3506.9444444444443
 20
-1423.611111111111
 10
3506.9444444444443
 20
-1435.1851851851852
 10
3506.9444444444443
 20
-1446.7592592592594
 10
3506.9444444444443
 20
-1458.3333333333335
 10
3518.5185185185187
 20
-1469.9074074074074
 10
3518.5185185185187
 20
-1481.4814814814815
 10
3530.0925925925926
 20
-1493.0555555555557
 10
3530.0925925925926
 20
-1504.6296296296296
 10
3530.0925925925926
 20
-1516.2037037037037
 10
3530.0925925925926
 20
-1527.7777777777778
 10
3530.0925925925926
 20
-1539.351851851852
 10
3530.0925925925926
 20
-1550.9259259259259
 10
3530.0925925925926
 20
-1562.5
 10
3530.0925925925926
 20
-1574.0740740740741
 10
3530.0925925925926
 20
-1585.6481481481483
 10
3530.0925925925926
 20
-1597.2222222222222
 10
3530.0925925925926
 20
-1608.7962962962963
 10
3530.0925925925926
 20
-1620.3703703703704
 10
3530.0925925925926
 20
-1631.9444444444446
 10
3530.0925925925926
 20
-1643.5185185185185
 10
3530.0925925925926
 20
-1655.0925925925926
 10
3530.0925925925926
 20
-1666.6666666666667
 10
3530.0925925925926
 20
-1678.2407407407409
 10
3530.0925925925926
 20
-1689.8148148148148
 10
3530.0925925925926
 20
-1701.388888888889
 10
3530.0925925925926
 20
-1712.962962962963
 10
3530.0925925925926
 20
-1724.5370370370372
 10
3518.5185185185187
 20
-1736.111111111111
 10
3518.5185185185187
 20
-1747.6851851851852
 10
3518.5185185185187
 20
-1759.2592592592594
 10
3518.5185185185187
 20
-1770.8333333333335
 10
3506.9444444444443
 20
-1782.4074074074074
 10
3506.9444444444443
 20
-1793.9814814814815
 10
3506.9444444444443
 20
-1805.5555555555557
 10
3506.9444444444443
 20
-1817.1296296296298
 10
3495.3703703703704
 20
-1828.7037037037037
 10
3495.3703703703704
 20
-1840.2777777777778
 10
3495.3703703703704
 20
-1851.851851851852
 10
3483.7962962962965
 20
-1863.4259259259259
 10
3472.222222222222
 20
-1875.0
 10
3472.222222222222
 20
-1886.5740740740741
 10
3472.222222222222
 20
-1898.1481481481483
 10
3460.6481481481483
 20
-1909.7222222222222
 10
3460.6481481481483
 20
-1921.2962962962963
 10
3449.0740740740744
 20
-1932.8703703703704
 10
3449.0740740740744
 20
-1944.4444444444446
 10
3437.5
 20
-1956.0185185185185
 10
3437.5
 20
-1967.5925925925926
 10
3425.925925925926
 20
-1979.1666666666667
 10
3425.925925925926
 20
-1990.7407407407409
 10
3414.3518518518517
 20
-2002.3148148148148
 10
3414.3518518518517
 20
-2013.888888888889
 10
3414.3518518518517
 20
-2025.462962962963
 10
3414.3518518518517
 20
-2037.0370370370372
 10
3402.777777777778
 20
-2048.6111111111113
 10
3391.203703703704
 20
-2060.185185185185
 10
3379.6296296296296
 20
-2071.759259259259
 10
3379.6296296296296
 20
-2083.3333333333335
 10
3368.0555555555557
 20
-2094.9074074074074
 10
3356.4814814814818
 20
-2106.4814814814818
 10
3356.4814814814818
 20
-2118.0555555555557
 10
3356.4814814814818
 20
-2129.6296296296296
 10
3344.9074074074074
 20
-2141.203703703704
 10
3344.9074074074074
 20
-2152.777777777778
 10
3333.3333333333335
 20
-2164.3518518518517
 10
3321.7592592592596
 20
-2164.3518518518517
 10
3310.185185185185
 20
-2175.925925925926
 10
3298.6111111111113
 20
-2187.5
 10
3298.6111111111113
 20
-2199.0740740740744
 10
3287.037037037037
 20
-2210.6481481481483
 10
3275.462962962963
 20
-2222.222222222222
 10
3263.888888888889
 20
-2233.7962962962965
 10
3252.314814814815
 20
-2245.3703703703704
 10
3240.740740740741
 20
-2256.9444444444443
 10
3229.166666666667
 20
-2268.5185185185187
 10
3217.5925925925926
 20
-2280.0925925925926
 10
3206.0185185185187
 20
-2291.6666666666665
 10
3194.4444444444443
 20
-2291.6666666666665
 10
3206.0185185185187
 20
-2303.240740740741
 10
3194.4444444444443
 20
-2314.814814814815
 10
3194.4444444444443
 20
-2326.388888888889
 10
3182.8703703703704
 20
-2337.962962962963
 10
3171.2962962962965
 20
-2337.962962962963
 10
3171.2962962962965
 20
-2349.537037037037
 10
3159.722222222222
 20
-2361.1111111111113
 10
3148.1481481481483
 20
-2372.685185185185
 10
3136.5740740740744
 20
-2361.1111111111113
 10
3125.0
 20
-2372.685185185185
 10
3113.425925925926
 20
-2384.259259259259
 10
3101.8518518518517
 20
-2395.8333333333335
 10
3090.277777777778
 20
-2407.4074074074074
 10
3078.703703703704
 20
-2418.9814814814818
 10
3067.1296296296296
 20
-2430.5555555555557
 10
3055.5555555555557
 20
-2442.1296296296296
 10
3043.9814814814818
 20
-2453.703703703704
 10
3032.4074074074074
 20
-2465.277777777778
 10
3020.8333333333335
 20
-2476.8518518518517
 10
3009.259259259259
 20
-2488.425925925926
 10
2997.685185185185
 20
-2500.0
 10
2997.685185185185
 20
-2511.5740740740744
 10
2986.1111111111113
 20
-2523.1481481481483
 10
2974.537037037037
 20
-2523.1481481481483
 10
2962.962962962963
 20
-2534.722222222222
 10
2951.388888888889
 20
-2546.2962962962965
 10
2939.814814814815
 20
-2546.2962962962965
 10
2928.240740740741
 20
-2557.8703703703704
 10
2916.666666666667
 20
-2569.4444444444443
 10
2905.0925925925926
 20
-2581.0185185185187
 10
2893.5185185185187
 20
-2592.5925925925926
 10
2881.9444444444443
 20
-2604.1666666666665
 10
2870.3703703703704
 20
-2604.1666666666665
 10
2858.7962962962965
 20
-2615.740740740741
 10
2847.222222222222
 20
-2627.314814814815
 10
2835.6481481481483
 20
-2627.314814814815
 10
2824.0740740740744
 20
-2638.888888888889
 10
2812.5
 20
-2650.462962962963
 10
2800.925925925926
 20
-2662.037037037037
 10
2789.3518518518517
 20
-2673.6111111111113
 10
2777.777777777778
 20
-2685.185185185185
 10
2766.203703703704
 20
-2685.185185185185
 10
2754.6296296296296
 20
-2696.759259259259
 10
2743.0555555555557
 20
-2708.3333333333335
 10
2743.0555555555557
 20
-2719.9074074074074
 10
2731.4814814814818
 20
-2731.4814814814818
 10
2719.9074074074074
 20
-2743.0555555555557
 10
2708.3333333333335
 20
-2754.6296296296296
 10
2696.759259259259
 20
-2754.6296296296296
 10
2685.185185185185
 20
-2766.203703703704
 10
2673.6111111111113
 20
-2777.777777777778
 10
2662.037037037037
 20
-2789.3518518518517
 10
2662.037037037037
 20
-2800.925925925926
 10
2650.462962962963
 20
-2812.5
 10
2638.888888888889
 20
-2824.0740740740744
 10
2627.314814814815
 20
-2835.6481481481483
 10
2615.740740740741
 20
-2847.222222222222
 10
2604.1666666666665
 20
-2858.7962962962965
 10
2592.5925925925926
 20
-2870.3703703703704
 10
2581.0185185185187
 20
-2881.9444444444443
 10
2569.4444444444443
 20
-2881.9444444444443
 10
2557.8703703703704
 20
-2893.5185185185187
 10
2546.2962962962965
 20
-2905.0925925925926
 10
2534.722222222222
 20
-2916.666666666667
 10
2523.1481481481483
 20
-2928.240740740741
 10
2511.5740740740744
 20
-2928.240740740741
 10
2500.0
 20
-2939.814814814815
 10
2488.425925925926
 20
-2951.388888888889
 10
2476.8518518518517
 20
-2951.388888888889
 10
2465.277777777778
 20
-2962.962962962963
 10
2453.703703703704
 20
-2962.962962962963
 10
2442.1296296296296
 20
-2974.537037037037
 10
2430.5555555555557
 20
-2986.1111111111113
 10
2418.9814814814818
 20
-2997.685185185185
 10
2418.9814814814818
 20
-3009.259259259259
 10
2407.4074074074074
 20
-3020.8333333333335
 10
2395.8333333333335
 20
-3032.4074074074074
 10
2395.8333333333335
 20
-3043.9814814814818
 10
2384.259259259259
 20
-3055.5555555555557
 10
2384.259259259259
 20
-3067.1296296296296
 10
2384.259259259259
 20
-3078.703703703704
 10
2384.259259259259
 20
-3090.277777777778
 10
2384.259259259259
 20
-3101.8518518518517
 10
2384.259259259259
 20
-3113.425925925926
 10
2372.685185185185
 20
-3125.0
 10
2372.685185185185
 20
-3136.5740740740744
 10
2372.685185185185
 20
-3148.1481481481483
 10
2384.259259259259
 20
-3159.722222222222
 10
2395.8333333333335
 20
-3159.722222222222
 10
2407.4074074074074
 20
-3171.2962962962965
 10
2407.4074074074074
 20
-3182.8703703703704
 10
2395.8333333333335
 20
-3194.4444444444443
 10
2384.259259259259
 20
-3206.0185185185187
 10
2384.259259259259
 20
-3217.5925925925926
 10
2395.8333333333335
 20
-3229.166666666667
 10
2395.8333333333335
 20
-3240.740740740741
 10
2384.259259259259
 20
-3252.314814814815
 10
2372.685185185185
 20
-3263.888888888889
 10
2372.685185185185
 20
-3275.462962962963
 10
2372.685185185185
 20
-3287.037037037037
 10
2361.1111111111113
 20
-3298.6111111111113
 10
2361.1111111111113
 20
-3310.185185185185
 10
2372.685185185185
 20
-3321.7592592592596
 10
2372.685185185185
 20
-3333.3333333333335
 10
2361.1111111111113
 20
-3344.9074074074074
 10
2361.1111111111113
 20
-3356.4814814814818
 10
2361.1111111111113
 20
-3368.0555555555557
 10
2349.537037037037
 20
-3379.6296296296296
 10
2349.537037037037
 20
-3391.203703703704
 10
2349.537037037037
 20
-3402.777777777778
 10
2337.962962962963
 20
-3414.3518518518517
 10
2337.962962962963
 20
-3425.925925925926
 10
2326.388888888889
 20
-3437.5
 10
2326.388888888889
 20
-3449.0740740740744
 10
2314.814814814815
 20
-3460.6481481481483
 10
2314.814814814815
 20
-3472.222222222222
 10
2314.814814814815
 20
-3483.7962962962965
 10
2303.240740740741
 20
-3495.3703703703704
 10
2303.240740740741
 20
-3506.9444444444443
 10
2291.6666666666665
 20
-3518.5185185185187
 10
2280.0925925925926
 20
-3530.0925925925926
 10
2268.5185185185187
 20
-3541.666666666667
 10
2256.9444444444443
 20
-3553.240740740741
 10
2245.3703703703704
 20
-3553.240740740741
 10
2233.7962962962965
 20
-3564.814814814815
 10
2222.222222222222
 20
-3576.388888888889
 10
2210.6481481481483
 20
-3587.962962962963
 10
2199.0740740740744
 20
-3599.537037037037
 10
2187.5
 20
-3599.537037037037
 10
2175.925925925926
 20
-3599.537037037037
 10
2164.3518518518517
 20
-3611.1111111111113
 10
2152.777777777778
 20
-3611.1111111111113
 10
2141.203703703704
 20
-3611.1111111111113
 10
2129.6296296296296
 20
-3622.685185185185
 10
2118.0555555555557
 20
-3622.685185185185
 10
2106.4814814814818
 20
-3622.685185185185
 10
2094.9074074074074
 20
-3634.2592592592596
 10
2083.3333333333335
 20
-3634.2592592592596
 10
2071.759259259259
 20
-3645.8333333333335
 10
2060.185185185185
 20
-3645.8333333333335
 10
2048.6111111111113
 20
-3657.4074074074074
 10
2037.0370370370372
 20
-3657.4074074074074
 10
2025.462962962963
 20
-3657.4074074074074
 10
2013.888888888889
 20
-3657.4074074074074
 10
2002.3148148148148
 20
-3657.4074074074074
 10
1990.7407407407409
 20
-3657.4074074074074
 10
1979.1666666666667
 20
-3657.4074074074074
 10
1967.5925925925926
 20
-3657.4074074074074
 10
1956.0185185185185
 20
-3657.4074074074074
 10
1944.4444444444446
 20
-3657.4074074074074
 10
1932.8703703703704
 20
-3657.4074074074074
 10
1921.2962962962963
 20
-3657.4074074074074
 10
1909.7222222222222
 20
-3657.4074074074074
 10
1898.1481481481483
 20
-3645.8333333333335
 10
1886.5740740740741
 20
-3645.8333333333335
 10
1875.0
 20
-3634.2592592592596
 10
1863.4259259259259
 20
-3622.685185185185
 10
1851.851851851852
 20
-3622.685185185185
 10
1840.2777777777778
 20
-3622.685185185185
 10
1828.7037037037037
 20
-3622.685185185185
 10
1817.1296296296298
 20
-3611.1111111111113
 10
1817.1296296296298
 20
-3599.537037037037
 10
1805.5555555555557
 20
-3587.962962962963
 10
1793.9814814814815
 20
-3587.962962962963
 10
1782.4074074074074
 20
-3576.388888888889
 10
1770.8333333333335
 20
-3576.388888888889
 10
1759.2592592592594
 20
-3576.388888888889
 10
1747.6851851851852
 20
-3564.814814814815
 10
1736.111111111111
 20
-3576.388888888889
 10
1724.5370370370372
 20
-3564.814814814815
 10
1724.5370370370372
 20
-3553.240740740741
 10
1712.962962962963
 20
-3541.666666666667
 10
1712.962962962963
 20
-3530.0925925925926
 10
1712.962962962963
 20
-3518.5185185185187
 10
1701.388888888889
 20
-3518.5185185185187
 10
1689.8148148148148
 20
-3518.5185185185187
 10
1678.2407407407409
 20
-3506.9444444444443
 10
1678.2407407407409
 20
-3495.3703703703704
 10
1666.6666666666667
 20
-3483.7962962962965
 10
1655.0925925925926
 20
-3472.222222222222
 10
1655.0925925925926
 20
-3460.6481481481483
 10
1655.0925925925926
 20
-3449.0740740740744
 10
1666.6666666666667
 20
-3437.5
 10
1666.6666666666667
 20
-3425.925925925926
 10
1655.0925925925926
 20
-3414.3518518518517
 10
1643.5185185185185
 20
-3414.3518518518517
 10
1631.9444444444446
 20
-3402.777777777778
 10
1631.9444444444446
 20
-3391.203703703704
 10
1631.9444444444446
 20
-3379.6296296296296
 10
1631.9444444444446
 20
-3368.0555555555557
 10
1631.9444444444446
 20
-3356.4814814814818
 10
1631.9444444444446
 20
-3344.9074074074074
 10
1631.9444444444446
 20
-3333.3333333333335
 10
1631.9444444444446
 20
-3321.7592592592596
 10
1620.3703703703704
 20
-3310.185185185185
 10
1620.3703703703704
 20
-3298.6111111111113
 10
1620.3703703703704
 20
-3287.037037037037
 10
1620.3703703703704
 20
-3275.462962962963
 10
1620.3703703703704
 20
-3263.888888888889
 10
1620.3703703703704
 20
-3252.314814814815
 10
1620.3703703703704
 20
-3240.740740740741
 10
1620.3703703703704
 20
-3229.166666666667
 10
1620.3703703703704
 20
-3217.5925925925926
 10
1620.3703703703704
 20
-3206.0185185185187
 10
1620.3703703703704
 20
-3194.4444444444443
 10
1631.9444444444446
 20
-3182.8703703703704
 10
1620.3703703703704
 20
-3171.2962962962965
 10
1620.3703703703704
 20
-3159.722222222222
 10
1620.3703703703704
 20
-3148.1481481481483
 10
1631.9444444444446
 20
-3136.5740740740744
 10
1631.9444444444446
 20
-3125.0
 10
1631.9444444444446
 20
-3113.425925925926
 10
1620.3703703703704
 20
-3101.8518518518517
 10
1631.9444444444446
 20
-3090.277777777778
 10
1631.9444444444446
 20
-3078.703703703704
 10
1631.9444444444446
 20
-3067.1296296296296
 10
1631.9444444444446
 20
-3055.5555555555557
 10
1631.9444444444446
 20
-3043.9814814814818
 10
1631.9444444444446
 20
-3032.4074074074074
 10
1631.9444444444446
 20
-3020.8333333333335
 10
1643.5185185185185
 20
-3009.259259259259
 10
1655.0925925925926
 20
-2997.685185185185
 10
1655.0925925925926
 20
-2986.1111111111113
 10
1655.0925925925926
 20
-2974.537037037037
 10
1655.0925925925926
 20
-2962.962962962963
 10
1655.0925925925926
 20
-2951.388888888889
 10
1666.6666666666667
 20
-2939.814814814815
 10
1666.6666666666667
 20
-2928.240740740741
 10
1666.6666666666667
 20
-2916.666666666667
 10
1678.2407407407409
 20
-2905.0925925925926
 10
1678.2407407407409
 20
-2893.5185185185187
 10
1689.8148148148148
 20
-2881.9444444444443
 10
1701.388888888889
 20
-2893.5185185185187
 10
1701.388888888889
 20
-2905.0925925925926
 10
1712.962962962963
 20
-2905.0925925925926
 10
1712.962962962963
 20
-2893.5185185185187
 10
1712.962962962963
 20
-2881.9444444444443
 10
1712.962962962963
 20
-2870.3703703703704
 10
1712.962962962963
 20
-2858.7962962962965
 10
1712.962962962963
 20
-2847.222222222222
 10
1724.5370370370372
 20
-2835.6481481481483
 10
1736.111111111111
 20
-2835.6481481481483
 10
1747.6851851851852
 20
-2847.222222222222
 10
1759.2592592592594
 20
-2847.222222222222
 10
1747.6851851851852
 20
-2835.6481481481483
 10
1759.2592592592594
 20
-2824.0740740740744
 10
1770.8333333333335
 20
-2812.5
 10
1782.4074074074074
 20
-2824.0740740740744
 10
1793.9814814814815
 20
-2812.5
 10
1793.9814814814815
 20
-2800.925925925926
 10
1805.5555555555557
 20
-2789.3518518518517
 10
1805.5555555555557
 20
-2777.777777777778
 10
1817.1296296296298
 20
-2766.203703703704
 10
1817.1296296296298
 20
-2754.6296296296296
 10
1828.7037037037037
 20
-2743.0555555555557
 10
1828.7037037037037
 20
-2731.4814814814818
 10
1840.2777777777778
 20
-2719.9074074074074
 10
1840.2777777777778
 20
-2708.3333333333335
 10
1851.851851851852
 20
-2696.759259259259
 10
1863.4259259259259
 20
-2685.185185185185
 10
1863.4259259259259
 20
-2673.6111111111113
 10
1863.4259259259259
 20
-2662.037037037037
 10
1875.0
 20
-2650.462962962963
 10
1886.5740740740741
 20
-2638.888888888889
 10
1898.1481481481483
 20
-2627.314814814815
 10
1898.1481481481483
 20
-2615.740740740741
 10
1909.7222222222222
 20
-2604.1666666666665
 10
1921.2962962962963
 20
-2592.5925925925926
 10
1921.2962962962963
 20
-2581.0185185185187
 10
1932.8703703703704
 20
-2569.4444444444443
 10
1932.8703703703704
 20
-2557.8703703703704
 10
1932.8703703703704
 20
-2546.2962962962965
 10
1944.4444444444446
 20
-2534.722222222222
 10
1956.0185185185185
 20
-2523.1481481481483
 10
1967.5925925925926
 20
-2511.5740740740744
 10
1979.1666666666667
 20
-2500.0
 10
1990.7407407407409
 20
-2500.0
 10
2002.3148148148148
 20
-2488.425925925926
 10
2013.888888888889
 20
-2488.425925925926
 10
2025.462962962963
 20
-2476.8518518518517
 10
2037.0370370370372
 20
-2465.277777777778
 10
2048.6111111111113
 20
-2465.277777777778
 10
2060.185185185185
 20
-2453.703703703704
 10
2071.759259259259
 20
-2442.1296296296296
 10
2083.3333333333335
 20
-2442.1296296296296
 10
2094.9074074074074
 20
-2430.5555555555557
 10
2106.4814814814818
 20
-2418.9814814814818
 10
2118.0555555555557
 20
-2407.4074074074074
 10
2129.6296296296296
 20
-2395.8333333333335
 10
2141.203703703704
 20
-2384.259259259259
 10
2152.777777777778
 20
-2384.259259259259
 10
2164.3518518518517
 20
-2372.685185185185
 10
2175.925925925926
 20
-2361.1111111111113
 10
2187.5
 20
-2361.1111111111113
 10
2199.0740740740744
 20
-2349.537037037037
 10
2210.6481481481483
 20
-2349.537037037037
 10
2222.222222222222
 20
-2337.962962962963
 10
2233.7962962962965
 20
-2337.962962962963
 10
2245.3703703703704
 20
-2337.962962962963
 10
2256.9444444444443
 20
-2326.388888888889
 10
2268.5185185185187
 20
-2314.814814814815
 10
2280.0925925925926
 20
-2314.814814814815
 10
2291.6666666666665
 20
-2303.240740740741
 10
2303.240740740741
 20
-2303.240740740741
 10
2314.814814814815
 20
-2291.6666666666665
 10
2326.388888888889
 20
-2291.6666666666665
 10
2337.962962962963
 20
-2280.0925925925926
 10
2349.537037037037
 20
-2280.0925925925926
 10
2361.1111111111113
 20
-2268.5185185185187
 10
2372.685185185185
 20
-2256.9444444444443
 10
2384.259259259259
 20
-2256.9444444444443
 10
2395.8333333333335
 20
-2245.3703703703704
 10
2407.4074074074074
 20
-2245.3703703703704
 10
2418.9814814814818
 20
-2233.7962962962965
 10
2430.5555555555557
 20
-2222.222222222222
 10
2442.1296296296296
 20
-2222.222222222222
 10
2453.703703703704
 20
-2210.6481481481483
 10
2465.277777777778
 20
-2199.0740740740744
 10
2476.8518518518517
 20
-2199.0740740740744
 10
2488.425925925926
 20
-2187.5
 10
2500.0
 20
-2187.5
 10
2511.5740740740744
 20
-2175.925925925926
 10
2523.1481481481483
 20
-2164.3518518518517
 10
2534.722222222222
 20
-2164.3518518518517
 10
2546.2962962962965
 20
-2152.777777777778
 10
2546.2962962962965
 20
-2141.203703703704
 10
2557.8703703703704
 20
-2129.6296296296296
 10
2569.4444444444443
 20
-2129.6296296296296
 10
2581.0185185185187
 20
-2118.0555555555557
 10
2592.5925925925926
 20
-2118.0555555555557
 10
2604.1666666666665
 20
-2106.4814814814818
 10
2615.740740740741
 20
-2106.4814814814818
 10
2627.314814814815
 20
-2094.9074074074074
 10
2638.888888888889
 20
-2083.3333333333335
 10
2650.462962962963
 20
-2071.759259259259
 10
2662.037037037037
 20
-2071.759259259259
 10
2673.6111111111113
 20
-2060.185185185185
 10
2685.185185185185
 20
-2048.6111111111113
 10
2696.759259259259
 20
-2048.6111111111113
 10
2708.3333333333335
 20
-2037.0370370370372
 10
2719.9074074074074
 20
-2025.462962962963
 10
2731.4814814814818
 20
-2013.888888888889
 10
2731.4814814814818
 20
-2002.3148148148148
 10
2743.0555555555557
 20
-1990.7407407407409
 10
2754.6296296296296
 20
-1979.1666666666667
 10
2766.203703703704
 20
-1967.5925925925926
 10
2777.777777777778
 20
-1967.5925925925926
 10
2777.777777777778
 20
-1956.0185185185185
 10
2789.3518518518517
 20
-1944.4444444444446
 10
2800.925925925926
 20
-1932.8703703703704
 10
2800.925925925926
 20
-1921.2962962962963
 10
2800.925925925926
 20
-1909.7222222222222
 10
2812.5
 20
-1898.1481481481483
 10
2812.5
 20
-1886.5740740740741
 10
2824.0740740740744
 20
-1875.0
 10
2824.0740740740744
 20
-1863.4259259259259
 10
2835.6481481481483
 20
-1851.851851851852
 10
2847.222222222222
 20
-1840.2777777777778
 10
2858.7962962962965
 20
-1828.7037037037037
 10
2858.7962962962965
 20
-1817.1296296296298
 10
2858.7962962962965
 20
-1805.5555555555557
 10
2858.7962962962965
 20
-1793.9814814814815
 10
2858.7962962962965
 20
-1782.4074074074074
 10
2870.3703703703704
 20
-1770.8333333333335
 10
2870.3703703703704
 20
-1759.2592592592594
 10
2870.3703703703704
 20
-1747.6851851851852
 10
2881.9444444444443
 20
-1736.111111111111
 10
2881.9444444444443
 20
-1724.5370370370372
 10
2881.9444444444443
 20
-1712.962962962963
 10
2881.9444444444443
 20
-1701.388888888889
 10
2881.9444444444443
 20
-1689.8148148148148
 10
2881.9444444444443
 20
-1678.2407407407409
 10
2881.9444444444443
 20
-1666.6666666666667
 10
2881.9444444444443
 20
-1655.0925925925926
 10
2881.9444444444443
 20
-1643.5185185185185
 10
2881.9444444444443
 20
-1631.9444444444446
 10
2881.9444444444443
 20
-1620.3703703703704
 10
2881.9444444444443
 20
-1608.7962962962963
 10
2881.9444444444443
 20
-1597.2222222222222
 10
2881.9444444444443
 20
-1585.6481481481483
 10
2881.9444444444443
 20
-1574.0740740740741
 10
2881.9444444444443
 20
-1562.5
 10
2881.9444444444443
 20
-1550.9259259259259
 10
2881.9444444444443
 20
-1539.351851851852
 10
2881.9444444444443
 20
-1527.7777777777778
 10
2881.9444444444443
 20
-1516.2037037037037
 10
2870.3703703703704
 20
-1504.6296296296296
 10
2870.3703703703704
 20
-1493.0555555555557
 10
2870.3703703703704
 20
-1481.4814814814815
 10
2858.7962962962965
 20
-1469.9074074074074
 10
2858.7962962962965
 20
-1458.3333333333335
 10
2858.7962962962965
 20
-1446.7592592592594
 10
2847.222222222222
 20
-1435.1851851851852
 10
2847.222222222222
 20
-1423.611111111111
 10
2847.222222222222
 20
-1412.0370370370372
 10
2835.6481481481483
 20
-1400.462962962963
 10
2835.6481481481483
 20
-1388.888888888889
 10
2835.6481481481483
 20
-1377.3148148148148
 10
2824.0740740740744
 20
-1365.7407407407409
 10
2824.0740740740744
 20
-1354.1666666666667
 10
2812.5
 20
-1342.5925925925926
 10
2812.5
 20
-1331.0185185185185
 10
2800.925925925926
 20
-1319.4444444444446
 10
2789.3518518518517
 20
-1307.8703703703704
 10
2777.777777777778
 20
-1296.2962962962963
 10
2777.777777777778
 20
-1284.7222222222222
 10
2766.203703703704
 20
-1273.1481481481483
 10
2766.203703703704
 20
-1261.5740740740741
 10
2754.6296296296296
 20
-1250.0
 10
2754.6296296296296
 20
-1238.4259259259259
 10
2743.0555555555557
 20
-1226.851851851852
 10
2731.4814814814818
 20
-1215.2777777777778
 10
2719.9074074074074
 20
-1203.7037037037037
 10
2708.3333333333335
 20
-1192.1296296296296
 10
2696.759259259259
 20
-1180.5555555555557
 10
2685.185185185185
 20
-1168.9814814814815
 10
2673.6111111111113
 20
-1157.4074074074074
 10
2662.037037037037
 20
-1145.8333333333333
 10
2650.462962962963
 20
-1134.2592592592594
 10
2638.888888888889
 20
-1122.6851851851852
 10
2627.314814814815
 20
-1122.6851851851852
 10
2615.740740740741
 20
-1111.111111111111
 10
2604.1666666666665
 20
-1099.5370370370372
 10
2592.5925925925926
 20
-1099.5370370370372
 10
2581.0185185185187
 20
-1087.962962962963
 10
2569.4444444444443
 20
-1087.962962962963
 10
2557.8703703703704
 20
-1087.962962962963
 10
2546.2962962962965
 20
-1076.388888888889
 10
2534.722222222222
 20
-1076.388888888889
 10
2523.1481481481483
 20
-1076.388888888889
 10
2511.5740740740744
 20
-1064.8148148148148
 10
2500.0
 20
-1064.8148148148148
 10
2488.425925925926
 20
-1064.8148148148148
 10
2476.8518518518517
 20
-1064.8148148148148
 10
2465.277777777778
 20
-1053.2407407407409
 10
2453.703703703704
 20
-1053.2407407407409
 10
2442.1296296296296
 20
-1053.2407407407409
 10
2430.5555555555557
 20
-1053.2407407407409
 10
2418.9814814814818
 20
-1041.6666666666667
 10
2407.4074074074074
 20
-1041.6666666666667
 10
2395.8333333333335
 20
-1041.6666666666667
 10
2384.259259259259
 20
-1041.6666666666667
 10
2372.685185185185
 20
-1041.6666666666667
 10
2361.1111111111113
 20
-1041.6666666666667
 10
2349.537037037037
 20
-1041.6666666666667
 10
2337.962962962963
 20
-1041.6666666666667
 10
2326.388888888889
 20
-1041.6666666666667
 10
2314.814814814815
 20
-1041.6666666666667
 10
2303.240740740741
 20
-1053.2407407407409
 10
2291.6666666666665
 20
-1053.2407407407409
 10
2280.0925925925926
 20
-1053.2407407407409
 10
2268.5185185185187
 20
-1053.2407407407409
 10
2256.9444444444443
 20
-1053.2407407407409
 10
2245.3703703703704
 20
-1064.8148148148148
 10
2233.7962962962965
 20
-1064.8148148148148
 10
2222.222222222222
 20
-1064.8148148148148
 10
2210.6481481481483
 20
-1064.8148148148148
 10
2199.0740740740744
 20
-1064.8148148148148
 10
2187.5
 20
-1076.388888888889
 10
2187.5
 20
-1087.962962962963
 10
2175.925925925926
 20
-1099.5370370370372
 10
2164.3518518518517
 20
-1099.5370370370372
 10
2152.777777777778
 20
-1111.111111111111
 10
2141.203703703704
 20
-1099.5370370370372
 10
2129.6296296296296
 20
-1087.962962962963
 10
2118.0555555555557
 20
-1087.962962962963
 10
2129.6296296296296
 20
-1099.5370370370372
 10
2118.0555555555557
 20
-1111.111111111111
 10
2106.4814814814818
 20
-1122.6851851851852
 10
2094.9074074074074
 20
-1122.6851851851852
 10
2083.3333333333335
 20
-1122.6851851851852
 10
2071.759259259259
 20
-1122.6851851851852
 10
2071.759259259259
 20
-1134.2592592592594
 10
2083.3333333333335
 20
-1145.8333333333333
 10
2071.759259259259
 20
-1157.4074074074074
 10
2060.185185185185
 20
-1157.4074074074074
 10
2048.6111111111113
 20
-1168.9814814814815
 10
2037.0370370370372
 20
-1168.9814814814815
 10
2025.462962962963
 20
-1168.9814814814815
 10
2013.888888888889
 20
-1180.5555555555557
 10
2002.3148148148148
 20
-1192.1296296296296
 10
1990.7407407407409
 20
-1203.7037037037037
 10
1990.7407407407409
 20
-1215.2777777777778
 10
1990.7407407407409
 20
-1226.851851851852
 10
1990.7407407407409
 20
-1238.4259259259259
 10
1990.7407407407409
 20
-1250.0
 10
1990.7407407407409
 20
-1261.5740740740741
 10
1979.1666666666667
 20
-1273.1481481481483
 10
1967.5925925925926
 20
-1273.1481481481483
 10
1967.5925925925926
 20
-1284.7222222222222
 10
1967.5925925925926
 20
-1296.2962962962963
 10
1956.0185185185185
 20
-1307.8703703703704
 10
1944.4444444444446
 20
-1319.4444444444446
 10
1932.8703703703704
 20
-1307.8703703703704
 10
1921.2962962962963
 20
-1319.4444444444446
 10
1909.7222222222222
 20
-1331.0185185185185
 10
1898.1481481481483
 20
-1331.0185185185185
 10
1886.5740740740741
 20
-1342.5925925925926
 10
1875.0
 20
-1354.1666666666667
 10
1863.4259259259259
 20
-1365.7407407407409
 10
1851.851851851852
 20
-1365.7407407407409
 10
1840.2777777777778
 20
-1377.3148148148148
 10
1828.7037037037037
 20
-1377.3148148148148
 10
1817.1296296296298
 20
-1377.3148148148148
 10
1805.5555555555557
 20
-1377.3148148148148
 10
1793.9814814814815
 20
-1377.3148148148148
 10
1782.4074074074074
 20
-1377.3148148148148
 10
1770.8333333333335
 20
-1377.3148148148148
 10
1759.2592592592594
 20
-1365.7407407407409
 10
1747.6851851851852
 20
-1354.1666666666667
 10
1736.111111111111
 20
-1342.5925925925926
 10
1724.5370370370372
 20
-1331.0185185185185
 10
1712.962962962963
 20
-1331.0185185185185
 10
1701.388888888889
 20
-1319.4444444444446
 10
1689.8148148148148
 20
-1307.8703703703704
 10
1678.2407407407409
 20
-1307.8703703703704
 10
1666.6666666666667
 20
-1296.2962962962963
 10
1655.0925925925926
 20
-1284.7222222222222
 10
1655.0925925925926
 20
-1273.1481481481483
 10
1643.5185185185185
 20
-1261.5740740740741
 10
1631.9444444444446
 20
-1261.5740740740741
 10
1620.3703703703704
 20
-1250.0
 10
1631.9444444444446
 20
-1238.4259259259259
 10
1620.3703703703704
 20
-1226.851851851852
 10
1608.7962962962963
 20
-1215.2777777777778
 10
1608.7962962962963
 20
-1203.7037037037037
 10
1608.7962962962963
 20
-1192.1296296296296
 10
1597.2222222222222
 20
-1180.5555555555557
 10
1597.2222222222222
 20
-1168.9814814814815
 10
1597.2222222222222
 20
-1157.4074074074074
 10
1597.2222222222222
 20
-1145.8333333333333
 10
1585.6481481481483
 20
-1134.2592592592594
 10
1585.6481481481483
 20
-1122.6851851851852
 10
1585.6481481481483
 20
-1111.111111111111
 10
1585.6481481481483
 20
-1099.5370370370372
 10
1585.6481481481483
 20
-1087.962962962963
 10
1585.6481481481483
 20
-1076.388888888889
 10
1597.2222222222222
 20
-1064.8148148148148
 10
1608.7962962962963
 20
-1053.2407407407409
 10
1608.7962962962963
 20
-1041.6666666666667
 10
1608.7962962962963
 20
-1030.0925925925926
 10
1608.7962962962963
 20
-1018.5185185185186
 10
1608.7962962962963
 20
-1006.9444444444445
 10
1620.3703703703704
 20
-995.3703703703704
 10
1620.3703703703704
 20
-983.7962962962963
 10
1631.9444444444446
 20
-972.2222222222223
 10
1643.5185185185185
 20
-960.6481481481482
 10
1655.0925925925926
 20
-960.6481481481482
 10
1666.6666666666667
 20
-949.0740740740741
 10
1678.2407407407409
 20
-937.5
 10
1678.2407407407409
 20
-925.925925925926
 10
1678.2407407407409
 20
-914.3518518518518
 10
1666.6666666666667
 20
-902.7777777777778
 10
1666.6666666666667
 20
-891.2037037037037
 10
1678.2407407407409
 20
-879.6296296296297
 10
1678.2407407407409
 20
-868.0555555555555
 10
1678.2407407407409
 20
-856.4814814814815
 10
1678.2407407407409
 20
-844.9074074074074
 10
1678.2407407407409
 20
-833.3333333333334
 10
1689.8148148148148
 20
-821.7592592592592
 10
1689.8148148148148
 20
-810.1851851851852
 10
1701.388888888889
 20
-798.6111111111111
 10
1712.962962962963
 20
-798.6111111111111
 10
1724.5370370370372
 20
-810.1851851851852
 10
1736.111111111111
 20
-821.7592592592592
 10
1747.6851851851852
 20
-821.7592592592592
 10
1759.2592592592594
 20
-833.3333333333334
 10
1759.2592592592594
 20
-821.7592592592592
 10
1770.8333333333335
 20
-810.1851851851852
 10
1770.8333333333335
 20
-798.6111111111111
 10
1782.4074074074074
 20
-787.0370370370371
 10
1793.9814814814815
 20
-775.4629629629629
 10
1805.5555555555557
 20
-775.4629629629629
 10
1817.1296296296298
 20
-775.4629629629629
 10
1828.7037037037037
 20
-775.4629629629629
 10
1840.2777777777778
 20
-775.4629629629629
 10
1851.851851851852
 20
-775.4629629629629
 10
1863.4259259259259
 20
-763.8888888888889
 10
1875.0
 20
-763.8888888888889
 10
1886.5740740740741
 20
-752.3148148148148
 10
1898.1481481481483
 20
-740.7407407407408
 10
1909.7222222222222
 20
-729.1666666666667
 10
1921.2962962962963
 20
-729.1666666666667
 10
1909.7222222222222
 20
-717.5925925925926
 10
1898.1481481481483
 20
-706.0185185185186
 10
1886.5740740740741
 20
-694.4444444444445
 10
1886.5740740740741
 20
-682.8703703703704
 10
1886.5740740740741
 20
-671.2962962962963
 10
1898.1481481481483
 20
-659.7222222222223
 10
1909.7222222222222
 20
-671.2962962962963
 10
1909.7222222222222
 20
-682.8703703703704
 10
1921.2962962962963
 20
-694.4444444444445
 10
1932.8703703703704
 20
-694.4444444444445
 10
1944.4444444444446
 20
-706.0185185185186
 10
1944.4444444444446
 20
-717.5925925925926
 10
1956.0185185185185
 20
-706.0185185185186
 10
1967.5925925925926
 20
-694.4444444444445
 10
1979.1666666666667
 20
-682.8703703703704
 10
1967.5925925925926
 20
-671.2962962962963
 10
1967.5925925925926
 20
-659.7222222222223
 10
1956.0185185185185
 20
-648.1481481481482
 10
1967.5925925925926
 20
-636.5740740740741
 10
1967.5925925925926
 20
-625.0
 10
1979.1666666666667
 20
-613.425925925926
 10
1979.1666666666667
 20
-601.8518518518518
 10
1990.7407407407409
 20
-590.2777777777778
 10
2002.3148148148148
 20
-578.7037037037037
 10
2013.888888888889
 20
-578.7037037037037
 10
2025.462962962963
 20
-567.1296296296297
 10
2037.0370370370372
 20
-567.1296296296297
 10
2048.6111111111113
 20
-578.7037037037037
 10
2037.0370370370372
 20
-590.2777777777778
 10
2037.0370370370372
 20
-601.8518518518518
 10
2048.6111111111113
 20
-613.425925925926
 10
2037.0370370370372
 20
-625.0
 10
2025.462962962963
 20
-625.0
 10
2037.0370370370372
 20
-625.0
 10
2048.6111111111113
 20
-636.5740740740741
 10
2037.0370370370372
 20
-648.1481481481482
 10
2025.462962962963
 20
-648.1481481481482
 10
2037.0370370370372
 20
-648.1481481481482
 10
2048.6111111111113
 20
-648.1481481481482
 10
2060.185185185185
 20
-636.5740740740741
 10
2071.759259259259
 20
-625.0
 10
2083.3333333333335
 20
-625.0
 10
2094.9074074074074
 20
-613.425925925926
 10
2106.4814814814818
 20
-601.8518518518518
 10
2118.0555555555557
 20
-601.8518518518518
 10
2106.4814814814818
 20
-590.2777777777778
 10
2094.9074074074074
 20
-578.7037037037037
 10
2094.9074074074074
 20
-567.1296296296297
 10
2106.4814814814818
 20
-555.5555555555555
 10
2118.0555555555557
 20
-555.5555555555555
 10
2129.6296296296296
 20
-567.1296296296297
 10
2129.6296296296296
 20
-578.7037037037037
 10
2141.203703703704
 20
-590.2777777777778
 10
2152.777777777778
 20
-590.2777777777778
 10
2164.3518518518517
 20
-578.7037037037037
 10
2175.925925925926
 20
-578.7037037037037
 10
2187.5
 20
-578.7037037037037
 10
2199.0740740740744
 20
-578.7037037037037
 10
2210.6481481481483
 20
-567.1296296296297
 10
2222.222222222222
 20
-567.1296296296297
 10
2233.7962962962965
 20
-555.5555555555555
 10
2245.3703703703704
 20
-555.5555555555555
 10
2256.9444444444443
 20
-555.5555555555555
 10
2268.5185185185187
 20
-555.5555555555555
  0
LWPOLYLINE
  5
3F
330
17
100
AcDbEntity
  8
conductor
100
AcDbPolyline
 90
5
 70
1
 43
0.5
 10
1655.0925925925926
 20
-3159.722222222222
 10
1655.0925925925926
 20
-3171.2962962962965
 10
1666.6666666666667
 20
-3171.2962962962965
 10
1678.2407407407409
 20
-3159.722222222222
 10
1666.6666666666667
 20
-3159.722222222222
  0
LWPOLYLINE
  5
40
330
17
100
AcDbEntity
  8
conductor
100
AcDbPolyline
 90
2
 70
1
 43
0.5
 10
2673.6111111111113
 20
-590.2777777777778
 10
2685.185185185185
 20
-590.2777777777778
  0
LWPOLYLINE
  5
41
330
17
100
AcDbEntity
  8
conductor
100
AcDbPolyline
 90
4
 70
1
 43
0.5
 10
2719.9074074074074
 20
-543.9814814814815
 10
2731.4814814814818
 20
-532.4074074074074
 10
2743.0555555555557
 20
-543.9814814814815
 10
2731.4814814814818
 20
-555.5555555555555
  0
LWPOLYLINE
  5
42
330
17
100
AcDbEntity
  8
conductor
100
AcDbPolyline
 90
4
 70
1
 43
0.5
 10
2673.6111111111113
 20
-520.8333333333334
 10
2685.185185185185
 20
-509.2592592592593
 10
2696.759259259259
 20
-520.8333333333334
 10
2685.185185185185
 20
-532.4074074074074
  0
LWPOLYLINE
  5
43
330
17
100
AcDbEntity
  8
conductor
100
AcDbPolyline
 90
21
 70
1
 43
0.5
 10
2534.722222222222
 20
-509.2592592592593
 10
2546.2962962962965
 20
-497.6851851851852
 10
2557.8703703703704
 20
-497.6851851851852
 10
2569.4444444444443
 20
-497.6851851851852
 10
2581.0185185185187
 20
-497.6851851851852
 10
2592.5925925925926
 20
-497.6851851851852
 10
2604.1666666666665
 20
-509.2592592592593
 10
2592.5925925925926
 20
-520.8333333333334
 10
2581.0185185185187
 20
-520.8333333333334
 10
2581.0185185185187
 20
-532.4074074074074
 10
2592.5925925925926
 20
-520.8333333333334
 10
2604.1666666666665
 20
-532.4074074074074
 10
2604.1666666666665
 20
-543.9814814814815
 10
2604.1666666666665
 20
-555.5555555555555
 10
2592.5925925925926
 20
-567.1296296296297
 10
2581.0185185185187
 20
-567.1296296296297
 10
2569.4444444444443
 20
-567.1296296296297
 10
2557.8703703703704
 20
-555.5555555555555
 10
2546.2962962962965
 20
-543.9814814814815
 10
2534.722222222222
 20
-532.4074074074074
 10
2534.722222222222
 20
-520.8333333333334
  0
LWPOLYLINE
  5
44
330
17
100
AcDbEntity
  8
conductor
100
AcDbPolyline
 90
13
 70
1
 43
0.5
 10
2627.314814814815
 20
-497.6851851851852
 10
2638.888888888889
 20
-486.11111111111114
 10
2650.462962962963
 20
-486.11111111111114
 10
2662.037037037037
 20
-497.6851851851852
 10
2662.037037037037
 20
-509.2592592592593
 10
2662.037037037037
 20
-520.8333333333334
 10
2650.462962962963
 20
-532.4074074074074
 10
2638.888888888889
 20
-543.9814814814815
 10
2627.314814814815
 20
-532.4074074074074
 10
2627.314814814815
 20
-520.8333333333334
 10
2615.740740740741
 20
-520.8333333333334
 10
2604.1666666666665
 20
-509.2592592592593
 10
2615.740740740741
 20
-497.6851851851852
  0
LWPOLYLINE
  5
45
330
17
100
AcDbEntity
  8
conductor
100
AcDbPolyline
 90
12
 70
1
 43
0.5
 10
2418.9814814814818
 20
-497.6851851851852
 10
2430.5555555555557
 20
-486.11111111111114
 10
2442.1296296296296
 20
-497.6851851851852
 10
2442.1296296296296
 20
-509.2592592592593
 10
2453.703703703704
 20
-520.8333333333334
 10
2442.1296296296296
 20
-532.4074074074074
 10
2430.5555555555557
 20
-543.9814814814815
 10
2418.9814814814818
 20
-543.9814814814815
 10
2407.4074074074074
 20
-532.4074074074074
 10
2395.8333333333335
 20
-520.8333333333334
 10
2407.4074074074074
 20
-509.2592592592593
 10
2418.9814814814818
 20
-509.2592592592593
  0
LWPOLYLINE
  5
46
330
17
100
AcDbEntity
  8
conductor
100
AcDbPolyline
 90
15
 70
1
 43
0.5
 10
2476.8518518518517
 20
-486.11111111111114
 10
2488.425925925926
 20
-474.53703703703707
 10
2500.0
 20
-486.11111111111114
 10
2500.0
 20
-497.6851851851852
 10
2511.5740740740744
 20
-509.2592592592593
 10
2523.1481481481483
 20
-520.8333333333334
 10
2523.1481481481483
 20
-532.4074074074074
 10
2511.5740740740744
 20
-543.9814814814815
 10
2500.0
 20
-543.9814814814815
 10
2488.425925925926
 20
-543.9814814814815
 10
2476.8518518518517
 20
-543.9814814814815
 10
2465.277777777778
 20
-532.4074074074074
 10
2465.277777777778
 20
-520.8333333333334
 10
2465.277777777778
 20
-509.2592592592593
 10
2465.277777777778
 20
-497.6851851851852
  0
LWPOLYLINE
  5
47
330
17
100
AcDbEntity
  8
substrate
100
AcDbPolyline
 90
97
 70
1
 43
0.5
 10
2002.3148148148148
 20
-3935.185185185185
 10
1990.7407407407409
 20
-3946.7592592592596
 10
1967.5925925925926
 20
-3946.7592592592596
 10
1956.0185185185185
 20
-3958.3333333333335
 10
1944.4444444444446
 20
-3958.3333333333335
 10
1932.8703703703704
 20
-3969.9074074074074
 10
1909.7222222222222
 20
-3969.9074074074074
 10
1898.1481481481483
 20
-3981.4814814814818
 10
1875.0
 20
-3981.4814814814818
 10
1863.4259259259259
 20
-3993.0555555555557
 10
1840.2777777777778
 20
-3993.0555555555557
 10
1828.7037037037037
 20
-4004.6296296296296
 10
1805.5555555555557
 20
-4004.6296296296296
 10
1793.9814814814815
 20
-4016.203703703704
 10
1770.8333333333335
 20
-4016.203703703704
 10
1759.2592592592594
 20
-4027.777777777778
 10
1747.6851851851852
 20
-4027.777777777778
 10
1736.111111111111
 20
-4039.351851851852
 10
1724.5370370370372
 20
-4039.351851851852
 10
1666.6666666666667
 20
-4097.222222222223
 10
1655.0925925925926
 20
-4097.222222222223
 10
1620.3703703703704
 20
-4131.944444444444
 10
1620.3703703703704
 20
-4143.518518518518
 10
1585.6481481481483
 20
-4178.240740740741
 10
1585.6481481481483
 20
-4189.814814814815
 10
1574.0740740740741
 20
-4201.388888888889
 10
1574.0740740740741
 20
-4212.9629629629635
 10
1562.5
 20
-4224.537037037037
 10
1562.5
 20
-4236.111111111111
 10
1550.9259259259259
 20
-4247.685185185185
 10
1550.9259259259259
 20
-4363.425925925926
 10
1562.5
 20
-4375.0
 10
1562.5
 20
-4386.574074074074
 10
1574.0740740740741
 20
-4398.148148148149
 10
1574.0740740740741
 20
-4409.722222222223
 10
1585.6481481481483
 20
-4421.2962962962965
 10
1585.6481481481483
 20
-4432.87037037037
 10
1597.2222222222222
 20
-4444.444444444444
 10
1597.2222222222222
 20
-4456.018518518518
 10
1608.7962962962963
 20
-4467.592592592593
 10
1608.7962962962963
 20
-4490.740740740741
 10
1620.3703703703704
 20
-4502.314814814815
 10
1620.3703703703704
 20
-4513.888888888889
 10
1643.5185185185185
 20
-4537.037037037037
 10
1643.5185185185185
 20
-4548.611111111111
 10
1689.8148148148148
 20
-4594.907407407408
 10
1701.388888888889
 20
-4594.907407407408
 10
1712.962962962963
 20
-4606.481481481482
 10
1724.5370370370372
 20
-4606.481481481482
 10
1736.111111111111
 20
-4618.055555555556
 10
1828.7037037037037
 20
-4618.055555555556
 10
1840.2777777777778
 20
-4629.62962962963
 10
2175.925925925926
 20
-4629.62962962963
 10
2187.5
 20
-4618.055555555556
 10
2233.7962962962965
 20
-4618.055555555556
 10
2245.3703703703704
 20
-4606.481481481482
 10
2268.5185185185187
 20
-4606.481481481482
 10
2280.0925925925926
 20
-4594.907407407408
 10
2314.814814814815
 20
-4594.907407407408
 10
2326.388888888889
 20
-4583.333333333333
 10
2349.537037037037
 20
-4583.333333333333
 10
2361.1111111111113
 20
-4571.759259259259
 10
2372.685185185185
 20
-4571.759259259259
 10
2395.8333333333335
 20
-4548.611111111111
 10
2407.4074074074074
 20
-4548.611111111111
 10
2418.9814814814818
 20
-4537.037037037037
 10
2418.9814814814818
 20
-4525.4629629629635
 10
2442.1296296296296
 20
-4502.314814814815
 10
2442.1296296296296
 20
-4490.740740740741
 10
2453.703703703704
 20
-4479.166666666667
 10
2453.703703703704
 20
-4467.592592592593
 10
2465.277777777778
 20
-4456.018518518518
 10
2465.277777777778
 20
-4432.87037037037
 10
2476.8518518518517
 20
-4421.2962962962965
 10
2476.8518518518517
 20
-4375.0
 10
2488.425925925926
 20
-4363.425925925926
 10
2488.425925925926
 20
-4317.12962962963
 10
2500.0
 20
-4305.555555555556
 10
2500.0
 20
-4270.833333333333
 10
2488.425925925926
 20
-4259.259259259259
 10
2488.425925925926
 20
-4224.537037037037
 10
2476.8518518518517
 20
-4212.9629629629635
 10
2476.8518518518517
 20
-4166.666666666667
 10
2361.1111111111113
 20
-4050.925925925926
 10
2349.537037037037
 20
-4050.925925925926
 10
2337.962962962963
 20
-4039.351851851852
 10
2326.388888888889
 20
-4039.351851851852
 10
2303.240740740741
 20
-4016.203703703704
 10
2291.6666666666665
 20
-4016.203703703704
 10
2280.0925925925926
 20
-4004.6296296296296
 10
2280.0925925925926
 20
-3993.0555555555557
 10
2268.5185185185187
 20
-3993.0555555555557
 10
2256.9444444444443
 20
-3981.4814814814818
 10
2245.3703703703704
 20
-3981.4814814814818
 10
2210.6481481481483
 20
-3946.7592592592596
 10
2141.203703703704
 20
-3946.7592592592596
 10
2129.6296296296296
 20
-3935.185185185185
  0
LWPOLYLINE
  5
48
330
17
100
AcDbEntity
  8
substrate
100
AcDbPolyline
 90
381
 70
1
 43
0.5
 10
2280.0925925925926
 20
-555.5555555555555
 10
2268.5185185185187
 20
-567.1296296296297
 10
2222.222222222222
 20
-567.1296296296297
 10
2199.0740740740744
 20
-590.2777777777778
 10
2141.203703703704
 20
-590.2777777777778
 10
2129.6296296296296
 20
-601.8518518518518
 10
2118.0555555555557
 20
-601.8518518518518
 10
2071.759259259259
 20
-648.1481481481482
 10
2060.185185185185
 20
-648.1481481481482
 10
2048.6111111111113
 20
-659.7222222222223
 10
2037.0370370370372
 20
-659.7222222222223
 10
2025.462962962963
 20
-671.2962962962963
 10
2013.888888888889
 20
-671.2962962962963
 10
2002.3148148148148
 20
-682.8703703703704
 10
1990.7407407407409
 20
-682.8703703703704
 10
1956.0185185185185
 20
-717.5925925925926
 10
1944.4444444444446
 20
-717.5925925925926
 10
1921.2962962962963
 20
-740.7407407407408
 10
1909.7222222222222
 20
-740.7407407407408
 10
1863.4259259259259
 20
-787.0370370370371
 10
1851.851851851852
 20
-787.0370370370371
 10
1840.2777777777778
 20
-798.6111111111111
 10
1817.1296296296298
 20
-798.6111111111111
 10
1759.2592592592594
 20
-856.4814814814815
 10
1736.111111111111
 20
-856.4814814814815
 10
1724.5370370370372
 20
-868.0555555555555
 10
1712.962962962963
 20
-868.0555555555555
 10
1712.962962962963
 20
-879.6296296296297
 10
1701.388888888889
 20
-891.2037037037037
 10
1701.388888888889
 20
-902.7777777777778
 10
1689.8148148148148
 20
-914.3518518518518
 10
1689.8148148148148
 20
-937.5
 10
1678.2407407407409
 20
-949.0740740740741
 10
1678.2407407407409
 20
-983.7962962962963
 10
1655.0925925925926
 20
-1006.9444444444445
 10
1655.0925925925926
 20
-1030.0925925925926
 10
1643.5185185185185
 20
-1041.6666666666667
 10
1643.5185185185185
 20
-1064.8148148148148
 10
1620.3703703703704
 20
-1087.962962962963
 10
1620.3703703703704
 20
-1145.8333333333333
 10
1631.9444444444446
 20
-1157.4074074074074
 10
1631.9444444444446
 20
-1180.5555555555557
 10
1643.5185185185185
 20
-1192.1296296296296
 10
1643.5185185185185
 20
-1226.851851851852
 10
1655.0925925925926
 20
-1238.4259259259259
 10
1655.0925925925926
 20
-1250.0
 10
1666.6666666666667
 20
-1261.5740740740741
 10
1666.6666666666667
 20
-1273.1481481481483
 10
1724.5370370370372
 20
-1331.0185185185185
 10
1736.111111111111
 20
-1331.0185185185185
 10
1770.8333333333335
 20
-1365.7407407407409
 10
1782.4074074074074
 20
-1365.7407407407409
 10
1793.9814814814815
 20
-1377.3148148148148
 10
1805.5555555555557
 20
-1365.7407407407409
 10
1840.2777777777778
 20
-1365.7407407407409
 10
1851.851851851852
 20
-1354.1666666666667
 10
1863.4259259259259
 20
-1354.1666666666667
 10
1898.1481481481483
 20
-1319.4444444444446
 10
1898.1481481481483
 20
-1307.8703703703704
 10
1921.2962962962963
 20
-1284.7222222222222
 10
1921.2962962962963
 20
-1273.1481481481483
 10
1990.7407407407409
 20
-1203.7037037037037
 10
1990.7407407407409
 20
-1192.1296296296296
 10
2060.185185185185
 20
-1122.6851851851852
 10
2071.759259259259
 20
-1122.6851851851852
 10
2106.4814814814818
 20
-1087.962962962963
 10
2118.0555555555557
 20
-1087.962962962963
 10
2129.6296296296296
 20
-1076.388888888889
 10
2152.777777777778
 20
-1076.388888888889
 10
2164.3518518518517
 20
-1064.8148148148148
 10
2187.5
 20
-1064.8148148148148
 10
2199.0740740740744
 20
-1053.2407407407409
 10
2256.9444444444443
 20
-1053.2407407407409
 10
2268.5185185185187
 20
-1041.6666666666667
 10
2326.388888888889
 20
-1041.6666666666667
 10
2337.962962962963
 20
-1030.0925925925926
 10
2407.4074074074074
 20
-1030.0925925925926
 10
2418.9814814814818
 20
-1041.6666666666667
 10
2465.277777777778
 20
-1041.6666666666667
 10
2476.8518518518517
 20
-1053.2407407407409
 10
2500.0
 20
-1053.2407407407409
 10
2511.5740740740744
 20
-1064.8148148148148
 10
2534.722222222222
 20
-1064.8148148148148
 10
2546.2962962962965
 20
-1076.388888888889
 10
2569.4444444444443
 20
-1076.388888888889
 10
2581.0185185185187
 20
-1087.962962962963
 10
2592.5925925925926
 20
-1087.962962962963
 10
2604.1666666666665
 20
-1099.5370370370372
 10
2615.740740740741
 20
-1099.5370370370372
 10
2627.314814814815
 20
-1111.111111111111
 10
2638.888888888889
 20
-1111.111111111111
 10
2731.4814814814818
 20
-1203.7037037037037
 10
2731.4814814814818
 20
-1215.2777777777778
 10
2743.0555555555557
 20
-1215.2777777777778
 10
2766.203703703704
 20
-1238.4259259259259
 10
2766.203703703704
 20
-1250.0
 10
2789.3518518518517
 20
-1273.1481481481483
 10
2789.3518518518517
 20
-1284.7222222222222
 10
2812.5
 20
-1307.8703703703704
 10
2812.5
 20
-1319.4444444444446
 10
2824.0740740740744
 20
-1331.0185185185185
 10
2824.0740740740744
 20
-1342.5925925925926
 10
2835.6481481481483
 20
-1354.1666666666667
 10
2835.6481481481483
 20
-1365.7407407407409
 10
2847.222222222222
 20
-1377.3148148148148
 10
2847.222222222222
 20
-1400.462962962963
 10
2858.7962962962965
 20
-1412.0370370370372
 10
2858.7962962962965
 20
-1435.1851851851852
 10
2870.3703703703704
 20
-1446.7592592592594
 10
2870.3703703703704
 20
-1469.9074074074074
 10
2881.9444444444443
 20
-1481.4814814814815
 10
2881.9444444444443
 20
-1527.7777777777778
 10
2893.5185185185187
 20
-1539.351851851852
 10
2893.5185185185187
 20
-1736.111111111111
 10
2881.9444444444443
 20
-1747.6851851851852
 10
2881.9444444444443
 20
-1770.8333333333335
 10
2870.3703703703704
 20
-1782.4074074074074
 10
2870.3703703703704
 20
-1817.1296296296298
 10
2858.7962962962965
 20
-1828.7037037037037
 10
2858.7962962962965
 20
-1840.2777777777778
 10
2835.6481481481483
 20
-1863.4259259259259
 10
2835.6481481481483
 20
-1875.0
 10
2824.0740740740744
 20
-1886.5740740740741
 10
2824.0740740740744
 20
-1898.1481481481483
 10
2812.5
 20
-1909.7222222222222
 10
2812.5
 20
-1921.2962962962963
 10
2800.925925925926
 20
-1932.8703703703704
 10
2800.925925925926
 20
-1944.4444444444446
 10
2743.0555555555557
 20
-2002.3148148148148
 10
2743.0555555555557
 20
-2013.888888888889
 10
2696.759259259259
 20
-2060.185185185185
 10
2685.185185185185
 20
-2060.185185185185
 10
2673.6111111111113
 20
-2071.759259259259
 10
2662.037037037037
 20
-2071.759259259259
 10
2615.740740740741
 20
-2118.0555555555557
 10
2604.1666666666665
 20
-2118.0555555555557
 10
2592.5925925925926
 20
-2129.6296296296296
 10
2581.0185185185187
 20
-2129.6296296296296
 10
2569.4444444444443
 20
-2141.203703703704
 10
2557.8703703703704
 20
-2141.203703703704
 10
2500.0
 20
-2199.0740740740744
 10
2488.425925925926
 20
-2199.0740740740744
 10
2476.8518518518517
 20
-2210.6481481481483
 10
2465.277777777778
 20
-2210.6481481481483
 10
2453.703703703704
 20
-2222.222222222222
 10
2442.1296296296296
 20
-2222.222222222222
 10
2407.4074074074074
 20
-2256.9444444444443
 10
2384.259259259259
 20
-2256.9444444444443
 10
2361.1111111111113
 20
-2280.0925925925926
 10
2349.537037037037
 20
-2280.0925925925926
 10
2326.388888888889
 20
-2303.240740740741
 10
2314.814814814815
 20
-2303.240740740741
 10
2303.240740740741
 20
-2314.814814814815
 10
2291.6666666666665
 20
-2314.814814814815
 10
2280.0925925925926
 20
-2326.388888888889
 10
2268.5185185185187
 20
-2326.388888888889
 10
2256.9444444444443
 20
-2337.962962962963
 10
2245.3703703703704
 20
-2337.962962962963
 10
2233.7962962962965
 20
-2349.537037037037
 10
2222.222222222222
 20
-2349.537037037037
 10
2210.6481481481483
 20
-2361.1111111111113
 10
2199.0740740740744
 20
-2361.1111111111113
 10
2187.5
 20
-2372.685185185185
 10
2175.925925925926
 20
-2372.685185185185
 10
2164.3518518518517
 20
-2384.259259259259
 10
2152.777777777778
 20
-2384.259259259259
 10
2083.3333333333335
 20
-2453.703703703704
 10
2071.759259259259
 20
-2453.703703703704
 10
2060.185185185185
 20
-2465.277777777778
 10
2048.6111111111113
 20
-2465.277777777778
 10
2013.888888888889
 20
-2500.0
 10
2002.3148148148148
 20
-2500.0
 10
1990.7407407407409
 20
-2511.5740740740744
 10
1979.1666666666667
 20
-2511.5740740740744
 10
1944.4444444444446
 20
-2546.2962962962965
 10
1944.4444444444446
 20
-2557.8703703703704
 10
1932.8703703703704
 20
-2569.4444444444443
 10
1932.8703703703704
 20
-2592.5925925925926
 10
1909.7222222222222
 20
-2615.740740740741
 10
1909.7222222222222
 20
-2627.314814814815
 10
1875.0
 20
-2662.037037037037
 10
1875.0
 20
-2673.6111111111113
 10
1863.4259259259259
 20
-2685.185185185185
 10
1863.4259259259259
 20
-2696.759259259259
 10
1840.2777777777778
 20
-2719.9074074074074
 10
1840.2777777777778
 20
-2743.0555555555557
 10
1817.1296296296298
 20
-2766.203703703704
 10
1817.1296296296298
 20
-2789.3518518518517
 10
1782.4074074074074
 20
-2824.0740740740744
 10
1770.8333333333335
 20
-2812.5
 10
1759.2592592592594
 20
-2824.0740740740744
 10
1759.2592592592594
 20
-2858.7962962962965
 10
1747.6851851851852
 20
-2870.3703703703704
 10
1747.6851851851852
 20
-2905.0925925925926
 10
1724.5370370370372
 20
-2928.240740740741
 10
1724.5370370370372
 20
-2974.537037037037
 10
1712.962962962963
 20
-2986.1111111111113
 10
1689.8148148148148
 20
-2986.1111111111113
 10
1689.8148148148148
 20
-3032.4074074074074
 10
1678.2407407407409
 20
-3043.9814814814818
 10
1678.2407407407409
 20
-3090.277777777778
 10
1689.8148148148148
 20
-3101.8518518518517
 10
1689.8148148148148
 20
-3148.1481481481483
 10
1678.2407407407409
 20
-3159.722222222222
 10
1678.2407407407409
 20
-3240.740740740741
 10
1666.6666666666667
 20
-3252.314814814815
 10
1666.6666666666667
 20
-3321.7592592592596
 10
1678.2407407407409
 20
-3333.3333333333335
 10
1678.2407407407409
 20
-3344.9074074074074
 10
1666.6666666666667
 20
-3356.4814814814818
 10
1666.6666666666667
 20
-3379.6296296296296
 10
1678.2407407407409
 20
-3379.6296296296296
 10
1678.2407407407409
 20
-3368.0555555555557
 10
1689.8148148148148
 20
-3356.4814814814818
 10
1712.962962962963
 20
-3356.4814814814818
 10
1724.5370370370372
 20
-3368.0555555555557
 10
1724.5370370370372
 20
-3402.777777777778
 10
1736.111111111111
 20
-3414.3518518518517
 10
1736.111111111111
 20
-3472.222222222222
 10
1759.2592592592594
 20
-3495.3703703703704
 10
1759.2592592592594
 20
-3506.9444444444443
 10
1805.5555555555557
 20
-3553.240740740741
 10
1805.5555555555557
 20
-3564.814814814815
 10
1828.7037037037037
 20
-3587.962962962963
 10
1840.2777777777778
 20
-3587.962962962963
 10
1898.1481481481483
 20
-3645.8333333333335
 10
1944.4444444444446
 20
-3645.8333333333335
 10
1956.0185185185185
 20
-3657.4074074074074
 10
1967.5925925925926
 20
-3645.8333333333335
 10
2048.6111111111113
 20
-3645.8333333333335
 10
2060.185185185185
 20
-3634.2592592592596
 10
2083.3333333333335
 20
-3634.2592592592596
 10
2094.9074074074074
 20
-3622.685185185185
 10
2106.4814814814818
 20
-3622.685185185185
 10
2118.0555555555557
 20
-3611.1111111111113
 10
2129.6296296296296
 20
-3611.1111111111113
 10
2141.203703703704
 20
-3599.537037037037
 10
2164.3518518518517
 20
-3599.537037037037
 10
2175.925925925926
 20
-3587.962962962963
 10
2199.0740740740744
 20
-3587.962962962963
 10
2210.6481481481483
 20
-3576.388888888889
 10
2210.6481481481483
 20
-3564.814814814815
 10
2222.222222222222
 20
-3553.240740740741
 10
2233.7962962962965
 20
-3553.240740740741
 10
2245.3703703703704
 20
-3541.666666666667
 10
2256.9444444444443
 20
-3541.666666666667
 10
2291.6666666666665
 20
-3506.9444444444443
 10
2291.6666666666665
 20
-3495.3703703703704
 10
2303.240740740741
 20
-3483.7962962962965
 10
2303.240740740741
 20
-3472.222222222222
 10
2314.814814814815
 20
-3460.6481481481483
 10
2314.814814814815
 20
-3449.0740740740744
 10
2326.388888888889
 20
-3437.5
 10
2326.388888888889
 20
-3414.3518518518517
 10
2337.962962962963
 20
-3402.777777777778
 10
2337.962962962963
 20
-3379.6296296296296
 10
2349.537037037037
 20
-3368.0555555555557
 10
2349.537037037037
 20
-3310.185185185185
 10
2361.1111111111113
 20
-3298.6111111111113
 10
2361.1111111111113
 20
-3136.5740740740744
 10
2372.685185185185
 20
-3125.0
 10
2372.685185185185
 20
-3055.5555555555557
 10
2384.259259259259
 20
-3043.9814814814818
 10
2384.259259259259
 20
-3009.259259259259
 10
2418.9814814814818
 20
-2974.537037037037
 10
2430.5555555555557
 20
-2974.537037037037
 10
2442.1296296296296
 20
-2962.962962962963
 10
2453.703703703704
 20
-2962.962962962963
 10
2476.8518518518517
 20
-2939.814814814815
 10
2488.425925925926
 20
-2939.814814814815
 10
2511.5740740740744
 20
-2916.666666666667
 10
2523.1481481481483
 20
-2916.666666666667
 10
2557.8703703703704
 20
-2881.9444444444443
 10
2569.4444444444443
 20
-2881.9444444444443
 10
2743.0555555555557
 20
-2708.3333333333335
 10
2743.0555555555557
 20
-2696.759259259259
 10
2766.203703703704
 20
-2673.6111111111113
 10
2777.777777777778
 20
-2673.6111111111113
 10
2824.0740740740744
 20
-2627.314814814815
 10
2835.6481481481483
 20
-2627.314814814815
 10
2858.7962962962965
 20
-2604.1666666666665
 10
2870.3703703703704
 20
-2604.1666666666665
 10
2893.5185185185187
 20
-2581.0185185185187
 10
2905.0925925925926
 20
-2581.0185185185187
 10
2916.666666666667
 20
-2569.4444444444443
 10
2916.666666666667
 20
-2557.8703703703704
 10
2928.240740740741
 20
-2546.2962962962965
 10
2939.814814814815
 20
-2546.2962962962965
 10
3136.5740740740744
 20
-2349.537037037037
 10
3148.1481481481483
 20
-2349.537037037037
 10
3171.2962962962965
 20
-2326.388888888889
 10
3171.2962962962965
 20
-2314.814814814815
 10
3182.8703703703704
 20
-2303.240740740741
 10
3182.8703703703704
 20
-2291.6666666666665
 10
3217.5925925925926
 20
-2256.9444444444443
 10
3229.166666666667
 20
-2256.9444444444443
 10
3298.6111111111113
 20
-2187.5
 10
3298.6111111111113
 20
-2175.925925925926
 10
3321.7592592592596
 20
-2152.777777777778
 10
3321.7592592592596
 20
-2141.203703703704
 10
3344.9074074074074
 20
-2118.0555555555557
 10
3344.9074074074074
 20
-2106.4814814814818
 10
3356.4814814814818
 20
-2094.9074074074074
 10
3356.4814814814818
 20
-2083.3333333333335
 10
3391.203703703704
 20
-2048.6111111111113
 10
3391.203703703704
 20
-2025.462962962963
 10
3414.3518518518517
 20
-2002.3148148148148
 10
3414.3518518518517
 20
-1990.7407407407409
 10
3425.925925925926
 20
-1979.1666666666667
 10
3425.925925925926
 20
-1956.0185185185185
 10
3437.5
 20
-1944.4444444444446
 10
3437.5
 20
-1932.8703703703704
 10
3449.0740740740744
 20
-1921.2962962962963
 10
3449.0740740740744
 20
-1909.7222222222222
 10
3460.6481481481483
 20
-1898.1481481481483
 10
3460.6481481481483
 20
-1886.5740740740741
 10
3472.222222222222
 20
-1875.0
 10
3472.222222222222
 20
-1863.4259259259259
 10
3483.7962962962965
 20
-1851.851851851852
 10
3483.7962962962965
 20
-1828.7037037037037
 10
3495.3703703703704
 20
-1817.1296296296298
 10
3495.3703703703704
 20
-1782.4074074074074
 10
3506.9444444444443
 20
-1770.8333333333335
 10
3506.9444444444443
 20
-1747.6851851851852
 10
3518.5185185185187
 20
-1736.111111111111
 10
3518.5185185185187
 20
-1493.0555555555557
 10
3506.9444444444443
 20
-1481.4814814814815
 10
3506.9444444444443
 20
-1458.3333333333335
 10
3495.3703703703704
 20
-1446.7592592592594
 10
3495.3703703703704
 20
-1377.3148148148148
 10
3483.7962962962965
 20
-1365.7407407407409
 10
3483.7962962962965
 20
-1307.8703703703704
 10
3472.222222222222
 20
-1296.2962962962963
 10
3472.222222222222
 20
-1261.5740740740741
 10
3460.6481481481483
 20
-1250.0
 10
3460.6481481481483
 20
-1238.4259259259259
 10
3449.0740740740744
 20
-1226.851851851852
 10
3449.0740740740744
 20
-1215.2777777777778
 10
3437.5
 20
-1203.7037037037037
 10
3437.5
 20
-1192.1296296296296
 10
3425.925925925926
 20
-1180.5555555555557
 10
3425.925925925926
 20
-1168.9814814814815
 10
3414.3518518518517
 20
-1157.4074074074074
 10
3414.3518518518517
 20
-1145.8333333333333
 10
3402.777777777778
 20
-1134.2592592592594
 10
3402.777777777778
 20
-1099.5370370370372
 10
3333.3333333333335
 20
-1030.0925925925926
 10
3333.3333333333335
 20
-1018.5185185185186
 10
3136.5740740740744
 20
-821.7592592592592
 10
3125.0
 20
-821.7592592592592
 10
3101.8518518518517
 20
-798.6111111111111
 10
3101.8518518518517
 20
-787.0370370370371
 10
3078.703703703704
 20
-763.8888888888889
 10
3067.1296296296296
 20
-763.8888888888889
 10
3055.5555555555557
 20
-752.3148148148148
 10
3043.9814814814818
 20
-752.3148148148148
 10
3032.4074074074074
 20
-740.7407407407408
 10
3020.8333333333335
 20
-740.7407407407408
 10
3009.259259259259
 20
-729.1666666666667
 10
2986.1111111111113
 20
-729.1666666666667
 10
2939.814814814815
 20
-682.8703703703704
 10
2928.240740740741
 20
-682.8703703703704
 10
2916.666666666667
 20
-671.2962962962963
 10
2905.0925925925926
 20
-671.2962962962963
 10
2893.5185185185187
 20
-659.7222222222223
 10
2881.9444444444443
 20
-659.7222222222223
 10
2858.7962962962965
 20
-636.5740740740741
 10
2847.222222222222
 20
-636.5740740740741
 10
2835.6481481481483
 20
-625.0
 10
2766.203703703704
 20
-625.0
 10
2754.6296296296296
 20
-613.425925925926
 10
2731.4814814814818
 20
-613.425925925926
 10
2719.9074074074074
 20
-601.8518518518518
 10
2685.185185185185
 20
-601.8518518518518
 10
2673.6111111111113
 20
-590.2777777777778
 10
2627.314814814815
 20
-590.2777777777778
 10
2615.740740740741
 20
-578.7037037037037
 10
2557.8703703703704
 20
-578.7037037037037
 10
2546.2962962962965
 20
-567.1296296296297
 10
2361.1111111111113
 20
-567.1296296296297
 10
2349.537037037037
 20
-555.5555555555555
  0
ENDSEC
  0
SECTION
  2
OBJECTS
  0
DICTIONARY
  5
A
330
0
100
AcDbDictionary
280
0
281
1
  3
ACAD_COLOR
350
B
  3
ACAD_GROUP
350
C
  3
ACAD_LAYOUT
350
D
  3
ACAD_MATERIAL
350
E
  3
ACAD_MLEADERSTYLE
350
F
  3
ACAD_MLINESTYLE
350
10
  3
ACAD_PLOTSETTINGS
350
11
  3
ACAD_PLOTSTYLENAME
350
12
  3
ACAD_SCALELIST
350
14
  3
ACAD_TABLESTYLE
350
15
  3
ACAD_VISUALSTYLE
350
16
  3
EZDXF_META
350
2D
  0
DICTIONARY
  5
B
330
A
100
AcDbDictionary
280
0
281
1
  0
DICTIONARY
  5
C
330
A
100
AcDbDictionary
280
0
281
1
  0
DICTIONARY
  5
D
330
A
100
AcDbDictionary
280
0
281
1
  3
Model
350
1A
  3
Layout1
350
1E
  0
DICTIONARY
  5
E
330
A
100
AcDbDictionary
280
0
281
1
  3
ByBlock
350
1F
  3
ByLayer
350
20
  3
Global
350
21
  0
DICTIONARY
  5
F
330
A
100
AcDbDictionary
280
0
281
1
  3
Standard
350
2C
  0
DICTIONARY
  5
10
330
A
100
AcDbDictionary
280
0
281
1
  3
Standard
350
22
  0
DICTIONARY
  5
11
330
A
100
AcDbDictionary
280
0
281
1
  0
ACDBDICTIONARYWDFLT
  5
12
330
A
100
AcDbDictionary
280
0
281
1
  3
Normal
350
13
100
AcDbDictionaryWithDefault
340
13
  0
ACDBPLACEHOLDER
  5
13
330
12
  0
DICTIONARY
  5
14
330
A
100
AcDbDictionary
280
0
281
1
  0
DICTIONARY
  5
15
330
A
100
AcDbDictionary
280
0
281
1
  0
DICTIONARY
  5
16
330
A
100
AcDbDictionary
280
0
281
1
  0
LAYOUT
  5
1A
330
D
100
AcDbPlotSettings
  1

  2
Adobe PDF
  4
A3
  6

 40
7.5
 41
20.0
 42
7.5
 43
20.0
 44
420.0
 45
297.0
 46
0.0
 47
0.0
 48
0.0
 49
0.0
140
0.0
141
0.0
142
1.0
143
1.0
 70
1024
 72
1
 73
0
 74
5
  7

 75
16
 76
0
 77
2
 78
300
147
1.0
148
0.0
149
0.0
100
AcDbLayout
  1
Model
 70
1
 71
0
 10
0.0
 20
0.0
 11
420.0
 21
297.0
 12
0.0
 22
0.0
 32
0.0
 14
1e+20
 24
1e+20
 34
1e+20
 15
-1e+20
 25
-1e+20
 35
-1e+20
146
0.0
 13
0.0
 23
0.0
 33
0.0
 16
1.0
 26
0.0
 36
0.0
 17
0.0
 27
1.0
 37
0.0
 76
1
330
17
  0
LAYOUT
  5
1E
330
D
100
AcDbPlotSettings
  1

  2
Adobe PDF
  4
A3
  6

 40
7.5
 41
20.0
 42
7.5
 43
20.0
 44
420.0
 45
297.0
 46
0.0
 47
0.0
 48
0.0
 49
0.0
140
0.0
141
0.0
142
1.0
143
1.0
 70
0
 72
1
 73
0
 74
5
  7

 75
16
 76
0
 77
2
 78
300
147
1.0
148
0.0
149
0.0
100
AcDbLayout
  1
Layout1
 70
1
 71
1
 10
0.0
 20
0.0
 11
420.0
 21
297.0
 12
0.0
 22
0.0
 32
0.0
 14
1e+20
 24
1e+20
 34
1e+20
 15
-1e+20
 25
-1e+20
 35
-1e+20
146
0.0
 13
0.0
 23
0.0
 33
0.0
 16
1.0
 26
0.0
 36
0.0
 17
0.0
 27
1.0
 37
0.0
 76
1
330
1B
  0
MATERIAL
  5
1F
102
{ACAD_REACTORS
330
E
102
}
330
E
100
AcDbMaterial
  1
ByBlock
  2

 70
0
 40
1.0
 71
1
 41
1.0
 91
-1023410177
 42
1.0
 72
1
  3

 73
1
 74
1
 75
1
 44
0.5
 73
0
 45
1.0
 46
1.0
 77
1
  4

 78
1
 79
1
170
1
 48
1.0
171
1
  6

172
1
173
1
174
1
140
1.0
141
1.0
175
1
  7

176
1
177
1
178
1
143
1.0
179
1
  8

270
1
271
1
272
1
145
1.0
146
1.0
273
1
  9

274
1
275
1
276
1
 42
1.0
 72
1
  3

 73
1
 74
1
 75
1
 94
63
  0
MATERIAL
  5
20
102
{ACAD_REACTORS
330
E
102
}
330
E
100
AcDbMaterial
  1
ByLayer
  2

 70
0
 40
1.0
 71
1
 41
1.0
 91
-1023410177
 42
1.0
 72
1
  3

 73
1
 74
1
 75
1
 44
0.5
 73
0
 45
1.0
 46
1.0
 77
1
  4

 78
1
 79
1
170
1
 48
1.0
171
1
  6

172
1
173
1
174
1
140
1.0
141
1.0
175
1
  7

176
1
177
1
178
1
143
1.0
179
1
  8

270
1
271
1
272
1
145
1.0
146
1.0
273
1
  9

274
1
275
1
276
1
 42
1.0
 72
1
  3

 73
1
 74
1
 75
1
 94
63
  0
MATERIAL
  5
21
102
{ACAD_REACTORS
330
E
102
}
330
E
100
AcDbMaterial
  1
Global
  2

 70
0
 40
1.0
 71
1
 41
1.0
 91
-1023410177
 42
1.0
 72
1
  3

 73
1
 74
1
 75
1
 44
0.5
 73
0
 45
1.0
 46
1.0
 77
1
  4

 78
1
 79
1
170
1
 48
1.0
171
1
  6

172
1
173
1
174
1
140
1.0
141
1.0
175
1
  7

176
1
177
1
178
1
143
1.0
179
1
  8

270
1
271
1
272
1
145
1.0
146
1.0
273
1
  9

274
1
275
1
276
1
 42
1.0
 72
1
  3

 73
1
 74
1
 75
1
 94
63
  0
MLINESTYLE
  5
22
102
{ACAD_REACTORS
330
10
102
}
330
10
100
AcDbMlineStyle
  2
Standard
 70
0
  3

 62
256
 51
90.0
 52
90.0
 71
2
 49
0.5
 62
256
  6
BYLAYER
 49
-0.5
 62
256
  6
BYLAYER
  0
MLEADERSTYLE
  5
2C
102
{ACAD_REACTORS
330
F
102
}
330
F
100
AcDbMLeaderStyle
179
2
170
2
171
1
172
0
 90
2
 40
0.0
 41
0.0
173
1
 91
-1056964608
 92
-2
290
1
 42
2.0
291
1
 43
8.0
  3
Standard
 44
4.0
300

342
29
174
1
175
1
176
0
178
1
 93
-1056964608
 45
4.0
292
0
297
0
 46
4.0
 94
-1056964608
 47
1.0
 49
1.0
140
1.0
294
1
141
0.0
177
0
142
1.0
295
0
296
0
143
3.75
271
0
272
9
273
9
  0
DICTIONARY
  5
2D
330
A
100
AcDbDictionary
281
1
  3
CREATED_BY_EZDXF
350
2E
  3
WRITTEN_BY_EZDXF
350
4B
  0
DICTIONARYVAR
  5
2E
330
2D
100
DictionaryVariables
280
0
  1
1.1.3 @ 2023-12-19T16:32:56.374078+00:00
  0
DICTIONARYVAR
  5
4B
330
2D
100
DictionaryVariables
280
0
  1
1.1.3 @ 2023-12-19T16:32:57.421068+00:00
  0
ENDSEC
  0
EOF
